<mxfile host="app.diagrams.net" modified="2023-08-14T19:19:56.027Z" agent="Mozilla/5.0 (Macintosh; Intel Mac OS X 10.15; rv:109.0) Gecko/20100101 Firefox/115.0" etag="Qml8YFd1UVtOIl42s4TU" version="21.6.8" type="github">
  <diagram name="Page-1" id="t3JvcqcyFCbdU0aGf06r">
    <mxGraphModel dx="2160" dy="1337" grid="1" gridSize="10" guides="1" tooltips="1" connect="1" arrows="1" fold="1" page="0" pageScale="1" pageWidth="1169" pageHeight="827" math="0" shadow="0">
      <root>
        <mxCell id="0" />
        <mxCell id="1" parent="0" />
        <mxCell id="lHYMxXaq1XfdecDBcLf--15" value="" style="fillColor=none;strokeColor=#5A6C86;dashed=1;verticalAlign=top;fontStyle=0;fontColor=#5A6C86;whiteSpace=wrap;html=1;" vertex="1" parent="1">
          <mxGeometry x="525" y="260" width="1100" height="750" as="geometry" />
        </mxCell>
        <mxCell id="lHYMxXaq1XfdecDBcLf--35" value="" style="fillColor=none;strokeColor=#5A6C86;dashed=1;verticalAlign=top;fontStyle=0;fontColor=#5A6C86;whiteSpace=wrap;html=1;" vertex="1" parent="1">
          <mxGeometry x="90" y="180" width="1700" height="920" as="geometry" />
        </mxCell>
        <mxCell id="lHYMxXaq1XfdecDBcLf--32" value="&lt;div&gt;&lt;br&gt;&lt;/div&gt;&lt;div&gt;&lt;br&gt;&lt;/div&gt;" style="fillColor=#EFF0F3;strokeColor=none;dashed=0;verticalAlign=top;fontStyle=0;fontColor=#232F3D;whiteSpace=wrap;html=1;" vertex="1" parent="1">
          <mxGeometry x="1180" y="425" width="260" height="405" as="geometry" />
        </mxCell>
        <mxCell id="lHYMxXaq1XfdecDBcLf--18" value="&lt;div&gt;&lt;br&gt;&lt;/div&gt;&lt;div&gt;&lt;br&gt;&lt;/div&gt;" style="fillColor=none;strokeColor=#5A6C86;dashed=1;verticalAlign=top;fontStyle=0;fontColor=#5A6C86;whiteSpace=wrap;html=1;" vertex="1" parent="1">
          <mxGeometry x="675" y="380" width="800" height="510" as="geometry" />
        </mxCell>
        <mxCell id="lHYMxXaq1XfdecDBcLf--3" value="Namespace" style="shape=image;verticalLabelPosition=bottom;verticalAlign=top;imageAspect=0;aspect=fixed;image=data:image/svg+xml,PHN2ZyB4bWxuczpkYz0iaHR0cDovL3B1cmwub3JnL2RjL2VsZW1lbnRzLzEuMS8iIHhtbG5zOmNjPSJodHRwOi8vY3JlYXRpdmVjb21tb25zLm9yZy9ucyMiIHhtbG5zOnJkZj0iaHR0cDovL3d3dy53My5vcmcvMTk5OS8wMi8yMi1yZGYtc3ludGF4LW5zIyIgeG1sbnM6c3ZnPSJodHRwOi8vd3d3LnczLm9yZy8yMDAwL3N2ZyIgeG1sbnM9Imh0dHA6Ly93d3cudzMub3JnLzIwMDAvc3ZnIiB4bWxuczpzb2RpcG9kaT0iaHR0cDovL3NvZGlwb2RpLnNvdXJjZWZvcmdlLm5ldC9EVEQvc29kaXBvZGktMC5kdGQiIHhtbG5zOmlua3NjYXBlPSJodHRwOi8vd3d3Lmlua3NjYXBlLm9yZy9uYW1lc3BhY2VzL2lua3NjYXBlIiB3aWR0aD0iMTguMDM1MzM0bW0iIGhlaWdodD0iMTcuNTAwMzc4bW0iIHZpZXdCb3g9IjAgMCAxOC4wMzUzMzQgMTcuNTAwMzc4IiB2ZXJzaW9uPSIxLjEiIGlkPSJzdmcxMzgyNiIgaW5rc2NhcGU6dmVyc2lvbj0iMC45MSByMTM3MjUiIHNvZGlwb2RpOmRvY25hbWU9Im5zLnN2ZyI+JiN4YTsgIDxkZWZzIGlkPSJkZWZzMTM4MjAiLz4mI3hhOyAgPHNvZGlwb2RpOm5hbWVkdmlldyBpZD0iYmFzZSIgcGFnZWNvbG9yPSIjZmZmZmZmIiBib3JkZXJjb2xvcj0iIzY2NjY2NiIgYm9yZGVyb3BhY2l0eT0iMS4wIiBpbmtzY2FwZTpwYWdlb3BhY2l0eT0iMC4wIiBpbmtzY2FwZTpwYWdlc2hhZG93PSIyIiBpbmtzY2FwZTp6b29tPSI4IiBpbmtzY2FwZTpjeD0iMTYuODQ3NDk2IiBpbmtzY2FwZTpjeT0iMjMuNzUyMjM5IiBpbmtzY2FwZTpkb2N1bWVudC11bml0cz0ibW0iIGlua3NjYXBlOmN1cnJlbnQtbGF5ZXI9ImxheWVyMSIgc2hvd2dyaWQ9ImZhbHNlIiBpbmtzY2FwZTp3aW5kb3ctd2lkdGg9IjE0NDAiIGlua3NjYXBlOndpbmRvdy1oZWlnaHQ9Ijc3NSIgaW5rc2NhcGU6d2luZG93LXg9IjAiIGlua3NjYXBlOndpbmRvdy15PSIxIiBpbmtzY2FwZTp3aW5kb3ctbWF4aW1pemVkPSIxIiBmaXQtbWFyZ2luLXRvcD0iMCIgZml0LW1hcmdpbi1sZWZ0PSIwIiBmaXQtbWFyZ2luLXJpZ2h0PSIwIiBmaXQtbWFyZ2luLWJvdHRvbT0iMCIvPiYjeGE7ICA8bWV0YWRhdGEgaWQ9Im1ldGFkYXRhMTM4MjMiPiYjeGE7ICAgIDxyZGY6UkRGPiYjeGE7ICAgICAgPGNjOldvcmsgcmRmOmFib3V0PSIiPiYjeGE7ICAgICAgICA8ZGM6Zm9ybWF0PmltYWdlL3N2Zyt4bWw8L2RjOmZvcm1hdD4mI3hhOyAgICAgICAgPGRjOnR5cGUgcmRmOnJlc291cmNlPSJodHRwOi8vcHVybC5vcmcvZGMvZGNtaXR5cGUvU3RpbGxJbWFnZSIvPiYjeGE7ICAgICAgICA8ZGM6dGl0bGUvPiYjeGE7ICAgICAgPC9jYzpXb3JrPiYjeGE7ICAgIDwvcmRmOlJERj4mI3hhOyAgPC9tZXRhZGF0YT4mI3hhOyAgPGcgaW5rc2NhcGU6bGFiZWw9IkNhbHF1ZSAxIiBpbmtzY2FwZTpncm91cG1vZGU9ImxheWVyIiBpZD0ibGF5ZXIxIiB0cmFuc2Zvcm09InRyYW5zbGF0ZSgtMC45OTI2MjYzOCwtMS4xNzQxODEpIj4mI3hhOyAgICA8ZyBpZD0iZzcwIiB0cmFuc2Zvcm09Im1hdHJpeCgxLjAxNDg4ODcsMCwwLDEuMDE0ODg4NywxNi45MDIxNDYsLTIuNjk4NzI2KSI+JiN4YTsgICAgICA8cGF0aCBpbmtzY2FwZTpleHBvcnQteWRwaT0iMjUwLjU1IiBpbmtzY2FwZTpleHBvcnQteGRwaT0iMjUwLjU1IiBpbmtzY2FwZTpleHBvcnQtZmlsZW5hbWU9Im5ldy5wbmciIGlua3NjYXBlOmNvbm5lY3Rvci1jdXJ2YXR1cmU9IjAiIGlkPSJwYXRoMzA1NSIgZD0ibSAtNi44NDkyMDE1LDQuMjcyNDY2OCBhIDEuMTE5MTI1NSwxLjEwOTk2NzEgMCAwIDAgLTAuNDI4ODgxOCwwLjEwODUzMDMgbCAtNS44NTI0MDM3LDIuNzk2MzM5NCBhIDEuMTE5MTI1NSwxLjEwOTk2NzEgMCAwIDAgLTAuNjA1NTI0LDAuNzUyOTc1OSBsIC0xLjQ0MzgyOCw2LjI4MTI4NDYgYSAxLjExOTEyNTUsMS4xMDk5NjcxIDAgMCAwIDAuMTUxOTQzLDAuODUxMDI4IDEuMTE5MTI1NSwxLjEwOTk2NzEgMCAwIDAgMC4wNjM2MiwwLjA4ODMyIGwgNC4wNTA4LDUuMDM2NTU1IGEgMS4xMTkxMjU1LDEuMTA5OTY3MSAwIDAgMCAwLjg3NDk3OSwwLjQxNzY1NCBsIDYuNDk2MTAxMSwtMC4wMDE1IGEgMS4xMTkxMjU1LDEuMTA5OTY3MSAwIDAgMCAwLjg3NDk3ODgsLTAuNDE2OTA2IEwgMS4zODE4ODcyLDE1LjE0OTQ1MyBBIDEuMTE5MTI1NSwxLjEwOTk2NzEgMCAwIDAgMS41OTgxOTg2LDE0LjIxMDEwNCBMIDAuMTUyMTI2NTcsNy45Mjg4MTU0IEEgMS4xMTkxMjU1LDEuMTA5OTY3MSAwIDAgMCAtMC40NTMzOTc5NCw3LjE3NTgzOTYgTCAtNi4zMDY1NDk2LDQuMzgwOTk3MSBBIDEuMTE5MTI1NSwxLjEwOTk2NzEgMCAwIDAgLTYuODQ5MjAxNSw0LjI3MjQ2NjggWiIgc3R5bGU9ImZpbGw6IzMyNmNlNTtmaWxsLW9wYWNpdHk6MTtzdHJva2U6bm9uZTtzdHJva2Utd2lkdGg6MDtzdHJva2UtbWl0ZXJsaW1pdDo0O3N0cm9rZS1kYXNoYXJyYXk6bm9uZTtzdHJva2Utb3BhY2l0eToxIi8+JiN4YTsgICAgICA8cGF0aCBpZD0icGF0aDMwNTQtMi05IiBkPSJNIC02Ljg1MjM0MzUsMy44MTc2MzcyIEEgMS4xODE0MzA0LDEuMTcxNzYyIDAgMCAwIC03LjMwNDQyODQsMy45MzI5MDQgbCAtNi4xNzg3NDI2LDIuOTUxMjc1OCBhIDEuMTgxNDMwNCwxLjE3MTc2MiAwIDAgMCAtMC42MzkyMDYsMC43OTQ4OTEgbCAtMS41MjM5MTUsNi42MzA4MjgyIGEgMS4xODE0MzA0LDEuMTcxNzYyIDAgMCAwIDAuMTYwMTc1LDAuODk4OTMgMS4xODE0MzA0LDEuMTcxNzYyIDAgMCAwIDAuMDY3MzYsMC4wOTI4MSBsIDQuMjc2MDk0LDUuMzE3MjM2IGEgMS4xODE0MzA0LDEuMTcxNzYyIDAgMCAwIDAuOTIzNjMsMC40NDA4NTggbCA2Ljg1NzYxODgsLTAuMDAxNSBhIDEuMTgxNDMwNCwxLjE3MTc2MiAwIDAgMCAwLjkyMzYzMDgsLTAuNDQwMTEgbCA0LjI3NDU5NjYsLTUuMzE3OTg1IGEgMS4xODE0MzA0LDEuMTcxNzYyIDAgMCAwIDAuMjI4Mjg4LC0wLjk5MDk5MyBMIDAuNTM4OTQ0MzksNy42Nzc1NzM4IEEgMS4xODE0MzA0LDEuMTcxNzYyIDAgMCAwIC0wLjEwMDI2MTAxLDYuODgzNDMxMyBMIC02LjI3OTAwMzcsMy45MzIxNTU1IEEgMS4xODE0MzA0LDEuMTcxNzYyIDAgMCAwIC02Ljg1MjM0MzUsMy44MTc2MzcyIFogbSAwLjAwMjk5LDAuNDU1MDc4OSBhIDEuMTE5MTI1NSwxLjEwOTk2NzEgMCAwIDEgMC41NDI2NTE3LDAuMTA4NTMwMyBsIDUuODUzMTUxNjksMi43OTQ4NDI1IEEgMS4xMTkxMjU1LDEuMTA5OTY3MSAwIDAgMSAwLjE1MTk3ODExLDcuOTI5MDY0OCBMIDEuNTk4MDUxLDE0LjIxMDM1IGEgMS4xMTkxMjU1LDEuMTA5OTY3MSAwIDAgMSAtMC4yMTYzMTIzLDAuOTM5MzQ4IGwgLTQuMDQ5MzAzMiw1LjAzNzMwNCBhIDEuMTE5MTI1NSwxLjEwOTk2NzEgMCAwIDEgLTAuODc0OTc4OSwwLjQxNjkwNiBsIC02LjQ5NjEwMDYsMC4wMDE1IGEgMS4xMTkxMjU1LDEuMTA5OTY3MSAwIDAgMSAtMC44NzQ5NzksLTAuNDE3NjUyIGwgLTQuMDUwOCwtNS4wMzY1NTQgYSAxLjExOTEyNTUsMS4xMDk5NjcxIDAgMCAxIC0wLjA2MzYyLC0wLjA4ODMyIDEuMTE5MTI1NSwxLjEwOTk2NzEgMCAwIDEgLTAuMTUxOTQyLC0wLjg1MTAyOCBsIDEuNDQzODI3LC02LjI4MTI4NTMgYSAxLjExOTEyNTUsMS4xMDk5NjcxIDAgMCAxIDAuNjA1NTI0LC0wLjc1Mjk3NTggbCA1Ljg1MjQwMzYsLTIuNzk2MzM5NSBhIDEuMTE5MTI1NSwxLjEwOTk2NzEgMCAwIDEgMC40Mjg4ODE5LC0wLjEwODUzMDMgeiIgc3R5bGU9ImNvbG9yOiMwMDAwMDA7Zm9udC1zdHlsZTpub3JtYWw7Zm9udC12YXJpYW50Om5vcm1hbDtmb250LXdlaWdodDpub3JtYWw7Zm9udC1zdHJldGNoOm5vcm1hbDtmb250LXNpemU6bWVkaXVtO2xpbmUtaGVpZ2h0Om5vcm1hbDtmb250LWZhbWlseTpTYW5zOy1pbmtzY2FwZS1mb250LXNwZWNpZmljYXRpb246U2Fuczt0ZXh0LWluZGVudDowO3RleHQtYWxpZ246c3RhcnQ7dGV4dC1kZWNvcmF0aW9uOm5vbmU7dGV4dC1kZWNvcmF0aW9uLWxpbmU6bm9uZTtsZXR0ZXItc3BhY2luZzpub3JtYWw7d29yZC1zcGFjaW5nOm5vcm1hbDt0ZXh0LXRyYW5zZm9ybTpub25lO3dyaXRpbmctbW9kZTpsci10YjtkaXJlY3Rpb246bHRyO2Jhc2VsaW5lLXNoaWZ0OmJhc2VsaW5lO3RleHQtYW5jaG9yOnN0YXJ0O2Rpc3BsYXk6aW5saW5lO292ZXJmbG93OnZpc2libGU7dmlzaWJpbGl0eTp2aXNpYmxlO2ZpbGw6I2ZmZmZmZjtmaWxsLW9wYWNpdHk6MTtmaWxsLXJ1bGU6bm9uemVybztzdHJva2U6bm9uZTtzdHJva2Utd2lkdGg6MDtzdHJva2UtbWl0ZXJsaW1pdDo0O3N0cm9rZS1kYXNoYXJyYXk6bm9uZTttYXJrZXI6bm9uZTtlbmFibGUtYmFja2dyb3VuZDphY2N1bXVsYXRlIiBpbmtzY2FwZTpjb25uZWN0b3ItY3VydmF0dXJlPSIwIi8+JiN4YTsgICAgPC9nPiYjeGE7ICAgIDx0ZXh0IGlkPSJ0ZXh0MjA2NiIgeT0iMTYuODExNzc1IiB4PSI5Ljk3MTcwODMiIHN0eWxlPSJmb250LXN0eWxlOm5vcm1hbDtmb250LXdlaWdodDpub3JtYWw7Zm9udC1zaXplOjEwLjU4MzMzMzAycHg7bGluZS1oZWlnaHQ6Ni42MTQ1ODM0OXB4O2ZvbnQtZmFtaWx5OlNhbnM7bGV0dGVyLXNwYWNpbmc6MHB4O3dvcmQtc3BhY2luZzowcHg7ZmlsbDojZmZmZmZmO2ZpbGwtb3BhY2l0eToxO3N0cm9rZTpub25lO3N0cm9rZS13aWR0aDowLjI2NDU4MzMycHg7c3Ryb2tlLWxpbmVjYXA6YnV0dDtzdHJva2UtbGluZWpvaW46bWl0ZXI7c3Ryb2tlLW9wYWNpdHk6MSIgeG1sOnNwYWNlPSJwcmVzZXJ2ZSI+PHRzcGFuIHN0eWxlPSJmb250LXN0eWxlOm5vcm1hbDtmb250LXZhcmlhbnQ6bm9ybWFsO2ZvbnQtd2VpZ2h0Om5vcm1hbDtmb250LXN0cmV0Y2g6bm9ybWFsO2ZvbnQtc2l6ZToyLjgyMjIyMjIzcHg7Zm9udC1mYW1pbHk6QXJpYWw7LWlua3NjYXBlLWZvbnQtc3BlY2lmaWNhdGlvbjonQXJpYWwsIE5vcm1hbCc7dGV4dC1hbGlnbjpjZW50ZXI7d3JpdGluZy1tb2RlOmxyLXRiO3RleHQtYW5jaG9yOm1pZGRsZTtmaWxsOiNmZmZmZmY7ZmlsbC1vcGFjaXR5OjE7c3Ryb2tlLXdpZHRoOjAuMjY0NTgzMzJweCIgeT0iMTYuODExNzc1IiB4PSI5Ljk3MTcwODMiIGlkPSJ0c3BhbjIwNjQiIHNvZGlwb2RpOnJvbGU9ImxpbmUiPm5zPC90c3Bhbj48L3RleHQ+JiN4YTsgICAgPHJlY3QgeT0iNi4zNjg5NjI4IiB4PSI2LjE3MzQ5ODYiIGhlaWdodD0iNi42OTAwNzkyIiB3aWR0aD0iNy42NzM1ODkyIiBpZD0icmVjdDg3OTAiIHN0eWxlPSJvcGFjaXR5OjE7ZmlsbDpub25lO2ZpbGwtb3BhY2l0eToxO2ZpbGwtcnVsZTpub256ZXJvO3N0cm9rZTojZmZmZmZmO3N0cm9rZS13aWR0aDowLjQwMDAwMDAxO3N0cm9rZS1saW5lY2FwOmJ1dHQ7c3Ryb2tlLWxpbmVqb2luOnJvdW5kO3N0cm9rZS1taXRlcmxpbWl0OjEwO3N0cm9rZS1kYXNoYXJyYXk6MC44MDAwMDAwMSwgMC40O3N0cm9rZS1kYXNob2Zmc2V0OjMuNDQwMDAwMDY7c3Ryb2tlLW9wYWNpdHk6MSIvPiYjeGE7ICA8L2c+JiN4YTs8L3N2Zz4=;fontSize=16;" vertex="1" parent="1">
          <mxGeometry x="730" y="340" width="80" height="80" as="geometry" />
        </mxCell>
        <mxCell id="lHYMxXaq1XfdecDBcLf--4" value="Ingress" style="shape=image;verticalLabelPosition=bottom;verticalAlign=top;imageAspect=0;aspect=fixed;image=data:image/svg+xml,PHN2ZyB4bWxuczpkYz0iaHR0cDovL3B1cmwub3JnL2RjL2VsZW1lbnRzLzEuMS8iIHhtbG5zOmNjPSJodHRwOi8vY3JlYXRpdmVjb21tb25zLm9yZy9ucyMiIHhtbG5zOnJkZj0iaHR0cDovL3d3dy53My5vcmcvMTk5OS8wMi8yMi1yZGYtc3ludGF4LW5zIyIgeG1sbnM6c3ZnPSJodHRwOi8vd3d3LnczLm9yZy8yMDAwL3N2ZyIgeG1sbnM9Imh0dHA6Ly93d3cudzMub3JnLzIwMDAvc3ZnIiB4bWxuczpzb2RpcG9kaT0iaHR0cDovL3NvZGlwb2RpLnNvdXJjZWZvcmdlLm5ldC9EVEQvc29kaXBvZGktMC5kdGQiIHhtbG5zOmlua3NjYXBlPSJodHRwOi8vd3d3Lmlua3NjYXBlLm9yZy9uYW1lc3BhY2VzL2lua3NjYXBlIiB3aWR0aD0iMTguMDM1MzM0bW0iIGhlaWdodD0iMTcuNTAwMzc4bW0iIHZpZXdCb3g9IjAgMCAxOC4wMzUzMzQgMTcuNTAwMzc4IiB2ZXJzaW9uPSIxLjEiIGlkPSJzdmcxMzgyNiIgaW5rc2NhcGU6dmVyc2lvbj0iMC45MSByMTM3MjUiIHNvZGlwb2RpOmRvY25hbWU9ImluZy5zdmciPiYjeGE7ICA8ZGVmcyBpZD0iZGVmczEzODIwIi8+JiN4YTsgIDxzb2RpcG9kaTpuYW1lZHZpZXcgaWQ9ImJhc2UiIHBhZ2Vjb2xvcj0iI2ZmZmZmZiIgYm9yZGVyY29sb3I9IiM2NjY2NjYiIGJvcmRlcm9wYWNpdHk9IjEuMCIgaW5rc2NhcGU6cGFnZW9wYWNpdHk9IjAuMCIgaW5rc2NhcGU6cGFnZXNoYWRvdz0iMiIgaW5rc2NhcGU6em9vbT0iOCIgaW5rc2NhcGU6Y3g9IjE2Ljg0NzQ5NiIgaW5rc2NhcGU6Y3k9IjI4Ljc1MjIzOSIgaW5rc2NhcGU6ZG9jdW1lbnQtdW5pdHM9Im1tIiBpbmtzY2FwZTpjdXJyZW50LWxheWVyPSJsYXllcjEiIHNob3dncmlkPSJmYWxzZSIgaW5rc2NhcGU6d2luZG93LXdpZHRoPSIxNDQwIiBpbmtzY2FwZTp3aW5kb3ctaGVpZ2h0PSI3NzUiIGlua3NjYXBlOndpbmRvdy14PSIwIiBpbmtzY2FwZTp3aW5kb3cteT0iMSIgaW5rc2NhcGU6d2luZG93LW1heGltaXplZD0iMSIgZml0LW1hcmdpbi10b3A9IjAiIGZpdC1tYXJnaW4tbGVmdD0iMCIgZml0LW1hcmdpbi1yaWdodD0iMCIgZml0LW1hcmdpbi1ib3R0b209IjAiLz4mI3hhOyAgPG1ldGFkYXRhIGlkPSJtZXRhZGF0YTEzODIzIj4mI3hhOyAgICA8cmRmOlJERj4mI3hhOyAgICAgIDxjYzpXb3JrIHJkZjphYm91dD0iIj4mI3hhOyAgICAgICAgPGRjOmZvcm1hdD5pbWFnZS9zdmcreG1sPC9kYzpmb3JtYXQ+JiN4YTsgICAgICAgIDxkYzp0eXBlIHJkZjpyZXNvdXJjZT0iaHR0cDovL3B1cmwub3JnL2RjL2RjbWl0eXBlL1N0aWxsSW1hZ2UiLz4mI3hhOyAgICAgICAgPGRjOnRpdGxlLz4mI3hhOyAgICAgIDwvY2M6V29yaz4mI3hhOyAgICA8L3JkZjpSREY+JiN4YTsgIDwvbWV0YWRhdGE+JiN4YTsgIDxnIGlua3NjYXBlOmxhYmVsPSJDYWxxdWUgMSIgaW5rc2NhcGU6Z3JvdXBtb2RlPSJsYXllciIgaWQ9ImxheWVyMSIgdHJhbnNmb3JtPSJ0cmFuc2xhdGUoLTAuOTkyNjI2MzgsLTEuMTc0MTgxKSI+JiN4YTsgICAgPGcgaWQ9Imc3MCIgdHJhbnNmb3JtPSJtYXRyaXgoMS4wMTQ4ODg3LDAsMCwxLjAxNDg4ODcsMTYuOTAyMTQ2LC0yLjY5ODcyNikiPiYjeGE7ICAgICAgPHBhdGggaW5rc2NhcGU6ZXhwb3J0LXlkcGk9IjI1MC41NSIgaW5rc2NhcGU6ZXhwb3J0LXhkcGk9IjI1MC41NSIgaW5rc2NhcGU6ZXhwb3J0LWZpbGVuYW1lPSJuZXcucG5nIiBpbmtzY2FwZTpjb25uZWN0b3ItY3VydmF0dXJlPSIwIiBpZD0icGF0aDMwNTUiIGQ9Im0gLTYuODQ5MjAxNSw0LjI3MjQ2NjggYSAxLjExOTEyNTUsMS4xMDk5NjcxIDAgMCAwIC0wLjQyODg4MTgsMC4xMDg1MzAzIGwgLTUuODUyNDAzNywyLjc5NjMzOTQgYSAxLjExOTEyNTUsMS4xMDk5NjcxIDAgMCAwIC0wLjYwNTUyNCwwLjc1Mjk3NTkgbCAtMS40NDM4MjgsNi4yODEyODQ2IGEgMS4xMTkxMjU1LDEuMTA5OTY3MSAwIDAgMCAwLjE1MTk0MywwLjg1MTAyOCAxLjExOTEyNTUsMS4xMDk5NjcxIDAgMCAwIDAuMDYzNjIsMC4wODgzMiBsIDQuMDUwOCw1LjAzNjU1NSBhIDEuMTE5MTI1NSwxLjEwOTk2NzEgMCAwIDAgMC44NzQ5NzksMC40MTc2NTQgbCA2LjQ5NjEwMTEsLTAuMDAxNSBhIDEuMTE5MTI1NSwxLjEwOTk2NzEgMCAwIDAgMC44NzQ5Nzg4LC0wLjQxNjkwNiBMIDEuMzgxODg3MiwxNS4xNDk0NTMgQSAxLjExOTEyNTUsMS4xMDk5NjcxIDAgMCAwIDEuNTk4MTk4NiwxNC4yMTAxMDQgTCAwLjE1MjEyNjU3LDcuOTI4ODE1NCBBIDEuMTE5MTI1NSwxLjEwOTk2NzEgMCAwIDAgLTAuNDUzMzk3OTQsNy4xNzU4Mzk2IEwgLTYuMzA2NTQ5Niw0LjM4MDk5NzEgQSAxLjExOTEyNTUsMS4xMDk5NjcxIDAgMCAwIC02Ljg0OTIwMTUsNC4yNzI0NjY4IFoiIHN0eWxlPSJmaWxsOiMzMjZjZTU7ZmlsbC1vcGFjaXR5OjE7c3Ryb2tlOm5vbmU7c3Ryb2tlLXdpZHRoOjA7c3Ryb2tlLW1pdGVybGltaXQ6NDtzdHJva2UtZGFzaGFycmF5Om5vbmU7c3Ryb2tlLW9wYWNpdHk6MSIvPiYjeGE7ICAgICAgPHBhdGggaWQ9InBhdGgzMDU0LTItOSIgZD0iTSAtNi44NTIzNDM1LDMuODE3NjM3MiBBIDEuMTgxNDMwNCwxLjE3MTc2MiAwIDAgMCAtNy4zMDQ0Mjg0LDMuOTMyOTA0IGwgLTYuMTc4NzQyNiwyLjk1MTI3NTggYSAxLjE4MTQzMDQsMS4xNzE3NjIgMCAwIDAgLTAuNjM5MjA2LDAuNzk0ODkxIGwgLTEuNTIzOTE1LDYuNjMwODI4MiBhIDEuMTgxNDMwNCwxLjE3MTc2MiAwIDAgMCAwLjE2MDE3NSwwLjg5ODkzIDEuMTgxNDMwNCwxLjE3MTc2MiAwIDAgMCAwLjA2NzM2LDAuMDkyODEgbCA0LjI3NjA5NCw1LjMxNzIzNiBhIDEuMTgxNDMwNCwxLjE3MTc2MiAwIDAgMCAwLjkyMzYzLDAuNDQwODU4IGwgNi44NTc2MTg4LC0wLjAwMTUgYSAxLjE4MTQzMDQsMS4xNzE3NjIgMCAwIDAgMC45MjM2MzA4LC0wLjQ0MDExIGwgNC4yNzQ1OTY2LC01LjMxNzk4NSBhIDEuMTgxNDMwNCwxLjE3MTc2MiAwIDAgMCAwLjIyODI4OCwtMC45OTA5OTMgTCAwLjUzODk0NDM5LDcuNjc3NTczOCBBIDEuMTgxNDMwNCwxLjE3MTc2MiAwIDAgMCAtMC4xMDAyNjEwMSw2Ljg4MzQzMTMgTCAtNi4yNzkwMDM3LDMuOTMyMTU1NSBBIDEuMTgxNDMwNCwxLjE3MTc2MiAwIDAgMCAtNi44NTIzNDM1LDMuODE3NjM3MiBaIG0gMC4wMDI5OSwwLjQ1NTA3ODkgYSAxLjExOTEyNTUsMS4xMDk5NjcxIDAgMCAxIDAuNTQyNjUxNywwLjEwODUzMDMgbCA1Ljg1MzE1MTY5LDIuNzk0ODQyNSBBIDEuMTE5MTI1NSwxLjEwOTk2NzEgMCAwIDEgMC4xNTE5NzgxMSw3LjkyOTA2NDggTCAxLjU5ODA1MSwxNC4yMTAzNSBhIDEuMTE5MTI1NSwxLjEwOTk2NzEgMCAwIDEgLTAuMjE2MzEyMywwLjkzOTM0OCBsIC00LjA0OTMwMzIsNS4wMzczMDQgYSAxLjExOTEyNTUsMS4xMDk5NjcxIDAgMCAxIC0wLjg3NDk3ODksMC40MTY5MDYgbCAtNi40OTYxMDA2LDAuMDAxNSBhIDEuMTE5MTI1NSwxLjEwOTk2NzEgMCAwIDEgLTAuODc0OTc5LC0wLjQxNzY1MiBsIC00LjA1MDgsLTUuMDM2NTU0IGEgMS4xMTkxMjU1LDEuMTA5OTY3MSAwIDAgMSAtMC4wNjM2MiwtMC4wODgzMiAxLjExOTEyNTUsMS4xMDk5NjcxIDAgMCAxIC0wLjE1MTk0MiwtMC44NTEwMjggbCAxLjQ0MzgyNywtNi4yODEyODUzIGEgMS4xMTkxMjU1LDEuMTA5OTY3MSAwIDAgMSAwLjYwNTUyNCwtMC43NTI5NzU4IGwgNS44NTI0MDM2LC0yLjc5NjMzOTUgYSAxLjExOTEyNTUsMS4xMDk5NjcxIDAgMCAxIDAuNDI4ODgxOSwtMC4xMDg1MzAzIHoiIHN0eWxlPSJjb2xvcjojMDAwMDAwO2ZvbnQtc3R5bGU6bm9ybWFsO2ZvbnQtdmFyaWFudDpub3JtYWw7Zm9udC13ZWlnaHQ6bm9ybWFsO2ZvbnQtc3RyZXRjaDpub3JtYWw7Zm9udC1zaXplOm1lZGl1bTtsaW5lLWhlaWdodDpub3JtYWw7Zm9udC1mYW1pbHk6U2FuczstaW5rc2NhcGUtZm9udC1zcGVjaWZpY2F0aW9uOlNhbnM7dGV4dC1pbmRlbnQ6MDt0ZXh0LWFsaWduOnN0YXJ0O3RleHQtZGVjb3JhdGlvbjpub25lO3RleHQtZGVjb3JhdGlvbi1saW5lOm5vbmU7bGV0dGVyLXNwYWNpbmc6bm9ybWFsO3dvcmQtc3BhY2luZzpub3JtYWw7dGV4dC10cmFuc2Zvcm06bm9uZTt3cml0aW5nLW1vZGU6bHItdGI7ZGlyZWN0aW9uOmx0cjtiYXNlbGluZS1zaGlmdDpiYXNlbGluZTt0ZXh0LWFuY2hvcjpzdGFydDtkaXNwbGF5OmlubGluZTtvdmVyZmxvdzp2aXNpYmxlO3Zpc2liaWxpdHk6dmlzaWJsZTtmaWxsOiNmZmZmZmY7ZmlsbC1vcGFjaXR5OjE7ZmlsbC1ydWxlOm5vbnplcm87c3Ryb2tlOm5vbmU7c3Ryb2tlLXdpZHRoOjA7c3Ryb2tlLW1pdGVybGltaXQ6NDtzdHJva2UtZGFzaGFycmF5Om5vbmU7bWFya2VyOm5vbmU7ZW5hYmxlLWJhY2tncm91bmQ6YWNjdW11bGF0ZSIgaW5rc2NhcGU6Y29ubmVjdG9yLWN1cnZhdHVyZT0iMCIvPiYjeGE7ICAgIDwvZz4mI3hhOyAgICA8dGV4dCBpZD0idGV4dDIwNjYiIHk9IjE2LjgxMTc3NSIgeD0iMTAuMDA4OTE1IiBzdHlsZT0iZm9udC1zdHlsZTpub3JtYWw7Zm9udC13ZWlnaHQ6bm9ybWFsO2ZvbnQtc2l6ZToxMC41ODMzMzMwMnB4O2xpbmUtaGVpZ2h0OjYuNjE0NTgzNDlweDtmb250LWZhbWlseTpTYW5zO2xldHRlci1zcGFjaW5nOjBweDt3b3JkLXNwYWNpbmc6MHB4O2ZpbGw6I2ZmZmZmZjtmaWxsLW9wYWNpdHk6MTtzdHJva2U6bm9uZTtzdHJva2Utd2lkdGg6MC4yNjQ1ODMzMnB4O3N0cm9rZS1saW5lY2FwOmJ1dHQ7c3Ryb2tlLWxpbmVqb2luOm1pdGVyO3N0cm9rZS1vcGFjaXR5OjEiIHhtbDpzcGFjZT0icHJlc2VydmUiPjx0c3BhbiBzdHlsZT0iZm9udC1zdHlsZTpub3JtYWw7Zm9udC12YXJpYW50Om5vcm1hbDtmb250LXdlaWdodDpub3JtYWw7Zm9udC1zdHJldGNoOm5vcm1hbDtmb250LXNpemU6Mi44MjIyMjIyM3B4O2ZvbnQtZmFtaWx5OkFyaWFsOy1pbmtzY2FwZS1mb250LXNwZWNpZmljYXRpb246J0FyaWFsLCBOb3JtYWwnO3RleHQtYWxpZ246Y2VudGVyO3dyaXRpbmctbW9kZTpsci10Yjt0ZXh0LWFuY2hvcjptaWRkbGU7ZmlsbDojZmZmZmZmO2ZpbGwtb3BhY2l0eToxO3N0cm9rZS13aWR0aDowLjI2NDU4MzMycHgiIHk9IjE2LjgxMTc3NSIgeD0iMTAuMDA4OTE1IiBpZD0idHNwYW4yMDY0IiBzb2RpcG9kaTpyb2xlPSJsaW5lIj5pbmc8L3RzcGFuPjwvdGV4dD4mI3hhOyAgICA8cGF0aCBpZD0icGF0aDc3MDkiIHBvaW50ZXItZXZlbnRzPSJub25lIiBkPSJtIDEyLjc1Nzk5LDEzLjcxNjI1NiAtMi4yNzA3MDEsMCAtNC45MjA5MDA5LC02LjE1NTg2MTQgLTEuNDIzNjYsMCAwLC0yLjAxNDkwNjkgMi4zMTQ3MywwIDQuOTIzMDExOSw2LjE1NTg1MzMgMS4zNzc1MiwwIDAsLTEuNTkzNDc0IDMuMTE5ODY5LDIuNTk5ODgyIC0zLjExOTg2OSwyLjYwMTk4MyB6IG0gLTIuNDc2MTYsLTQuNzU1Mjc0OCAxLjA5ODY0LC0xLjM3NTQyNTYgMS4zNzc1MiwwIDAsMS41OTM0NzUgMy4xMTk4NjksLTIuNTk5ODgyOSAtMy4xMTk4NjksLTIuNjAxOTgzIDAsMS41OTM0ODMgLTIuMjcwNzAxLDAgLTEuNDU3MTkwNCwxLjgyNDExMDIgeiBtIC0zLjU5NzkyMTksMS4zNjQ5NDI4IC0xLjExNzUyLDEuNDAwNTc4IC0xLjQyMzY2LDAgMCwyLjAxNDkxNSAyLjMxNDczLDAgMS40NzgxNjk5LC0xLjg0OTI3OCB6IiBpbmtzY2FwZTpjb25uZWN0b3ItY3VydmF0dXJlPSIwIiBzdHlsZT0iZmlsbDojZmZmZmZmO2ZpbGwtb3BhY2l0eToxO3N0cm9rZTpub25lO3N0cm9rZS13aWR0aDowLjIwOTY2ODE3Ii8+JiN4YTsgIDwvZz4mI3hhOzwvc3ZnPg==;fontSize=15;" vertex="1" parent="1">
          <mxGeometry x="870" y="580" width="80" height="80" as="geometry" />
        </mxCell>
        <mxCell id="lHYMxXaq1XfdecDBcLf--5" value="Service" style="shape=image;verticalLabelPosition=bottom;verticalAlign=top;imageAspect=0;aspect=fixed;image=data:image/svg+xml,PHN2ZyB4bWxuczpkYz0iaHR0cDovL3B1cmwub3JnL2RjL2VsZW1lbnRzLzEuMS8iIHhtbG5zOmNjPSJodHRwOi8vY3JlYXRpdmVjb21tb25zLm9yZy9ucyMiIHhtbG5zOnJkZj0iaHR0cDovL3d3dy53My5vcmcvMTk5OS8wMi8yMi1yZGYtc3ludGF4LW5zIyIgeG1sbnM6c3ZnPSJodHRwOi8vd3d3LnczLm9yZy8yMDAwL3N2ZyIgeG1sbnM9Imh0dHA6Ly93d3cudzMub3JnLzIwMDAvc3ZnIiB4bWxuczpzb2RpcG9kaT0iaHR0cDovL3NvZGlwb2RpLnNvdXJjZWZvcmdlLm5ldC9EVEQvc29kaXBvZGktMC5kdGQiIHhtbG5zOmlua3NjYXBlPSJodHRwOi8vd3d3Lmlua3NjYXBlLm9yZy9uYW1lc3BhY2VzL2lua3NjYXBlIiB3aWR0aD0iMTguMDM1MzM0bW0iIGhlaWdodD0iMTcuNTAwMzc4bW0iIHZpZXdCb3g9IjAgMCAxOC4wMzUzMzQgMTcuNTAwMzc4IiB2ZXJzaW9uPSIxLjEiIGlkPSJzdmcxMzgyNiIgaW5rc2NhcGU6dmVyc2lvbj0iMC45MSByMTM3MjUiIHNvZGlwb2RpOmRvY25hbWU9InN2Yy5zdmciPiYjeGE7ICA8ZGVmcyBpZD0iZGVmczEzODIwIi8+JiN4YTsgIDxzb2RpcG9kaTpuYW1lZHZpZXcgaWQ9ImJhc2UiIHBhZ2Vjb2xvcj0iI2ZmZmZmZiIgYm9yZGVyY29sb3I9IiM2NjY2NjYiIGJvcmRlcm9wYWNpdHk9IjEuMCIgaW5rc2NhcGU6cGFnZW9wYWNpdHk9IjAuMCIgaW5rc2NhcGU6cGFnZXNoYWRvdz0iMiIgaW5rc2NhcGU6em9vbT0iOCIgaW5rc2NhcGU6Y3g9IjE2Ljg0NzQ5NiIgaW5rc2NhcGU6Y3k9IjI4Ljc1MjIzOSIgaW5rc2NhcGU6ZG9jdW1lbnQtdW5pdHM9Im1tIiBpbmtzY2FwZTpjdXJyZW50LWxheWVyPSJsYXllcjEiIHNob3dncmlkPSJmYWxzZSIgaW5rc2NhcGU6d2luZG93LXdpZHRoPSIxNDQwIiBpbmtzY2FwZTp3aW5kb3ctaGVpZ2h0PSI3NzUiIGlua3NjYXBlOndpbmRvdy14PSIwIiBpbmtzY2FwZTp3aW5kb3cteT0iMSIgaW5rc2NhcGU6d2luZG93LW1heGltaXplZD0iMSIgZml0LW1hcmdpbi10b3A9IjAiIGZpdC1tYXJnaW4tbGVmdD0iMCIgZml0LW1hcmdpbi1yaWdodD0iMCIgZml0LW1hcmdpbi1ib3R0b209IjAiLz4mI3hhOyAgPG1ldGFkYXRhIGlkPSJtZXRhZGF0YTEzODIzIj4mI3hhOyAgICA8cmRmOlJERj4mI3hhOyAgICAgIDxjYzpXb3JrIHJkZjphYm91dD0iIj4mI3hhOyAgICAgICAgPGRjOmZvcm1hdD5pbWFnZS9zdmcreG1sPC9kYzpmb3JtYXQ+JiN4YTsgICAgICAgIDxkYzp0eXBlIHJkZjpyZXNvdXJjZT0iaHR0cDovL3B1cmwub3JnL2RjL2RjbWl0eXBlL1N0aWxsSW1hZ2UiLz4mI3hhOyAgICAgICAgPGRjOnRpdGxlLz4mI3hhOyAgICAgIDwvY2M6V29yaz4mI3hhOyAgICA8L3JkZjpSREY+JiN4YTsgIDwvbWV0YWRhdGE+JiN4YTsgIDxnIGlua3NjYXBlOmxhYmVsPSJDYWxxdWUgMSIgaW5rc2NhcGU6Z3JvdXBtb2RlPSJsYXllciIgaWQ9ImxheWVyMSIgdHJhbnNmb3JtPSJ0cmFuc2xhdGUoLTAuOTkyNjI2MzgsLTEuMTc0MTgxKSI+JiN4YTsgICAgPGcgaWQ9Imc3MCIgdHJhbnNmb3JtPSJtYXRyaXgoMS4wMTQ4ODg3LDAsMCwxLjAxNDg4ODcsMTYuOTAyMTQ2LC0yLjY5ODcyNikiPiYjeGE7ICAgICAgPHBhdGggaW5rc2NhcGU6ZXhwb3J0LXlkcGk9IjI1MC41NSIgaW5rc2NhcGU6ZXhwb3J0LXhkcGk9IjI1MC41NSIgaW5rc2NhcGU6ZXhwb3J0LWZpbGVuYW1lPSJuZXcucG5nIiBpbmtzY2FwZTpjb25uZWN0b3ItY3VydmF0dXJlPSIwIiBpZD0icGF0aDMwNTUiIGQ9Im0gLTYuODQ5MjAxNSw0LjI3MjQ2NjggYSAxLjExOTEyNTUsMS4xMDk5NjcxIDAgMCAwIC0wLjQyODg4MTgsMC4xMDg1MzAzIGwgLTUuODUyNDAzNywyLjc5NjMzOTQgYSAxLjExOTEyNTUsMS4xMDk5NjcxIDAgMCAwIC0wLjYwNTUyNCwwLjc1Mjk3NTkgbCAtMS40NDM4MjgsNi4yODEyODQ2IGEgMS4xMTkxMjU1LDEuMTA5OTY3MSAwIDAgMCAwLjE1MTk0MywwLjg1MTAyOCAxLjExOTEyNTUsMS4xMDk5NjcxIDAgMCAwIDAuMDYzNjIsMC4wODgzMiBsIDQuMDUwOCw1LjAzNjU1NSBhIDEuMTE5MTI1NSwxLjEwOTk2NzEgMCAwIDAgMC44NzQ5NzksMC40MTc2NTQgbCA2LjQ5NjEwMTEsLTAuMDAxNSBhIDEuMTE5MTI1NSwxLjEwOTk2NzEgMCAwIDAgMC44NzQ5Nzg4LC0wLjQxNjkwNiBMIDEuMzgxODg3MiwxNS4xNDk0NTMgQSAxLjExOTEyNTUsMS4xMDk5NjcxIDAgMCAwIDEuNTk4MTk4NiwxNC4yMTAxMDQgTCAwLjE1MjEyNjU3LDcuOTI4ODE1NCBBIDEuMTE5MTI1NSwxLjEwOTk2NzEgMCAwIDAgLTAuNDUzMzk3OTQsNy4xNzU4Mzk2IEwgLTYuMzA2NTQ5Niw0LjM4MDk5NzEgQSAxLjExOTEyNTUsMS4xMDk5NjcxIDAgMCAwIC02Ljg0OTIwMTUsNC4yNzI0NjY4IFoiIHN0eWxlPSJmaWxsOiMzMjZjZTU7ZmlsbC1vcGFjaXR5OjE7c3Ryb2tlOm5vbmU7c3Ryb2tlLXdpZHRoOjA7c3Ryb2tlLW1pdGVybGltaXQ6NDtzdHJva2UtZGFzaGFycmF5Om5vbmU7c3Ryb2tlLW9wYWNpdHk6MSIvPiYjeGE7ICAgICAgPHBhdGggaWQ9InBhdGgzMDU0LTItOSIgZD0iTSAtNi44NTIzNDM1LDMuODE3NjM3MiBBIDEuMTgxNDMwNCwxLjE3MTc2MiAwIDAgMCAtNy4zMDQ0Mjg0LDMuOTMyOTA0IGwgLTYuMTc4NzQyNiwyLjk1MTI3NTggYSAxLjE4MTQzMDQsMS4xNzE3NjIgMCAwIDAgLTAuNjM5MjA2LDAuNzk0ODkxIGwgLTEuNTIzOTE1LDYuNjMwODI4MiBhIDEuMTgxNDMwNCwxLjE3MTc2MiAwIDAgMCAwLjE2MDE3NSwwLjg5ODkzIDEuMTgxNDMwNCwxLjE3MTc2MiAwIDAgMCAwLjA2NzM2LDAuMDkyODEgbCA0LjI3NjA5NCw1LjMxNzIzNiBhIDEuMTgxNDMwNCwxLjE3MTc2MiAwIDAgMCAwLjkyMzYzLDAuNDQwODU4IGwgNi44NTc2MTg4LC0wLjAwMTUgYSAxLjE4MTQzMDQsMS4xNzE3NjIgMCAwIDAgMC45MjM2MzA4LC0wLjQ0MDExIGwgNC4yNzQ1OTY2LC01LjMxNzk4NSBhIDEuMTgxNDMwNCwxLjE3MTc2MiAwIDAgMCAwLjIyODI4OCwtMC45OTA5OTMgTCAwLjUzODk0NDM5LDcuNjc3NTczOCBBIDEuMTgxNDMwNCwxLjE3MTc2MiAwIDAgMCAtMC4xMDAyNjEwMSw2Ljg4MzQzMTMgTCAtNi4yNzkwMDM3LDMuOTMyMTU1NSBBIDEuMTgxNDMwNCwxLjE3MTc2MiAwIDAgMCAtNi44NTIzNDM1LDMuODE3NjM3MiBaIG0gMC4wMDI5OSwwLjQ1NTA3ODkgYSAxLjExOTEyNTUsMS4xMDk5NjcxIDAgMCAxIDAuNTQyNjUxNywwLjEwODUzMDMgbCA1Ljg1MzE1MTY5LDIuNzk0ODQyNSBBIDEuMTE5MTI1NSwxLjEwOTk2NzEgMCAwIDEgMC4xNTE5NzgxMSw3LjkyOTA2NDggTCAxLjU5ODA1MSwxNC4yMTAzNSBhIDEuMTE5MTI1NSwxLjEwOTk2NzEgMCAwIDEgLTAuMjE2MzEyMywwLjkzOTM0OCBsIC00LjA0OTMwMzIsNS4wMzczMDQgYSAxLjExOTEyNTUsMS4xMDk5NjcxIDAgMCAxIC0wLjg3NDk3ODksMC40MTY5MDYgbCAtNi40OTYxMDA2LDAuMDAxNSBhIDEuMTE5MTI1NSwxLjEwOTk2NzEgMCAwIDEgLTAuODc0OTc5LC0wLjQxNzY1MiBsIC00LjA1MDgsLTUuMDM2NTU0IGEgMS4xMTkxMjU1LDEuMTA5OTY3MSAwIDAgMSAtMC4wNjM2MiwtMC4wODgzMiAxLjExOTEyNTUsMS4xMDk5NjcxIDAgMCAxIC0wLjE1MTk0MiwtMC44NTEwMjggbCAxLjQ0MzgyNywtNi4yODEyODUzIGEgMS4xMTkxMjU1LDEuMTA5OTY3MSAwIDAgMSAwLjYwNTUyNCwtMC43NTI5NzU4IGwgNS44NTI0MDM2LC0yLjc5NjMzOTUgYSAxLjExOTEyNTUsMS4xMDk5NjcxIDAgMCAxIDAuNDI4ODgxOSwtMC4xMDg1MzAzIHoiIHN0eWxlPSJjb2xvcjojMDAwMDAwO2ZvbnQtc3R5bGU6bm9ybWFsO2ZvbnQtdmFyaWFudDpub3JtYWw7Zm9udC13ZWlnaHQ6bm9ybWFsO2ZvbnQtc3RyZXRjaDpub3JtYWw7Zm9udC1zaXplOm1lZGl1bTtsaW5lLWhlaWdodDpub3JtYWw7Zm9udC1mYW1pbHk6U2FuczstaW5rc2NhcGUtZm9udC1zcGVjaWZpY2F0aW9uOlNhbnM7dGV4dC1pbmRlbnQ6MDt0ZXh0LWFsaWduOnN0YXJ0O3RleHQtZGVjb3JhdGlvbjpub25lO3RleHQtZGVjb3JhdGlvbi1saW5lOm5vbmU7bGV0dGVyLXNwYWNpbmc6bm9ybWFsO3dvcmQtc3BhY2luZzpub3JtYWw7dGV4dC10cmFuc2Zvcm06bm9uZTt3cml0aW5nLW1vZGU6bHItdGI7ZGlyZWN0aW9uOmx0cjtiYXNlbGluZS1zaGlmdDpiYXNlbGluZTt0ZXh0LWFuY2hvcjpzdGFydDtkaXNwbGF5OmlubGluZTtvdmVyZmxvdzp2aXNpYmxlO3Zpc2liaWxpdHk6dmlzaWJsZTtmaWxsOiNmZmZmZmY7ZmlsbC1vcGFjaXR5OjE7ZmlsbC1ydWxlOm5vbnplcm87c3Ryb2tlOm5vbmU7c3Ryb2tlLXdpZHRoOjA7c3Ryb2tlLW1pdGVybGltaXQ6NDtzdHJva2UtZGFzaGFycmF5Om5vbmU7bWFya2VyOm5vbmU7ZW5hYmxlLWJhY2tncm91bmQ6YWNjdW11bGF0ZSIgaW5rc2NhcGU6Y29ubmVjdG9yLWN1cnZhdHVyZT0iMCIvPiYjeGE7ICAgIDwvZz4mI3hhOyAgICA8dGV4dCBpZD0idGV4dDIwNjYiIHk9IjE2LjgxMTc3NSIgeD0iOS45Nzk5NzY3IiBzdHlsZT0iZm9udC1zdHlsZTpub3JtYWw7Zm9udC13ZWlnaHQ6bm9ybWFsO2ZvbnQtc2l6ZToxMC41ODMzMzMwMnB4O2xpbmUtaGVpZ2h0OjYuNjE0NTgzNDlweDtmb250LWZhbWlseTpTYW5zO2xldHRlci1zcGFjaW5nOjBweDt3b3JkLXNwYWNpbmc6MHB4O2ZpbGw6I2ZmZmZmZjtmaWxsLW9wYWNpdHk6MTtzdHJva2U6bm9uZTtzdHJva2Utd2lkdGg6MC4yNjQ1ODMzMnB4O3N0cm9rZS1saW5lY2FwOmJ1dHQ7c3Ryb2tlLWxpbmVqb2luOm1pdGVyO3N0cm9rZS1vcGFjaXR5OjEiIHhtbDpzcGFjZT0icHJlc2VydmUiPjx0c3BhbiBzdHlsZT0iZm9udC1zdHlsZTpub3JtYWw7Zm9udC12YXJpYW50Om5vcm1hbDtmb250LXdlaWdodDpub3JtYWw7Zm9udC1zdHJldGNoOm5vcm1hbDtmb250LXNpemU6Mi44MjIyMjIyM3B4O2ZvbnQtZmFtaWx5OkFyaWFsOy1pbmtzY2FwZS1mb250LXNwZWNpZmljYXRpb246J0FyaWFsLCBOb3JtYWwnO3RleHQtYWxpZ246Y2VudGVyO3dyaXRpbmctbW9kZTpsci10Yjt0ZXh0LWFuY2hvcjptaWRkbGU7ZmlsbDojZmZmZmZmO2ZpbGwtb3BhY2l0eToxO3N0cm9rZS13aWR0aDowLjI2NDU4MzMycHgiIHk9IjE2LjgxMTc3NSIgeD0iOS45Nzk5NzY3IiBpZD0idHNwYW4yMDY0IiBzb2RpcG9kaTpyb2xlPSJsaW5lIj5zdmM8L3RzcGFuPjwvdGV4dD4mI3hhOyAgICA8ZyBpZD0iZzMzNDUiIHRyYW5zZm9ybT0idHJhbnNsYXRlKDAuMDkyMzg4MDEsMCkiPiYjeGE7ICAgICAgPHBhdGggc3R5bGU9ImZpbGw6I2ZmZmZmZjtmaWxsLXJ1bGU6ZXZlbm9kZDtzdHJva2U6bm9uZTtzdHJva2Utd2lkdGg6MC4yNjQ1ODMzMjtzdHJva2UtbGluZWNhcDpzcXVhcmU7c3Ryb2tlLW1pdGVybGltaXQ6MTAiIGlua3NjYXBlOmNvbm5lY3Rvci1jdXJ2YXR1cmU9IjAiIGQ9Im0gNC40OTQ5ODk2LDExLjI2MDgyNiAyLjkwODMzMTEsMCAwLDIuMDQxNjY3IC0yLjkwODMzMTEsMCB6IiBpZD0icGF0aDk2NCIvPiYjeGE7ICAgICAgPHBhdGggc3R5bGU9ImZpbGw6I2ZmZmZmZjtmaWxsLXJ1bGU6ZXZlbm9kZDtzdHJva2U6bm9uZTtzdHJva2Utd2lkdGg6MC4yNjQ1ODMzMjtzdHJva2UtbGluZWNhcDpzcXVhcmU7c3Ryb2tlLW1pdGVybGltaXQ6MTAiIGlua3NjYXBlOmNvbm5lY3Rvci1jdXJ2YXR1cmU9IjAiIGQ9Im0gOC40NjM3NDA3LDExLjI2MDgyNiAyLjkwODMzMDMsMCAwLDIuMDQxNjY3IC0yLjkwODMzMDMsMCB6IiBpZD0icGF0aDk2NiIvPiYjeGE7ICAgICAgPHBhdGggc3R5bGU9ImZpbGw6I2ZmZmZmZjtmaWxsLXJ1bGU6ZXZlbm9kZDtzdHJva2U6bm9uZTtzdHJva2Utd2lkdGg6MC4yNjQ1ODMzMjtzdHJva2UtbGluZWNhcDpzcXVhcmU7c3Ryb2tlLW1pdGVybGltaXQ6MTAiIGlua3NjYXBlOmNvbm5lY3Rvci1jdXJ2YXR1cmU9IjAiIGQ9Im0gMTIuNDMyNDkxLDExLjI2MDgyNiAyLjkwODMzLDAgMCwyLjA0MTY2NyAtMi45MDgzMywwIHoiIGlkPSJwYXRoOTY4Ii8+JiN4YTsgICAgICA8cGF0aCBzdHlsZT0iZmlsbDojZmZmZmZmO2ZpbGwtcnVsZTpldmVub2RkO3N0cm9rZTpub25lO3N0cm9rZS13aWR0aDowLjI2NDU4MzMyO3N0cm9rZS1saW5lY2FwOnNxdWFyZTtzdHJva2UtbWl0ZXJsaW1pdDoxMCIgaW5rc2NhcGU6Y29ubmVjdG9yLWN1cnZhdHVyZT0iMCIgZD0ibSA3LjYxMzc0MDcsNS4yMDgyOTIxIDQuNjA4MzMwMywwIDAsMi4wNDE2NjcgLTQuNjA4MzMwMywwIHoiIGlkPSJwYXRoOTcwIi8+JiN4YTsgICAgICA8cGF0aCBzdHlsZT0iZmlsbDpub25lO2ZpbGwtcnVsZTpldmVub2RkO3N0cm9rZTojZmZmZmZmO3N0cm9rZS13aWR0aDowLjUyOTE2NjY0O3N0cm9rZS1saW5lY2FwOmJ1dHQ7c3Ryb2tlLWxpbmVqb2luOnJvdW5kO3N0cm9rZS1taXRlcmxpbWl0OjEwO3N0cm9rZS1vcGFjaXR5OjEiIGlua3NjYXBlOmNvbm5lY3Rvci1jdXJ2YXR1cmU9IjAiIGQ9Im0gOS45MTc5MDA1LDcuMjQ5OTYwMSAwLDIuMDA1NDQ5IC0zLjk2NjY3MSwwIDAsMi4wMDI4ODU5IiBpZD0icGF0aDk3OCIvPiYjeGE7ICAgICAgPHBhdGggc3R5bGU9ImZpbGw6bm9uZTtmaWxsLXJ1bGU6ZXZlbm9kZDtzdHJva2U6I2ZmZmZmZjtzdHJva2Utd2lkdGg6MC41Mjg5OTk5ODtzdHJva2UtbGluZWNhcDpidXR0O3N0cm9rZS1saW5lam9pbjpyb3VuZDtzdHJva2UtbWl0ZXJsaW1pdDoxMDtzdHJva2UtZGFzaGFycmF5Om5vbmU7c3Ryb2tlLW9wYWNpdHk6MSIgaW5rc2NhcGU6Y29ubmVjdG9yLWN1cnZhdHVyZT0iMCIgZD0ibSA5LjkxNzkwMDUsNy4yNDk5NjAxIDAsMi4wMDU0NDkgMy45NjY2NzA1LDAgMCwyLjAwMjg4NTkiIGlkPSJwYXRoOTg2Ii8+JiN4YTsgICAgICA8cGF0aCBzdHlsZT0iZmlsbDpub25lO2ZpbGwtcnVsZTpldmVub2RkO3N0cm9rZTojZmZmZmZmO3N0cm9rZS13aWR0aDowLjUyOTE2NjY0O3N0cm9rZS1saW5lY2FwOmJ1dHQ7c3Ryb2tlLWxpbmVqb2luOnJvdW5kO3N0cm9rZS1taXRlcmxpbWl0OjEwO3N0cm9rZS1vcGFjaXR5OjEiIGlua3NjYXBlOmNvbm5lY3Rvci1jdXJ2YXR1cmU9IjAiIGQ9Im0gOS45MDk1NTM4LDcuMjUxMjI1MSAwLDIuMDA1NDQ5IDAuMDE2NywwIDAsMi4wMDI4ODU5IiBpZD0icGF0aDk4MiIvPiYjeGE7ICAgIDwvZz4mI3hhOyAgPC9nPiYjeGE7PC9zdmc+;fontSize=15;" vertex="1" parent="1">
          <mxGeometry x="1070" y="580" width="80" height="80" as="geometry" />
        </mxCell>
        <mxCell id="lHYMxXaq1XfdecDBcLf--21" style="edgeStyle=orthogonalEdgeStyle;rounded=0;orthogonalLoop=1;jettySize=auto;html=1;strokeWidth=4;" edge="1" parent="1" source="lHYMxXaq1XfdecDBcLf--4" target="lHYMxXaq1XfdecDBcLf--5">
          <mxGeometry relative="1" as="geometry" />
        </mxCell>
        <mxCell id="lHYMxXaq1XfdecDBcLf--9" value="StorageClass" style="shape=image;verticalLabelPosition=middle;verticalAlign=middle;imageAspect=0;aspect=fixed;image=data:image/svg+xml,PHN2ZyB4bWxuczpkYz0iaHR0cDovL3B1cmwub3JnL2RjL2VsZW1lbnRzLzEuMS8iIHhtbG5zOmNjPSJodHRwOi8vY3JlYXRpdmVjb21tb25zLm9yZy9ucyMiIHhtbG5zOnJkZj0iaHR0cDovL3d3dy53My5vcmcvMTk5OS8wMi8yMi1yZGYtc3ludGF4LW5zIyIgeG1sbnM6c3ZnPSJodHRwOi8vd3d3LnczLm9yZy8yMDAwL3N2ZyIgeG1sbnM9Imh0dHA6Ly93d3cudzMub3JnLzIwMDAvc3ZnIiB4bWxuczpzb2RpcG9kaT0iaHR0cDovL3NvZGlwb2RpLnNvdXJjZWZvcmdlLm5ldC9EVEQvc29kaXBvZGktMC5kdGQiIHhtbG5zOmlua3NjYXBlPSJodHRwOi8vd3d3Lmlua3NjYXBlLm9yZy9uYW1lc3BhY2VzL2lua3NjYXBlIiB3aWR0aD0iMTguMDM1MzM0bW0iIGhlaWdodD0iMTcuNTAwMzc4bW0iIHZpZXdCb3g9IjAgMCAxOC4wMzUzMzQgMTcuNTAwMzc4IiB2ZXJzaW9uPSIxLjEiIGlkPSJzdmcxMzgyNiIgaW5rc2NhcGU6dmVyc2lvbj0iMC45MSByMTM3MjUiIHNvZGlwb2RpOmRvY25hbWU9InNjLnN2ZyI+JiN4YTsgIDxkZWZzIGlkPSJkZWZzMTM4MjAiLz4mI3hhOyAgPHNvZGlwb2RpOm5hbWVkdmlldyBpZD0iYmFzZSIgcGFnZWNvbG9yPSIjZmZmZmZmIiBib3JkZXJjb2xvcj0iIzY2NjY2NiIgYm9yZGVyb3BhY2l0eT0iMS4wIiBpbmtzY2FwZTpwYWdlb3BhY2l0eT0iMC4wIiBpbmtzY2FwZTpwYWdlc2hhZG93PSIyIiBpbmtzY2FwZTp6b29tPSI4LjAxIiBpbmtzY2FwZTpjeD0iMS45NDc0Nzk5IiBpbmtzY2FwZTpjeT0iMjYuMjI1NjcyIiBpbmtzY2FwZTpkb2N1bWVudC11bml0cz0ibW0iIGlua3NjYXBlOmN1cnJlbnQtbGF5ZXI9ImxheWVyMSIgc2hvd2dyaWQ9ImZhbHNlIiBpbmtzY2FwZTp3aW5kb3ctd2lkdGg9IjE0NDAiIGlua3NjYXBlOndpbmRvdy1oZWlnaHQ9Ijc3NSIgaW5rc2NhcGU6d2luZG93LXg9IjAiIGlua3NjYXBlOndpbmRvdy15PSIxIiBpbmtzY2FwZTp3aW5kb3ctbWF4aW1pemVkPSIxIiBmaXQtbWFyZ2luLXRvcD0iMCIgZml0LW1hcmdpbi1sZWZ0PSIwIiBmaXQtbWFyZ2luLXJpZ2h0PSIwIiBmaXQtbWFyZ2luLWJvdHRvbT0iMCIvPiYjeGE7ICA8bWV0YWRhdGEgaWQ9Im1ldGFkYXRhMTM4MjMiPiYjeGE7ICAgIDxyZGY6UkRGPiYjeGE7ICAgICAgPGNjOldvcmsgcmRmOmFib3V0PSIiPiYjeGE7ICAgICAgICA8ZGM6Zm9ybWF0PmltYWdlL3N2Zyt4bWw8L2RjOmZvcm1hdD4mI3hhOyAgICAgICAgPGRjOnR5cGUgcmRmOnJlc291cmNlPSJodHRwOi8vcHVybC5vcmcvZGMvZGNtaXR5cGUvU3RpbGxJbWFnZSIvPiYjeGE7ICAgICAgICA8ZGM6dGl0bGUvPiYjeGE7ICAgICAgPC9jYzpXb3JrPiYjeGE7ICAgIDwvcmRmOlJERj4mI3hhOyAgPC9tZXRhZGF0YT4mI3hhOyAgPGcgaW5rc2NhcGU6bGFiZWw9IkNhbHF1ZSAxIiBpbmtzY2FwZTpncm91cG1vZGU9ImxheWVyIiBpZD0ibGF5ZXIxIiB0cmFuc2Zvcm09InRyYW5zbGF0ZSgtMC45OTI2MjYzOCwtMS4xNzQxODEpIj4mI3hhOyAgICA8ZyBpZD0iZzcwIiB0cmFuc2Zvcm09Im1hdHJpeCgxLjAxNDg4ODcsMCwwLDEuMDE0ODg4NywxNi45MDIxNDYsLTIuNjk4NzI2KSI+JiN4YTsgICAgICA8cGF0aCBpbmtzY2FwZTpleHBvcnQteWRwaT0iMjUwLjU1IiBpbmtzY2FwZTpleHBvcnQteGRwaT0iMjUwLjU1IiBpbmtzY2FwZTpleHBvcnQtZmlsZW5hbWU9Im5ldy5wbmciIGlua3NjYXBlOmNvbm5lY3Rvci1jdXJ2YXR1cmU9IjAiIGlkPSJwYXRoMzA1NSIgZD0ibSAtNi44NDkyMDE1LDQuMjcyNDY2OCBhIDEuMTE5MTI1NSwxLjEwOTk2NzEgMCAwIDAgLTAuNDI4ODgxOCwwLjEwODUzMDMgbCAtNS44NTI0MDM3LDIuNzk2MzM5NCBhIDEuMTE5MTI1NSwxLjEwOTk2NzEgMCAwIDAgLTAuNjA1NTI0LDAuNzUyOTc1OSBsIC0xLjQ0MzgyOCw2LjI4MTI4NDYgYSAxLjExOTEyNTUsMS4xMDk5NjcxIDAgMCAwIDAuMTUxOTQzLDAuODUxMDI4IDEuMTE5MTI1NSwxLjEwOTk2NzEgMCAwIDAgMC4wNjM2MiwwLjA4ODMyIGwgNC4wNTA4LDUuMDM2NTU1IGEgMS4xMTkxMjU1LDEuMTA5OTY3MSAwIDAgMCAwLjg3NDk3OSwwLjQxNzY1NCBsIDYuNDk2MTAxMSwtMC4wMDE1IGEgMS4xMTkxMjU1LDEuMTA5OTY3MSAwIDAgMCAwLjg3NDk3ODgsLTAuNDE2OTA2IEwgMS4zODE4ODcyLDE1LjE0OTQ1MyBBIDEuMTE5MTI1NSwxLjEwOTk2NzEgMCAwIDAgMS41OTgxOTg2LDE0LjIxMDEwNCBMIDAuMTUyMTI2NTcsNy45Mjg4MTU0IEEgMS4xMTkxMjU1LDEuMTA5OTY3MSAwIDAgMCAtMC40NTMzOTc5NCw3LjE3NTgzOTYgTCAtNi4zMDY1NDk2LDQuMzgwOTk3MSBBIDEuMTE5MTI1NSwxLjEwOTk2NzEgMCAwIDAgLTYuODQ5MjAxNSw0LjI3MjQ2NjggWiIgc3R5bGU9ImZpbGw6IzMyNmNlNTtmaWxsLW9wYWNpdHk6MTtzdHJva2U6bm9uZTtzdHJva2Utd2lkdGg6MDtzdHJva2UtbWl0ZXJsaW1pdDo0O3N0cm9rZS1kYXNoYXJyYXk6bm9uZTtzdHJva2Utb3BhY2l0eToxIi8+JiN4YTsgICAgICA8cGF0aCBpZD0icGF0aDMwNTQtMi05IiBkPSJNIC02Ljg1MjM0MzUsMy44MTc2MzcyIEEgMS4xODE0MzA0LDEuMTcxNzYyIDAgMCAwIC03LjMwNDQyODQsMy45MzI5MDQgbCAtNi4xNzg3NDI2LDIuOTUxMjc1OCBhIDEuMTgxNDMwNCwxLjE3MTc2MiAwIDAgMCAtMC42MzkyMDYsMC43OTQ4OTEgbCAtMS41MjM5MTUsNi42MzA4MjgyIGEgMS4xODE0MzA0LDEuMTcxNzYyIDAgMCAwIDAuMTYwMTc1LDAuODk4OTMgMS4xODE0MzA0LDEuMTcxNzYyIDAgMCAwIDAuMDY3MzYsMC4wOTI4MSBsIDQuMjc2MDk0LDUuMzE3MjM2IGEgMS4xODE0MzA0LDEuMTcxNzYyIDAgMCAwIDAuOTIzNjMsMC40NDA4NTggbCA2Ljg1NzYxODgsLTAuMDAxNSBhIDEuMTgxNDMwNCwxLjE3MTc2MiAwIDAgMCAwLjkyMzYzMDgsLTAuNDQwMTEgbCA0LjI3NDU5NjYsLTUuMzE3OTg1IGEgMS4xODE0MzA0LDEuMTcxNzYyIDAgMCAwIDAuMjI4Mjg4LC0wLjk5MDk5MyBMIDAuNTM4OTQ0MzksNy42Nzc1NzM4IEEgMS4xODE0MzA0LDEuMTcxNzYyIDAgMCAwIC0wLjEwMDI2MTAxLDYuODgzNDMxMyBMIC02LjI3OTAwMzcsMy45MzIxNTU1IEEgMS4xODE0MzA0LDEuMTcxNzYyIDAgMCAwIC02Ljg1MjM0MzUsMy44MTc2MzcyIFogbSAwLjAwMjk5LDAuNDU1MDc4OSBhIDEuMTE5MTI1NSwxLjEwOTk2NzEgMCAwIDEgMC41NDI2NTE3LDAuMTA4NTMwMyBsIDUuODUzMTUxNjksMi43OTQ4NDI1IEEgMS4xMTkxMjU1LDEuMTA5OTY3MSAwIDAgMSAwLjE1MTk3ODExLDcuOTI5MDY0OCBMIDEuNTk4MDUxLDE0LjIxMDM1IGEgMS4xMTkxMjU1LDEuMTA5OTY3MSAwIDAgMSAtMC4yMTYzMTIzLDAuOTM5MzQ4IGwgLTQuMDQ5MzAzMiw1LjAzNzMwNCBhIDEuMTE5MTI1NSwxLjEwOTk2NzEgMCAwIDEgLTAuODc0OTc4OSwwLjQxNjkwNiBsIC02LjQ5NjEwMDYsMC4wMDE1IGEgMS4xMTkxMjU1LDEuMTA5OTY3MSAwIDAgMSAtMC44NzQ5NzksLTAuNDE3NjUyIGwgLTQuMDUwOCwtNS4wMzY1NTQgYSAxLjExOTEyNTUsMS4xMDk5NjcxIDAgMCAxIC0wLjA2MzYyLC0wLjA4ODMyIDEuMTE5MTI1NSwxLjEwOTk2NzEgMCAwIDEgLTAuMTUxOTQyLC0wLjg1MTAyOCBsIDEuNDQzODI3LC02LjI4MTI4NTMgYSAxLjExOTEyNTUsMS4xMDk5NjcxIDAgMCAxIDAuNjA1NTI0LC0wLjc1Mjk3NTggbCA1Ljg1MjQwMzYsLTIuNzk2MzM5NSBhIDEuMTE5MTI1NSwxLjEwOTk2NzEgMCAwIDEgMC40Mjg4ODE5LC0wLjEwODUzMDMgeiIgc3R5bGU9ImNvbG9yOiMwMDAwMDA7Zm9udC1zdHlsZTpub3JtYWw7Zm9udC12YXJpYW50Om5vcm1hbDtmb250LXdlaWdodDpub3JtYWw7Zm9udC1zdHJldGNoOm5vcm1hbDtmb250LXNpemU6bWVkaXVtO2xpbmUtaGVpZ2h0Om5vcm1hbDtmb250LWZhbWlseTpTYW5zOy1pbmtzY2FwZS1mb250LXNwZWNpZmljYXRpb246U2Fuczt0ZXh0LWluZGVudDowO3RleHQtYWxpZ246c3RhcnQ7dGV4dC1kZWNvcmF0aW9uOm5vbmU7dGV4dC1kZWNvcmF0aW9uLWxpbmU6bm9uZTtsZXR0ZXItc3BhY2luZzpub3JtYWw7d29yZC1zcGFjaW5nOm5vcm1hbDt0ZXh0LXRyYW5zZm9ybTpub25lO3dyaXRpbmctbW9kZTpsci10YjtkaXJlY3Rpb246bHRyO2Jhc2VsaW5lLXNoaWZ0OmJhc2VsaW5lO3RleHQtYW5jaG9yOnN0YXJ0O2Rpc3BsYXk6aW5saW5lO292ZXJmbG93OnZpc2libGU7dmlzaWJpbGl0eTp2aXNpYmxlO2ZpbGw6I2ZmZmZmZjtmaWxsLW9wYWNpdHk6MTtmaWxsLXJ1bGU6bm9uemVybztzdHJva2U6bm9uZTtzdHJva2Utd2lkdGg6MDtzdHJva2UtbWl0ZXJsaW1pdDo0O3N0cm9rZS1kYXNoYXJyYXk6bm9uZTttYXJrZXI6bm9uZTtlbmFibGUtYmFja2dyb3VuZDphY2N1bXVsYXRlIiBpbmtzY2FwZTpjb25uZWN0b3ItY3VydmF0dXJlPSIwIi8+JiN4YTsgICAgPC9nPiYjeGE7ICAgIDx0ZXh0IGlkPSJ0ZXh0MjA2NiIgeT0iMTYuODExNzc1IiB4PSI5Ljk3OTk3NjciIHN0eWxlPSJmb250LXN0eWxlOm5vcm1hbDtmb250LXdlaWdodDpub3JtYWw7Zm9udC1zaXplOjEwLjU4MzMzMzAycHg7bGluZS1oZWlnaHQ6Ni42MTQ1ODM0OXB4O2ZvbnQtZmFtaWx5OlNhbnM7bGV0dGVyLXNwYWNpbmc6MHB4O3dvcmQtc3BhY2luZzowcHg7ZmlsbDojZmZmZmZmO2ZpbGwtb3BhY2l0eToxO3N0cm9rZTpub25lO3N0cm9rZS13aWR0aDowLjI2NDU4MzMycHg7c3Ryb2tlLWxpbmVjYXA6YnV0dDtzdHJva2UtbGluZWpvaW46bWl0ZXI7c3Ryb2tlLW9wYWNpdHk6MSIgeG1sOnNwYWNlPSJwcmVzZXJ2ZSI+PHRzcGFuIHN0eWxlPSJmb250LXN0eWxlOm5vcm1hbDtmb250LXZhcmlhbnQ6bm9ybWFsO2ZvbnQtd2VpZ2h0Om5vcm1hbDtmb250LXN0cmV0Y2g6bm9ybWFsO2ZvbnQtc2l6ZToyLjgyMjIyMjIzcHg7Zm9udC1mYW1pbHk6QXJpYWw7LWlua3NjYXBlLWZvbnQtc3BlY2lmaWNhdGlvbjonQXJpYWwsIE5vcm1hbCc7dGV4dC1hbGlnbjpjZW50ZXI7d3JpdGluZy1tb2RlOmxyLXRiO3RleHQtYW5jaG9yOm1pZGRsZTtmaWxsOiNmZmZmZmY7ZmlsbC1vcGFjaXR5OjE7c3Ryb2tlLXdpZHRoOjAuMjY0NTgzMzJweCIgeT0iMTYuODExNzc1IiB4PSI5Ljk3OTk3NjciIGlkPSJ0c3BhbjIwNjQiIHNvZGlwb2RpOnJvbGU9ImxpbmUiPnNjPC90c3Bhbj48L3RleHQ+JiN4YTsgICAgPHBhdGggc3R5bGU9ImZpbGw6IzMyNmNlNTtmaWxsLW9wYWNpdHk6MTtmaWxsLXJ1bGU6ZXZlbm9kZDtzdHJva2U6bm9uZTtzdHJva2Utd2lkdGg6MC4yMDc1NzQyODtzdHJva2UtbGluZWNhcDpzcXVhcmU7c3Ryb2tlLW1pdGVybGltaXQ6MTAiIGlua3NjYXBlOmNvbm5lY3Rvci1jdXJ2YXR1cmU9IjAiIGQ9Im0gNS40MTk4NTk1LDEwLjUyNjc1MSAwLDAgYyAwLDAuMzc2Njc2IDIuMTAzNDYsMC42ODIwMzMgNC42OTgyMTk1LDAuNjgyMDMzIDIuNTk0NzUxLDAgNC42OTgyMSwtMC4zMDUzNTcgNC42OTgyMSwtMC42ODIwMzMgbCAwLDEuODQ1MDQ1IGMgMCwwLjM3NjY3NCAtMi4xMDM0NTksMC42ODIwMyAtNC42OTgyMSwwLjY4MjAzIC0yLjU5NDc1OTUsMCAtNC42OTgyMTk1LC0wLjMwNTM1NiAtNC42OTgyMTk1LC0wLjY4MjAzIHoiIGlkPSJwYXRoNjQ3MyIvPiYjeGE7ICAgIDxwYXRoIHN0eWxlPSJmaWxsOiMzMjZjZTU7ZmlsbC1vcGFjaXR5OjE7ZmlsbC1ydWxlOmV2ZW5vZGQ7c3Ryb2tlOm5vbmU7c3Ryb2tlLXdpZHRoOjAuMjA3NTc0Mjg7c3Ryb2tlLWxpbmVjYXA6c3F1YXJlO3N0cm9rZS1taXRlcmxpbWl0OjEwIiBpbmtzY2FwZTpjb25uZWN0b3ItY3VydmF0dXJlPSIwIiBkPSJtIDUuNDE5ODU5NSwxMC41MjY3NTEgMCwwIGMgMCwtMC4zNzY2NzQgMi4xMDM0NiwtMC42ODIwMzM0IDQuNjk4MjE5NSwtMC42ODIwMzM0IDIuNTk0NzUxLDAgNC42OTgyMSwwLjMwNTM1OTQgNC42OTgyMSwwLjY4MjAzMzQgbCAwLDAgYyAwLDAuMzc2Njc2IC0yLjEwMzQ1OSwwLjY4MjAzMyAtNC42OTgyMSwwLjY4MjAzMyAtMi41OTQ3NTk1LDAgLTQuNjk4MjE5NSwtMC4zMDUzNTcgLTQuNjk4MjE5NSwtMC42ODIwMzMgeiIgaWQ9InBhdGg2NDc1Ii8+JiN4YTsgICAgPHBhdGggc3R5bGU9ImZpbGw6I2ZmZmZmZjtmaWxsLW9wYWNpdHk6MTtmaWxsLXJ1bGU6ZXZlbm9kZDtzdHJva2U6I2VlZWVlZTtzdHJva2Utd2lkdGg6MC4yMDc1NzQyOTtzdHJva2UtbGluZWNhcDpzcXVhcmU7c3Ryb2tlLW1pdGVybGltaXQ6MTA7c3Ryb2tlLW9wYWNpdHk6MSIgaW5rc2NhcGU6Y29ubmVjdG9yLWN1cnZhdHVyZT0iMCIgZD0ibSA1LjQxOTg1OTUsOC4yMTcwNDMzIDAsMCBjIDAsMC4zNzY2NzYgMi4xMDM0NiwwLjY4MjAzMTkgNC42OTgyMTk1LDAuNjgyMDMxOSAyLjU5NDc1MSwwIDQuNjk4MjEsLTAuMzA1MzU1OSA0LjY5ODIxLC0wLjY4MjAzMTkgbCAwLDEuODQ1MDQ1NyBjIDAsMC4zNzY2NzQgLTIuMTAzNDU5LDAuNjgyMDMgLTQuNjk4MjEsMC42ODIwMyAtMi41OTQ3NTk1LDAgLTQuNjk4MjE5NSwtMC4zMDUzNTYgLTQuNjk4MjE5NSwtMC42ODIwMyB6IiBpZD0icGF0aDY0NzkiLz4mI3hhOyAgICA8cGF0aCBzdHlsZT0iZmlsbDojMzI2Y2U1O2ZpbGwtb3BhY2l0eToxO2ZpbGwtcnVsZTpldmVub2RkO3N0cm9rZTpub25lO3N0cm9rZS13aWR0aDowLjIwNzU3NDI4O3N0cm9rZS1saW5lY2FwOnNxdWFyZTtzdHJva2UtbWl0ZXJsaW1pdDoxMCIgaW5rc2NhcGU6Y29ubmVjdG9yLWN1cnZhdHVyZT0iMCIgZD0ibSA1LjQxOTg1OTUsOC4yMTcwNDMzIDAsMCBjIDAsLTAuMzc2Njc1IDIuMTAzNDYsLTAuNjgyMDMyNSA0LjY5ODIxOTUsLTAuNjgyMDMyNSAyLjU5NDc1MSwwIDQuNjk4MjEsMC4zMDUzNTc1IDQuNjk4MjEsMC42ODIwMzI1IGwgMCwwIGMgMCwwLjM3NjY3NiAtMi4xMDM0NTksMC42ODIwMzE5IC00LjY5ODIxLDAuNjgyMDMxOSAtMi41OTQ3NTk1LDAgLTQuNjk4MjE5NSwtMC4zMDUzNTU5IC00LjY5ODIxOTUsLTAuNjgyMDMxOSB6IiBpZD0icGF0aDY0ODEiLz4mI3hhOyAgICA8cGF0aCBpZD0icGF0aDY0ODciIGQ9Im0gNS40MTk5NTg1LDUuNjYxNjU5OCAwLDAgYyAwLC0wLjM3NjY3NCAyLjEwMzQ1NiwtMC42ODIwMzIgNC42OTgyMjM1LC0wLjY4MjAzMiAyLjU5NDc0NiwwIDQuNjk4MjEyLDAuMzA1MzU4IDQuNjk4MjEyLDAuNjgyMDMyIGwgMCwwIGMgMCwwLjM3NjY3NiAtMi4xMDM0NjYsMC42ODIwMzIgLTQuNjk4MjEyLDAuNjgyMDMyIC0yLjU5NDc2NzUsMCAtNC42OTgyMjM1LC0wLjMwNTM1NiAtNC42OTgyMjM1LC0wLjY4MjAzMiB6IiBpbmtzY2FwZTpjb25uZWN0b3ItY3VydmF0dXJlPSIwIiBzdHlsZT0iZmlsbDojMzI2Y2U1O2ZpbGwtb3BhY2l0eToxO2ZpbGwtcnVsZTpldmVub2RkO3N0cm9rZTpub25lO3N0cm9rZS13aWR0aDowLjIwNzU3NDI4O3N0cm9rZS1saW5lY2FwOnNxdWFyZTtzdHJva2UtbWl0ZXJsaW1pdDoxMCIvPiYjeGE7ICAgIDxnIGlkPSJnMzM0NyIgdHJhbnNmb3JtPSJ0cmFuc2xhdGUoLTAuMTA3ODcwNTksMCkiPiYjeGE7ICAgICAgPHBhdGggaWQ9InBhdGg2NDc3IiBkPSJtIDE0LjgxNjI4OSwxMC44ODExMDMgMCwwIGMgMCwwLjM3NjY3NiAtMi4xMDM0NTksMC42ODIwMzMgLTQuNjk4MjEsMC42ODIwMzMgLTIuNTk0NzQ5NSwwIC00LjY5ODIxOTUsLTAuMzA1MzU3IC00LjY5ODIxOTUsLTAuNjgyMDMzIGwgMCwwIGMgMCwtMC4zNzY2NzUgMi4xMDM0NywtMC42ODIwMzEgNC42OTgyMTk1LC0wLjY4MjAzMSAyLjU5NDc1MSwwIDQuNjk4MjEsMC4zMDUzNTYgNC42OTgyMSwwLjY4MjAzMSBsIDAsMS44NDUwNDYgYyAwLDAuMzc2NjczIC0yLjEwMzQ1OSwwLjY4MjAyOSAtNC42OTgyMSwwLjY4MjAyOSAtMi41OTQ3NDk1LDAgLTQuNjk4MjE5NSwtMC4zMDUzNTYgLTQuNjk4MjE5NSwtMC42ODIwMjkgbCAwLC0xLjg0NTA0NiIgaW5rc2NhcGU6Y29ubmVjdG9yLWN1cnZhdHVyZT0iMCIgc3R5bGU9ImZpbGw6bm9uZTtmaWxsLXJ1bGU6ZXZlbm9kZDtzdHJva2U6I2ZmZmZmZjtzdHJva2Utd2lkdGg6MC40MTQ5OTk5OTtzdHJva2UtbGluZWNhcDpidXR0O3N0cm9rZS1saW5lam9pbjpyb3VuZDtzdHJva2UtbWl0ZXJsaW1pdDoxMDtzdHJva2UtZGFzaGFycmF5OjEuNjYwMDAwMDIsIDAuNDE1O3N0cm9rZS1kYXNob2Zmc2V0OjA7c3Ryb2tlLW9wYWNpdHk6MSIvPiYjeGE7ICAgICAgPHBhdGggaWQ9InBhdGg2NDgzIiBkPSJtIDE0LjgxNjI4OSw4LjIxNzA0MzMgMCwwIGMgMCwwLjM3NjY3NiAtMi4xMDM0NTksMC42ODIwMzE5IC00LjY5ODIxLDAuNjgyMDMxOSAtMi41OTQ3NDk1LDAgLTQuNjk4MjE5NSwtMC4zMDUzNTU5IC00LjY5ODIxOTUsLTAuNjgyMDMxOSBsIDAsMCBjIDAsLTAuMzc2Njc1IDIuMTAzNDcsLTAuNjgyMDMyNSA0LjY5ODIxOTUsLTAuNjgyMDMyNSAyLjU5NDc1MSwwIDQuNjk4MjEsMC4zMDUzNTc1IDQuNjk4MjEsMC42ODIwMzI1IGwgMCwxLjg0NTA0NTcgYyAwLDAuMzc2Njc0IC0yLjEwMzQ1OSwwLjY4MjAzIC00LjY5ODIxLDAuNjgyMDMgLTIuNTk0NzQ5NSwwIC00LjY5ODIxOTUsLTAuMzA1MzU2IC00LjY5ODIxOTUsLTAuNjgyMDMgbCAwLC0xLjg0NTA0NTciIGlua3NjYXBlOmNvbm5lY3Rvci1jdXJ2YXR1cmU9IjAiIHN0eWxlPSJmaWxsOm5vbmU7ZmlsbC1ydWxlOmV2ZW5vZGQ7c3Ryb2tlOiNmZmZmZmY7c3Ryb2tlLXdpZHRoOjAuNDE0OTk5OTk7c3Ryb2tlLWxpbmVjYXA6YnV0dDtzdHJva2UtbGluZWpvaW46cm91bmQ7c3Ryb2tlLW1pdGVybGltaXQ6MTA7c3Ryb2tlLWRhc2hhcnJheTpub25lO3N0cm9rZS1vcGFjaXR5OjEiLz4mI3hhOyAgICAgIDxwYXRoIHN0eWxlPSJmaWxsOiMzMjZjZTU7ZmlsbC1vcGFjaXR5OjE7ZmlsbC1ydWxlOmV2ZW5vZGQ7c3Ryb2tlOm5vbmU7c3Ryb2tlLXdpZHRoOjAuMjA3NTc0Mjg7c3Ryb2tlLWxpbmVjYXA6c3F1YXJlO3N0cm9rZS1taXRlcmxpbWl0OjEwIiBpbmtzY2FwZTpjb25uZWN0b3ItY3VydmF0dXJlPSIwIiBkPSJtIDUuNDE5OTU4NSw1LjY2MTY1OTggMCwwIGMgMCwwLjM3NjY3NiAyLjEwMzQ1NiwwLjY4MjAzMiA0LjY5ODIyMzUsMC42ODIwMzIgMi41OTQ3NDYsMCA0LjY5ODIxMiwtMC4zMDUzNTYgNC42OTgyMTIsLTAuNjgyMDMyIGwgMCwxLjg0NTA0NSBjIDAsMC4zNzY2NzQ1IC0yLjEwMzQ2NiwwLjY4MjAzMDUgLTQuNjk4MjEyLDAuNjgyMDMwNSAtMi41OTQ3Njc1LDAgLTQuNjk4MjIzNSwtMC4zMDUzNTYgLTQuNjk4MjIzNSwtMC42ODIwMzA1IHoiIGlkPSJwYXRoNjQ4NSIvPiYjeGE7ICAgICAgPHBhdGggc3R5bGU9ImZpbGw6bm9uZTtmaWxsLXJ1bGU6ZXZlbm9kZDtzdHJva2U6I2ZmZmZmZjtzdHJva2Utd2lkdGg6MC40MTUxNDg1OTtzdHJva2UtbGluZWNhcDpidXR0O3N0cm9rZS1saW5lam9pbjpyb3VuZDtzdHJva2UtbWl0ZXJsaW1pdDoxMDtzdHJva2UtZGFzaGFycmF5OjEuNjYwNTk0MzMsIDAuNDE1MTQ4NTg7c3Ryb2tlLWRhc2hvZmZzZXQ6MDtzdHJva2Utb3BhY2l0eToxIiBpbmtzY2FwZTpjb25uZWN0b3ItY3VydmF0dXJlPSIwIiBkPSJtIDE0LjgxNjM5NCw1LjY2MTY1OTggMCwwIGMgMCwwLjM3NjY3NiAtMi4xMDM0NjYsMC42ODIwMzIgLTQuNjk4MjEyLDAuNjgyMDMyIC0yLjU5NDc1NzUsMCAtNC42OTgyMjM1LC0wLjMwNTM1NiAtNC42OTgyMjM1LC0wLjY4MjAzMiBsIDAsMCBjIDAsLTAuMzc2Njc0IDIuMTAzNDY2LC0wLjY4MjAzMiA0LjY5ODIyMzUsLTAuNjgyMDMyIDIuNTk0NzQ2LDAgNC42OTgyMTIsMC4zMDUzNTggNC42OTgyMTIsMC42ODIwMzIgbCAwLDEuODQ1MDQ1IGMgMCwwLjM3NjY3NDUgLTIuMTAzNDY2LDAuNjgyMDMwNSAtNC42OTgyMTIsMC42ODIwMzA1IC0yLjU5NDc1NzUsMCAtNC42OTgyMjM1LC0wLjMwNTM1NiAtNC42OTgyMjM1LC0wLjY4MjAzMDUgbCAwLC0xLjg0NTA0NSIgaWQ9InBhdGg2NDg5Ii8+JiN4YTsgICAgPC9nPiYjeGE7ICA8L2c+JiN4YTs8L3N2Zz4=;fontSize=15;labelPosition=right;align=left;" vertex="1" parent="1">
          <mxGeometry x="1320" y="910" width="80" height="80" as="geometry" />
        </mxCell>
        <mxCell id="lHYMxXaq1XfdecDBcLf--6" value="Netflix-Clone-Pod1" style="shape=image;verticalLabelPosition=middle;verticalAlign=middle;imageAspect=0;aspect=fixed;image=data:image/svg+xml,PHN2ZyB4bWxuczpkYz0iaHR0cDovL3B1cmwub3JnL2RjL2VsZW1lbnRzLzEuMS8iIHhtbG5zOmNjPSJodHRwOi8vY3JlYXRpdmVjb21tb25zLm9yZy9ucyMiIHhtbG5zOnJkZj0iaHR0cDovL3d3dy53My5vcmcvMTk5OS8wMi8yMi1yZGYtc3ludGF4LW5zIyIgeG1sbnM6c3ZnPSJodHRwOi8vd3d3LnczLm9yZy8yMDAwL3N2ZyIgeG1sbnM9Imh0dHA6Ly93d3cudzMub3JnLzIwMDAvc3ZnIiB4bWxuczpzb2RpcG9kaT0iaHR0cDovL3NvZGlwb2RpLnNvdXJjZWZvcmdlLm5ldC9EVEQvc29kaXBvZGktMC5kdGQiIHhtbG5zOmlua3NjYXBlPSJodHRwOi8vd3d3Lmlua3NjYXBlLm9yZy9uYW1lc3BhY2VzL2lua3NjYXBlIiB3aWR0aD0iMTguMDM1MzM0bW0iIGhlaWdodD0iMTcuNTAwMzc4bW0iIHZpZXdCb3g9IjAgMCAxOC4wMzUzMzQgMTcuNTAwMzc4IiB2ZXJzaW9uPSIxLjEiIGlkPSJzdmcxMzgyNiIgaW5rc2NhcGU6dmVyc2lvbj0iMC45MSByMTM3MjUiIHNvZGlwb2RpOmRvY25hbWU9InBvZC5zdmciPiYjeGE7ICA8ZGVmcyBpZD0iZGVmczEzODIwIi8+JiN4YTsgIDxzb2RpcG9kaTpuYW1lZHZpZXcgaWQ9ImJhc2UiIHBhZ2Vjb2xvcj0iI2ZmZmZmZiIgYm9yZGVyY29sb3I9IiM2NjY2NjYiIGJvcmRlcm9wYWNpdHk9IjEuMCIgaW5rc2NhcGU6cGFnZW9wYWNpdHk9IjAuMCIgaW5rc2NhcGU6cGFnZXNoYWRvdz0iMiIgaW5rc2NhcGU6em9vbT0iOCIgaW5rc2NhcGU6Y3g9IjE2Ljg0NzQ5NiIgaW5rc2NhcGU6Y3k9IjMzLjc1MjIzOSIgaW5rc2NhcGU6ZG9jdW1lbnQtdW5pdHM9Im1tIiBpbmtzY2FwZTpjdXJyZW50LWxheWVyPSJsYXllcjEiIHNob3dncmlkPSJmYWxzZSIgaW5rc2NhcGU6d2luZG93LXdpZHRoPSIxNDQwIiBpbmtzY2FwZTp3aW5kb3ctaGVpZ2h0PSI3NzUiIGlua3NjYXBlOndpbmRvdy14PSIwIiBpbmtzY2FwZTp3aW5kb3cteT0iMSIgaW5rc2NhcGU6d2luZG93LW1heGltaXplZD0iMSIgZml0LW1hcmdpbi10b3A9IjAiIGZpdC1tYXJnaW4tbGVmdD0iMCIgZml0LW1hcmdpbi1yaWdodD0iMCIgZml0LW1hcmdpbi1ib3R0b209IjAiLz4mI3hhOyAgPG1ldGFkYXRhIGlkPSJtZXRhZGF0YTEzODIzIj4mI3hhOyAgICA8cmRmOlJERj4mI3hhOyAgICAgIDxjYzpXb3JrIHJkZjphYm91dD0iIj4mI3hhOyAgICAgICAgPGRjOmZvcm1hdD5pbWFnZS9zdmcreG1sPC9kYzpmb3JtYXQ+JiN4YTsgICAgICAgIDxkYzp0eXBlIHJkZjpyZXNvdXJjZT0iaHR0cDovL3B1cmwub3JnL2RjL2RjbWl0eXBlL1N0aWxsSW1hZ2UiLz4mI3hhOyAgICAgICAgPGRjOnRpdGxlLz4mI3hhOyAgICAgIDwvY2M6V29yaz4mI3hhOyAgICA8L3JkZjpSREY+JiN4YTsgIDwvbWV0YWRhdGE+JiN4YTsgIDxnIGlua3NjYXBlOmxhYmVsPSJDYWxxdWUgMSIgaW5rc2NhcGU6Z3JvdXBtb2RlPSJsYXllciIgaWQ9ImxheWVyMSIgdHJhbnNmb3JtPSJ0cmFuc2xhdGUoLTAuOTkyNjI2MzgsLTEuMTc0MTgxKSI+JiN4YTsgICAgPGcgaWQ9Imc3MCIgdHJhbnNmb3JtPSJtYXRyaXgoMS4wMTQ4ODg3LDAsMCwxLjAxNDg4ODcsMTYuOTAyMTQ2LC0yLjY5ODcyNikiPiYjeGE7ICAgICAgPHBhdGggaW5rc2NhcGU6ZXhwb3J0LXlkcGk9IjI1MC41NSIgaW5rc2NhcGU6ZXhwb3J0LXhkcGk9IjI1MC41NSIgaW5rc2NhcGU6ZXhwb3J0LWZpbGVuYW1lPSJuZXcucG5nIiBpbmtzY2FwZTpjb25uZWN0b3ItY3VydmF0dXJlPSIwIiBpZD0icGF0aDMwNTUiIGQ9Im0gLTYuODQ5MjAxNSw0LjI3MjQ2NjggYSAxLjExOTEyNTUsMS4xMDk5NjcxIDAgMCAwIC0wLjQyODg4MTgsMC4xMDg1MzAzIGwgLTUuODUyNDAzNywyLjc5NjMzOTQgYSAxLjExOTEyNTUsMS4xMDk5NjcxIDAgMCAwIC0wLjYwNTUyNCwwLjc1Mjk3NTkgbCAtMS40NDM4MjgsNi4yODEyODQ2IGEgMS4xMTkxMjU1LDEuMTA5OTY3MSAwIDAgMCAwLjE1MTk0MywwLjg1MTAyOCAxLjExOTEyNTUsMS4xMDk5NjcxIDAgMCAwIDAuMDYzNjIsMC4wODgzMiBsIDQuMDUwOCw1LjAzNjU1NSBhIDEuMTE5MTI1NSwxLjEwOTk2NzEgMCAwIDAgMC44NzQ5NzksMC40MTc2NTQgbCA2LjQ5NjEwMTEsLTAuMDAxNSBhIDEuMTE5MTI1NSwxLjEwOTk2NzEgMCAwIDAgMC44NzQ5Nzg4LC0wLjQxNjkwNiBMIDEuMzgxODg3MiwxNS4xNDk0NTMgQSAxLjExOTEyNTUsMS4xMDk5NjcxIDAgMCAwIDEuNTk4MTk4NiwxNC4yMTAxMDQgTCAwLjE1MjEyNjU3LDcuOTI4ODE1NCBBIDEuMTE5MTI1NSwxLjEwOTk2NzEgMCAwIDAgLTAuNDUzMzk3OTQsNy4xNzU4Mzk2IEwgLTYuMzA2NTQ5Niw0LjM4MDk5NzEgQSAxLjExOTEyNTUsMS4xMDk5NjcxIDAgMCAwIC02Ljg0OTIwMTUsNC4yNzI0NjY4IFoiIHN0eWxlPSJmaWxsOiMzMjZjZTU7ZmlsbC1vcGFjaXR5OjE7c3Ryb2tlOm5vbmU7c3Ryb2tlLXdpZHRoOjA7c3Ryb2tlLW1pdGVybGltaXQ6NDtzdHJva2UtZGFzaGFycmF5Om5vbmU7c3Ryb2tlLW9wYWNpdHk6MSIvPiYjeGE7ICAgICAgPHBhdGggaWQ9InBhdGgzMDU0LTItOSIgZD0iTSAtNi44NTIzNDM1LDMuODE3NjM3MiBBIDEuMTgxNDMwNCwxLjE3MTc2MiAwIDAgMCAtNy4zMDQ0Mjg0LDMuOTMyOTA0IGwgLTYuMTc4NzQyNiwyLjk1MTI3NTggYSAxLjE4MTQzMDQsMS4xNzE3NjIgMCAwIDAgLTAuNjM5MjA2LDAuNzk0ODkxIGwgLTEuNTIzOTE1LDYuNjMwODI4MiBhIDEuMTgxNDMwNCwxLjE3MTc2MiAwIDAgMCAwLjE2MDE3NSwwLjg5ODkzIDEuMTgxNDMwNCwxLjE3MTc2MiAwIDAgMCAwLjA2NzM2LDAuMDkyODEgbCA0LjI3NjA5NCw1LjMxNzIzNiBhIDEuMTgxNDMwNCwxLjE3MTc2MiAwIDAgMCAwLjkyMzYzLDAuNDQwODU4IGwgNi44NTc2MTg4LC0wLjAwMTUgYSAxLjE4MTQzMDQsMS4xNzE3NjIgMCAwIDAgMC45MjM2MzA4LC0wLjQ0MDExIGwgNC4yNzQ1OTY2LC01LjMxNzk4NSBhIDEuMTgxNDMwNCwxLjE3MTc2MiAwIDAgMCAwLjIyODI4OCwtMC45OTA5OTMgTCAwLjUzODk0NDM5LDcuNjc3NTczOCBBIDEuMTgxNDMwNCwxLjE3MTc2MiAwIDAgMCAtMC4xMDAyNjEwMSw2Ljg4MzQzMTMgTCAtNi4yNzkwMDM3LDMuOTMyMTU1NSBBIDEuMTgxNDMwNCwxLjE3MTc2MiAwIDAgMCAtNi44NTIzNDM1LDMuODE3NjM3MiBaIG0gMC4wMDI5OSwwLjQ1NTA3ODkgYSAxLjExOTEyNTUsMS4xMDk5NjcxIDAgMCAxIDAuNTQyNjUxNywwLjEwODUzMDMgbCA1Ljg1MzE1MTY5LDIuNzk0ODQyNSBBIDEuMTE5MTI1NSwxLjEwOTk2NzEgMCAwIDEgMC4xNTE5NzgxMSw3LjkyOTA2NDggTCAxLjU5ODA1MSwxNC4yMTAzNSBhIDEuMTE5MTI1NSwxLjEwOTk2NzEgMCAwIDEgLTAuMjE2MzEyMywwLjkzOTM0OCBsIC00LjA0OTMwMzIsNS4wMzczMDQgYSAxLjExOTEyNTUsMS4xMDk5NjcxIDAgMCAxIC0wLjg3NDk3ODksMC40MTY5MDYgbCAtNi40OTYxMDA2LDAuMDAxNSBhIDEuMTE5MTI1NSwxLjEwOTk2NzEgMCAwIDEgLTAuODc0OTc5LC0wLjQxNzY1MiBsIC00LjA1MDgsLTUuMDM2NTU0IGEgMS4xMTkxMjU1LDEuMTA5OTY3MSAwIDAgMSAtMC4wNjM2MiwtMC4wODgzMiAxLjExOTEyNTUsMS4xMDk5NjcxIDAgMCAxIC0wLjE1MTk0MiwtMC44NTEwMjggbCAxLjQ0MzgyNywtNi4yODEyODUzIGEgMS4xMTkxMjU1LDEuMTA5OTY3MSAwIDAgMSAwLjYwNTUyNCwtMC43NTI5NzU4IGwgNS44NTI0MDM2LC0yLjc5NjMzOTUgYSAxLjExOTEyNTUsMS4xMDk5NjcxIDAgMCAxIDAuNDI4ODgxOSwtMC4xMDg1MzAzIHoiIHN0eWxlPSJjb2xvcjojMDAwMDAwO2ZvbnQtc3R5bGU6bm9ybWFsO2ZvbnQtdmFyaWFudDpub3JtYWw7Zm9udC13ZWlnaHQ6bm9ybWFsO2ZvbnQtc3RyZXRjaDpub3JtYWw7Zm9udC1zaXplOm1lZGl1bTtsaW5lLWhlaWdodDpub3JtYWw7Zm9udC1mYW1pbHk6U2FuczstaW5rc2NhcGUtZm9udC1zcGVjaWZpY2F0aW9uOlNhbnM7dGV4dC1pbmRlbnQ6MDt0ZXh0LWFsaWduOnN0YXJ0O3RleHQtZGVjb3JhdGlvbjpub25lO3RleHQtZGVjb3JhdGlvbi1saW5lOm5vbmU7bGV0dGVyLXNwYWNpbmc6bm9ybWFsO3dvcmQtc3BhY2luZzpub3JtYWw7dGV4dC10cmFuc2Zvcm06bm9uZTt3cml0aW5nLW1vZGU6bHItdGI7ZGlyZWN0aW9uOmx0cjtiYXNlbGluZS1zaGlmdDpiYXNlbGluZTt0ZXh0LWFuY2hvcjpzdGFydDtkaXNwbGF5OmlubGluZTtvdmVyZmxvdzp2aXNpYmxlO3Zpc2liaWxpdHk6dmlzaWJsZTtmaWxsOiNmZmZmZmY7ZmlsbC1vcGFjaXR5OjE7ZmlsbC1ydWxlOm5vbnplcm87c3Ryb2tlOm5vbmU7c3Ryb2tlLXdpZHRoOjA7c3Ryb2tlLW1pdGVybGltaXQ6NDtzdHJva2UtZGFzaGFycmF5Om5vbmU7bWFya2VyOm5vbmU7ZW5hYmxlLWJhY2tncm91bmQ6YWNjdW11bGF0ZSIgaW5rc2NhcGU6Y29ubmVjdG9yLWN1cnZhdHVyZT0iMCIvPiYjeGE7ICAgIDwvZz4mI3hhOyAgICA8dGV4dCBpZD0idGV4dDIwNjYiIHk9IjE2LjgxMTc3NSIgeD0iMTAuMDE3MTgzIiBzdHlsZT0iZm9udC1zdHlsZTpub3JtYWw7Zm9udC13ZWlnaHQ6bm9ybWFsO2ZvbnQtc2l6ZToxMC41ODMzMzMwMnB4O2xpbmUtaGVpZ2h0OjYuNjE0NTgzNDlweDtmb250LWZhbWlseTpTYW5zO2xldHRlci1zcGFjaW5nOjBweDt3b3JkLXNwYWNpbmc6MHB4O2ZpbGw6I2ZmZmZmZjtmaWxsLW9wYWNpdHk6MTtzdHJva2U6bm9uZTtzdHJva2Utd2lkdGg6MC4yNjQ1ODMzMnB4O3N0cm9rZS1saW5lY2FwOmJ1dHQ7c3Ryb2tlLWxpbmVqb2luOm1pdGVyO3N0cm9rZS1vcGFjaXR5OjEiIHhtbDpzcGFjZT0icHJlc2VydmUiPjx0c3BhbiBzdHlsZT0iZm9udC1zdHlsZTpub3JtYWw7Zm9udC12YXJpYW50Om5vcm1hbDtmb250LXdlaWdodDpub3JtYWw7Zm9udC1zdHJldGNoOm5vcm1hbDtmb250LXNpemU6Mi44MjIyMjIyM3B4O2ZvbnQtZmFtaWx5OkFyaWFsOy1pbmtzY2FwZS1mb250LXNwZWNpZmljYXRpb246J0FyaWFsLCBOb3JtYWwnO3RleHQtYWxpZ246Y2VudGVyO3dyaXRpbmctbW9kZTpsci10Yjt0ZXh0LWFuY2hvcjptaWRkbGU7ZmlsbDojZmZmZmZmO2ZpbGwtb3BhY2l0eToxO3N0cm9rZS13aWR0aDowLjI2NDU4MzMycHgiIHk9IjE2LjgxMTc3NSIgeD0iMTAuMDE3MTgzIiBpZD0idHNwYW4yMDY0IiBzb2RpcG9kaTpyb2xlPSJsaW5lIj5wb2Q8L3RzcGFuPjwvdGV4dD4mI3hhOyAgICA8ZyBpZD0iZzMzNDEiIHRyYW5zZm9ybT0idHJhbnNsYXRlKDAuMTI3NjY2NjEsMCkiPiYjeGE7ICAgICAgPHBhdGggaW5rc2NhcGU6ZXhwb3J0LXlkcGk9IjM3Ni41Nzk5OSIgaW5rc2NhcGU6ZXhwb3J0LXhkcGk9IjM3Ni41Nzk5OSIgc3R5bGU9ImZpbGw6I2ZmZmZmZjtmaWxsLXJ1bGU6ZXZlbm9kZDtzdHJva2U6bm9uZTtzdHJva2Utd2lkdGg6MC4yNjQ1ODMzMjtzdHJva2UtbGluZWNhcDpzcXVhcmU7c3Ryb2tlLW1pdGVybGltaXQ6MTAiIGlua3NjYXBlOmNvbm5lY3Rvci1jdXJ2YXR1cmU9IjAiIGQ9Ik0gNi4yNjE3OTE0LDcuMDM2MDg2IDkuODgyNjMxNyw1Ljk4NjA4NyAxMy41MDM0NjIsNy4wMzYwODYgOS44ODI2MzE3LDguMDg2MDg3IFoiIGlkPSJwYXRoOTEwIi8+JiN4YTsgICAgICA8cGF0aCBpbmtzY2FwZTpleHBvcnQteWRwaT0iMzc2LjU3OTk5IiBpbmtzY2FwZTpleHBvcnQteGRwaT0iMzc2LjU3OTk5IiBzdHlsZT0iZmlsbDojZmZmZmZmO2ZpbGwtcnVsZTpldmVub2RkO3N0cm9rZTpub25lO3N0cm9rZS13aWR0aDowLjI2NDU4MzMyO3N0cm9rZS1saW5lY2FwOnNxdWFyZTtzdHJva2UtbWl0ZXJsaW1pdDoxMCIgaW5rc2NhcGU6Y29ubmVjdG9yLWN1cnZhdHVyZT0iMCIgZD0ibSA2LjI2MTc5MTQsNy40MzgxNyAwLDMuODUyNzc4IDMuMzczNjEwMywxLjg2ODc0OSAwLjAxNjcsLTQuNzEzMTkzIHoiIGlkPSJwYXRoOTEyIi8+JiN4YTsgICAgICA8cGF0aCBpbmtzY2FwZTpleHBvcnQteWRwaT0iMzc2LjU3OTk5IiBpbmtzY2FwZTpleHBvcnQteGRwaT0iMzc2LjU3OTk5IiBzdHlsZT0iZmlsbDojZmZmZmZmO2ZpbGwtcnVsZTpldmVub2RkO3N0cm9rZTpub25lO3N0cm9rZS13aWR0aDowLjI2NDU4MzMyO3N0cm9rZS1saW5lY2FwOnNxdWFyZTtzdHJva2UtbWl0ZXJsaW1pdDoxMCIgaW5rc2NhcGU6Y29ubmVjdG9yLWN1cnZhdHVyZT0iMCIgZD0ibSAxMy41MDM0NjIsNy40MzgxNyAwLDMuODUyNzc4IC0zLjM3MzYxLDEuODY4NzQ5IC0wLjAxNjcsLTQuNzEzMTkzIHoiIGlkPSJwYXRoOTE0Ii8+JiN4YTsgICAgPC9nPiYjeGE7ICA8L2c+JiN4YTs8L3N2Zz4=;fontSize=15;labelPosition=right;align=left;" vertex="1" parent="1">
          <mxGeometry x="1320" y="450" width="80" height="80" as="geometry" />
        </mxCell>
        <mxCell id="lHYMxXaq1XfdecDBcLf--23" style="edgeStyle=orthogonalEdgeStyle;rounded=0;orthogonalLoop=1;jettySize=auto;html=1;entryX=0;entryY=0.5;entryDx=0;entryDy=0;strokeWidth=4;" edge="1" parent="1" source="lHYMxXaq1XfdecDBcLf--5" target="lHYMxXaq1XfdecDBcLf--6">
          <mxGeometry relative="1" as="geometry">
            <Array as="points">
              <mxPoint x="1210" y="620" />
              <mxPoint x="1210" y="490" />
            </Array>
          </mxGeometry>
        </mxCell>
        <mxCell id="lHYMxXaq1XfdecDBcLf--7" value="Netflix-Clone-Pod2" style="shape=image;verticalLabelPosition=middle;verticalAlign=middle;imageAspect=0;aspect=fixed;image=data:image/svg+xml,PHN2ZyB4bWxuczpkYz0iaHR0cDovL3B1cmwub3JnL2RjL2VsZW1lbnRzLzEuMS8iIHhtbG5zOmNjPSJodHRwOi8vY3JlYXRpdmVjb21tb25zLm9yZy9ucyMiIHhtbG5zOnJkZj0iaHR0cDovL3d3dy53My5vcmcvMTk5OS8wMi8yMi1yZGYtc3ludGF4LW5zIyIgeG1sbnM6c3ZnPSJodHRwOi8vd3d3LnczLm9yZy8yMDAwL3N2ZyIgeG1sbnM9Imh0dHA6Ly93d3cudzMub3JnLzIwMDAvc3ZnIiB4bWxuczpzb2RpcG9kaT0iaHR0cDovL3NvZGlwb2RpLnNvdXJjZWZvcmdlLm5ldC9EVEQvc29kaXBvZGktMC5kdGQiIHhtbG5zOmlua3NjYXBlPSJodHRwOi8vd3d3Lmlua3NjYXBlLm9yZy9uYW1lc3BhY2VzL2lua3NjYXBlIiB3aWR0aD0iMTguMDM1MzM0bW0iIGhlaWdodD0iMTcuNTAwMzc4bW0iIHZpZXdCb3g9IjAgMCAxOC4wMzUzMzQgMTcuNTAwMzc4IiB2ZXJzaW9uPSIxLjEiIGlkPSJzdmcxMzgyNiIgaW5rc2NhcGU6dmVyc2lvbj0iMC45MSByMTM3MjUiIHNvZGlwb2RpOmRvY25hbWU9InBvZC5zdmciPiYjeGE7ICA8ZGVmcyBpZD0iZGVmczEzODIwIi8+JiN4YTsgIDxzb2RpcG9kaTpuYW1lZHZpZXcgaWQ9ImJhc2UiIHBhZ2Vjb2xvcj0iI2ZmZmZmZiIgYm9yZGVyY29sb3I9IiM2NjY2NjYiIGJvcmRlcm9wYWNpdHk9IjEuMCIgaW5rc2NhcGU6cGFnZW9wYWNpdHk9IjAuMCIgaW5rc2NhcGU6cGFnZXNoYWRvdz0iMiIgaW5rc2NhcGU6em9vbT0iOCIgaW5rc2NhcGU6Y3g9IjE2Ljg0NzQ5NiIgaW5rc2NhcGU6Y3k9IjMzLjc1MjIzOSIgaW5rc2NhcGU6ZG9jdW1lbnQtdW5pdHM9Im1tIiBpbmtzY2FwZTpjdXJyZW50LWxheWVyPSJsYXllcjEiIHNob3dncmlkPSJmYWxzZSIgaW5rc2NhcGU6d2luZG93LXdpZHRoPSIxNDQwIiBpbmtzY2FwZTp3aW5kb3ctaGVpZ2h0PSI3NzUiIGlua3NjYXBlOndpbmRvdy14PSIwIiBpbmtzY2FwZTp3aW5kb3cteT0iMSIgaW5rc2NhcGU6d2luZG93LW1heGltaXplZD0iMSIgZml0LW1hcmdpbi10b3A9IjAiIGZpdC1tYXJnaW4tbGVmdD0iMCIgZml0LW1hcmdpbi1yaWdodD0iMCIgZml0LW1hcmdpbi1ib3R0b209IjAiLz4mI3hhOyAgPG1ldGFkYXRhIGlkPSJtZXRhZGF0YTEzODIzIj4mI3hhOyAgICA8cmRmOlJERj4mI3hhOyAgICAgIDxjYzpXb3JrIHJkZjphYm91dD0iIj4mI3hhOyAgICAgICAgPGRjOmZvcm1hdD5pbWFnZS9zdmcreG1sPC9kYzpmb3JtYXQ+JiN4YTsgICAgICAgIDxkYzp0eXBlIHJkZjpyZXNvdXJjZT0iaHR0cDovL3B1cmwub3JnL2RjL2RjbWl0eXBlL1N0aWxsSW1hZ2UiLz4mI3hhOyAgICAgICAgPGRjOnRpdGxlLz4mI3hhOyAgICAgIDwvY2M6V29yaz4mI3hhOyAgICA8L3JkZjpSREY+JiN4YTsgIDwvbWV0YWRhdGE+JiN4YTsgIDxnIGlua3NjYXBlOmxhYmVsPSJDYWxxdWUgMSIgaW5rc2NhcGU6Z3JvdXBtb2RlPSJsYXllciIgaWQ9ImxheWVyMSIgdHJhbnNmb3JtPSJ0cmFuc2xhdGUoLTAuOTkyNjI2MzgsLTEuMTc0MTgxKSI+JiN4YTsgICAgPGcgaWQ9Imc3MCIgdHJhbnNmb3JtPSJtYXRyaXgoMS4wMTQ4ODg3LDAsMCwxLjAxNDg4ODcsMTYuOTAyMTQ2LC0yLjY5ODcyNikiPiYjeGE7ICAgICAgPHBhdGggaW5rc2NhcGU6ZXhwb3J0LXlkcGk9IjI1MC41NSIgaW5rc2NhcGU6ZXhwb3J0LXhkcGk9IjI1MC41NSIgaW5rc2NhcGU6ZXhwb3J0LWZpbGVuYW1lPSJuZXcucG5nIiBpbmtzY2FwZTpjb25uZWN0b3ItY3VydmF0dXJlPSIwIiBpZD0icGF0aDMwNTUiIGQ9Im0gLTYuODQ5MjAxNSw0LjI3MjQ2NjggYSAxLjExOTEyNTUsMS4xMDk5NjcxIDAgMCAwIC0wLjQyODg4MTgsMC4xMDg1MzAzIGwgLTUuODUyNDAzNywyLjc5NjMzOTQgYSAxLjExOTEyNTUsMS4xMDk5NjcxIDAgMCAwIC0wLjYwNTUyNCwwLjc1Mjk3NTkgbCAtMS40NDM4MjgsNi4yODEyODQ2IGEgMS4xMTkxMjU1LDEuMTA5OTY3MSAwIDAgMCAwLjE1MTk0MywwLjg1MTAyOCAxLjExOTEyNTUsMS4xMDk5NjcxIDAgMCAwIDAuMDYzNjIsMC4wODgzMiBsIDQuMDUwOCw1LjAzNjU1NSBhIDEuMTE5MTI1NSwxLjEwOTk2NzEgMCAwIDAgMC44NzQ5NzksMC40MTc2NTQgbCA2LjQ5NjEwMTEsLTAuMDAxNSBhIDEuMTE5MTI1NSwxLjEwOTk2NzEgMCAwIDAgMC44NzQ5Nzg4LC0wLjQxNjkwNiBMIDEuMzgxODg3MiwxNS4xNDk0NTMgQSAxLjExOTEyNTUsMS4xMDk5NjcxIDAgMCAwIDEuNTk4MTk4NiwxNC4yMTAxMDQgTCAwLjE1MjEyNjU3LDcuOTI4ODE1NCBBIDEuMTE5MTI1NSwxLjEwOTk2NzEgMCAwIDAgLTAuNDUzMzk3OTQsNy4xNzU4Mzk2IEwgLTYuMzA2NTQ5Niw0LjM4MDk5NzEgQSAxLjExOTEyNTUsMS4xMDk5NjcxIDAgMCAwIC02Ljg0OTIwMTUsNC4yNzI0NjY4IFoiIHN0eWxlPSJmaWxsOiMzMjZjZTU7ZmlsbC1vcGFjaXR5OjE7c3Ryb2tlOm5vbmU7c3Ryb2tlLXdpZHRoOjA7c3Ryb2tlLW1pdGVybGltaXQ6NDtzdHJva2UtZGFzaGFycmF5Om5vbmU7c3Ryb2tlLW9wYWNpdHk6MSIvPiYjeGE7ICAgICAgPHBhdGggaWQ9InBhdGgzMDU0LTItOSIgZD0iTSAtNi44NTIzNDM1LDMuODE3NjM3MiBBIDEuMTgxNDMwNCwxLjE3MTc2MiAwIDAgMCAtNy4zMDQ0Mjg0LDMuOTMyOTA0IGwgLTYuMTc4NzQyNiwyLjk1MTI3NTggYSAxLjE4MTQzMDQsMS4xNzE3NjIgMCAwIDAgLTAuNjM5MjA2LDAuNzk0ODkxIGwgLTEuNTIzOTE1LDYuNjMwODI4MiBhIDEuMTgxNDMwNCwxLjE3MTc2MiAwIDAgMCAwLjE2MDE3NSwwLjg5ODkzIDEuMTgxNDMwNCwxLjE3MTc2MiAwIDAgMCAwLjA2NzM2LDAuMDkyODEgbCA0LjI3NjA5NCw1LjMxNzIzNiBhIDEuMTgxNDMwNCwxLjE3MTc2MiAwIDAgMCAwLjkyMzYzLDAuNDQwODU4IGwgNi44NTc2MTg4LC0wLjAwMTUgYSAxLjE4MTQzMDQsMS4xNzE3NjIgMCAwIDAgMC45MjM2MzA4LC0wLjQ0MDExIGwgNC4yNzQ1OTY2LC01LjMxNzk4NSBhIDEuMTgxNDMwNCwxLjE3MTc2MiAwIDAgMCAwLjIyODI4OCwtMC45OTA5OTMgTCAwLjUzODk0NDM5LDcuNjc3NTczOCBBIDEuMTgxNDMwNCwxLjE3MTc2MiAwIDAgMCAtMC4xMDAyNjEwMSw2Ljg4MzQzMTMgTCAtNi4yNzkwMDM3LDMuOTMyMTU1NSBBIDEuMTgxNDMwNCwxLjE3MTc2MiAwIDAgMCAtNi44NTIzNDM1LDMuODE3NjM3MiBaIG0gMC4wMDI5OSwwLjQ1NTA3ODkgYSAxLjExOTEyNTUsMS4xMDk5NjcxIDAgMCAxIDAuNTQyNjUxNywwLjEwODUzMDMgbCA1Ljg1MzE1MTY5LDIuNzk0ODQyNSBBIDEuMTE5MTI1NSwxLjEwOTk2NzEgMCAwIDEgMC4xNTE5NzgxMSw3LjkyOTA2NDggTCAxLjU5ODA1MSwxNC4yMTAzNSBhIDEuMTE5MTI1NSwxLjEwOTk2NzEgMCAwIDEgLTAuMjE2MzEyMywwLjkzOTM0OCBsIC00LjA0OTMwMzIsNS4wMzczMDQgYSAxLjExOTEyNTUsMS4xMDk5NjcxIDAgMCAxIC0wLjg3NDk3ODksMC40MTY5MDYgbCAtNi40OTYxMDA2LDAuMDAxNSBhIDEuMTE5MTI1NSwxLjEwOTk2NzEgMCAwIDEgLTAuODc0OTc5LC0wLjQxNzY1MiBsIC00LjA1MDgsLTUuMDM2NTU0IGEgMS4xMTkxMjU1LDEuMTA5OTY3MSAwIDAgMSAtMC4wNjM2MiwtMC4wODgzMiAxLjExOTEyNTUsMS4xMDk5NjcxIDAgMCAxIC0wLjE1MTk0MiwtMC44NTEwMjggbCAxLjQ0MzgyNywtNi4yODEyODUzIGEgMS4xMTkxMjU1LDEuMTA5OTY3MSAwIDAgMSAwLjYwNTUyNCwtMC43NTI5NzU4IGwgNS44NTI0MDM2LC0yLjc5NjMzOTUgYSAxLjExOTEyNTUsMS4xMDk5NjcxIDAgMCAxIDAuNDI4ODgxOSwtMC4xMDg1MzAzIHoiIHN0eWxlPSJjb2xvcjojMDAwMDAwO2ZvbnQtc3R5bGU6bm9ybWFsO2ZvbnQtdmFyaWFudDpub3JtYWw7Zm9udC13ZWlnaHQ6bm9ybWFsO2ZvbnQtc3RyZXRjaDpub3JtYWw7Zm9udC1zaXplOm1lZGl1bTtsaW5lLWhlaWdodDpub3JtYWw7Zm9udC1mYW1pbHk6U2FuczstaW5rc2NhcGUtZm9udC1zcGVjaWZpY2F0aW9uOlNhbnM7dGV4dC1pbmRlbnQ6MDt0ZXh0LWFsaWduOnN0YXJ0O3RleHQtZGVjb3JhdGlvbjpub25lO3RleHQtZGVjb3JhdGlvbi1saW5lOm5vbmU7bGV0dGVyLXNwYWNpbmc6bm9ybWFsO3dvcmQtc3BhY2luZzpub3JtYWw7dGV4dC10cmFuc2Zvcm06bm9uZTt3cml0aW5nLW1vZGU6bHItdGI7ZGlyZWN0aW9uOmx0cjtiYXNlbGluZS1zaGlmdDpiYXNlbGluZTt0ZXh0LWFuY2hvcjpzdGFydDtkaXNwbGF5OmlubGluZTtvdmVyZmxvdzp2aXNpYmxlO3Zpc2liaWxpdHk6dmlzaWJsZTtmaWxsOiNmZmZmZmY7ZmlsbC1vcGFjaXR5OjE7ZmlsbC1ydWxlOm5vbnplcm87c3Ryb2tlOm5vbmU7c3Ryb2tlLXdpZHRoOjA7c3Ryb2tlLW1pdGVybGltaXQ6NDtzdHJva2UtZGFzaGFycmF5Om5vbmU7bWFya2VyOm5vbmU7ZW5hYmxlLWJhY2tncm91bmQ6YWNjdW11bGF0ZSIgaW5rc2NhcGU6Y29ubmVjdG9yLWN1cnZhdHVyZT0iMCIvPiYjeGE7ICAgIDwvZz4mI3hhOyAgICA8dGV4dCBpZD0idGV4dDIwNjYiIHk9IjE2LjgxMTc3NSIgeD0iMTAuMDE3MTgzIiBzdHlsZT0iZm9udC1zdHlsZTpub3JtYWw7Zm9udC13ZWlnaHQ6bm9ybWFsO2ZvbnQtc2l6ZToxMC41ODMzMzMwMnB4O2xpbmUtaGVpZ2h0OjYuNjE0NTgzNDlweDtmb250LWZhbWlseTpTYW5zO2xldHRlci1zcGFjaW5nOjBweDt3b3JkLXNwYWNpbmc6MHB4O2ZpbGw6I2ZmZmZmZjtmaWxsLW9wYWNpdHk6MTtzdHJva2U6bm9uZTtzdHJva2Utd2lkdGg6MC4yNjQ1ODMzMnB4O3N0cm9rZS1saW5lY2FwOmJ1dHQ7c3Ryb2tlLWxpbmVqb2luOm1pdGVyO3N0cm9rZS1vcGFjaXR5OjEiIHhtbDpzcGFjZT0icHJlc2VydmUiPjx0c3BhbiBzdHlsZT0iZm9udC1zdHlsZTpub3JtYWw7Zm9udC12YXJpYW50Om5vcm1hbDtmb250LXdlaWdodDpub3JtYWw7Zm9udC1zdHJldGNoOm5vcm1hbDtmb250LXNpemU6Mi44MjIyMjIyM3B4O2ZvbnQtZmFtaWx5OkFyaWFsOy1pbmtzY2FwZS1mb250LXNwZWNpZmljYXRpb246J0FyaWFsLCBOb3JtYWwnO3RleHQtYWxpZ246Y2VudGVyO3dyaXRpbmctbW9kZTpsci10Yjt0ZXh0LWFuY2hvcjptaWRkbGU7ZmlsbDojZmZmZmZmO2ZpbGwtb3BhY2l0eToxO3N0cm9rZS13aWR0aDowLjI2NDU4MzMycHgiIHk9IjE2LjgxMTc3NSIgeD0iMTAuMDE3MTgzIiBpZD0idHNwYW4yMDY0IiBzb2RpcG9kaTpyb2xlPSJsaW5lIj5wb2Q8L3RzcGFuPjwvdGV4dD4mI3hhOyAgICA8ZyBpZD0iZzMzNDEiIHRyYW5zZm9ybT0idHJhbnNsYXRlKDAuMTI3NjY2NjEsMCkiPiYjeGE7ICAgICAgPHBhdGggaW5rc2NhcGU6ZXhwb3J0LXlkcGk9IjM3Ni41Nzk5OSIgaW5rc2NhcGU6ZXhwb3J0LXhkcGk9IjM3Ni41Nzk5OSIgc3R5bGU9ImZpbGw6I2ZmZmZmZjtmaWxsLXJ1bGU6ZXZlbm9kZDtzdHJva2U6bm9uZTtzdHJva2Utd2lkdGg6MC4yNjQ1ODMzMjtzdHJva2UtbGluZWNhcDpzcXVhcmU7c3Ryb2tlLW1pdGVybGltaXQ6MTAiIGlua3NjYXBlOmNvbm5lY3Rvci1jdXJ2YXR1cmU9IjAiIGQ9Ik0gNi4yNjE3OTE0LDcuMDM2MDg2IDkuODgyNjMxNyw1Ljk4NjA4NyAxMy41MDM0NjIsNy4wMzYwODYgOS44ODI2MzE3LDguMDg2MDg3IFoiIGlkPSJwYXRoOTEwIi8+JiN4YTsgICAgICA8cGF0aCBpbmtzY2FwZTpleHBvcnQteWRwaT0iMzc2LjU3OTk5IiBpbmtzY2FwZTpleHBvcnQteGRwaT0iMzc2LjU3OTk5IiBzdHlsZT0iZmlsbDojZmZmZmZmO2ZpbGwtcnVsZTpldmVub2RkO3N0cm9rZTpub25lO3N0cm9rZS13aWR0aDowLjI2NDU4MzMyO3N0cm9rZS1saW5lY2FwOnNxdWFyZTtzdHJva2UtbWl0ZXJsaW1pdDoxMCIgaW5rc2NhcGU6Y29ubmVjdG9yLWN1cnZhdHVyZT0iMCIgZD0ibSA2LjI2MTc5MTQsNy40MzgxNyAwLDMuODUyNzc4IDMuMzczNjEwMywxLjg2ODc0OSAwLjAxNjcsLTQuNzEzMTkzIHoiIGlkPSJwYXRoOTEyIi8+JiN4YTsgICAgICA8cGF0aCBpbmtzY2FwZTpleHBvcnQteWRwaT0iMzc2LjU3OTk5IiBpbmtzY2FwZTpleHBvcnQteGRwaT0iMzc2LjU3OTk5IiBzdHlsZT0iZmlsbDojZmZmZmZmO2ZpbGwtcnVsZTpldmVub2RkO3N0cm9rZTpub25lO3N0cm9rZS13aWR0aDowLjI2NDU4MzMyO3N0cm9rZS1saW5lY2FwOnNxdWFyZTtzdHJva2UtbWl0ZXJsaW1pdDoxMCIgaW5rc2NhcGU6Y29ubmVjdG9yLWN1cnZhdHVyZT0iMCIgZD0ibSAxMy41MDM0NjIsNy40MzgxNyAwLDMuODUyNzc4IC0zLjM3MzYxLDEuODY4NzQ5IC0wLjAxNjcsLTQuNzEzMTkzIHoiIGlkPSJwYXRoOTE0Ii8+JiN4YTsgICAgPC9nPiYjeGE7ICA8L2c+JiN4YTs8L3N2Zz4=;fontSize=15;labelPosition=right;align=left;" vertex="1" parent="1">
          <mxGeometry x="1320" y="580" width="80" height="80" as="geometry" />
        </mxCell>
        <mxCell id="lHYMxXaq1XfdecDBcLf--22" style="edgeStyle=orthogonalEdgeStyle;rounded=0;orthogonalLoop=1;jettySize=auto;html=1;strokeWidth=4;" edge="1" parent="1" source="lHYMxXaq1XfdecDBcLf--5" target="lHYMxXaq1XfdecDBcLf--7">
          <mxGeometry relative="1" as="geometry" />
        </mxCell>
        <mxCell id="lHYMxXaq1XfdecDBcLf--33" style="edgeStyle=orthogonalEdgeStyle;rounded=0;orthogonalLoop=1;jettySize=auto;html=1;strokeWidth=4;" edge="1" parent="1" source="lHYMxXaq1XfdecDBcLf--8" target="lHYMxXaq1XfdecDBcLf--9">
          <mxGeometry relative="1" as="geometry" />
        </mxCell>
        <mxCell id="lHYMxXaq1XfdecDBcLf--8" value="Netflix-Clone-Pod3" style="shape=image;verticalLabelPosition=middle;verticalAlign=middle;imageAspect=0;aspect=fixed;image=data:image/svg+xml,PHN2ZyB4bWxuczpkYz0iaHR0cDovL3B1cmwub3JnL2RjL2VsZW1lbnRzLzEuMS8iIHhtbG5zOmNjPSJodHRwOi8vY3JlYXRpdmVjb21tb25zLm9yZy9ucyMiIHhtbG5zOnJkZj0iaHR0cDovL3d3dy53My5vcmcvMTk5OS8wMi8yMi1yZGYtc3ludGF4LW5zIyIgeG1sbnM6c3ZnPSJodHRwOi8vd3d3LnczLm9yZy8yMDAwL3N2ZyIgeG1sbnM9Imh0dHA6Ly93d3cudzMub3JnLzIwMDAvc3ZnIiB4bWxuczpzb2RpcG9kaT0iaHR0cDovL3NvZGlwb2RpLnNvdXJjZWZvcmdlLm5ldC9EVEQvc29kaXBvZGktMC5kdGQiIHhtbG5zOmlua3NjYXBlPSJodHRwOi8vd3d3Lmlua3NjYXBlLm9yZy9uYW1lc3BhY2VzL2lua3NjYXBlIiB3aWR0aD0iMTguMDM1MzM0bW0iIGhlaWdodD0iMTcuNTAwMzc4bW0iIHZpZXdCb3g9IjAgMCAxOC4wMzUzMzQgMTcuNTAwMzc4IiB2ZXJzaW9uPSIxLjEiIGlkPSJzdmcxMzgyNiIgaW5rc2NhcGU6dmVyc2lvbj0iMC45MSByMTM3MjUiIHNvZGlwb2RpOmRvY25hbWU9InBvZC5zdmciPiYjeGE7ICA8ZGVmcyBpZD0iZGVmczEzODIwIi8+JiN4YTsgIDxzb2RpcG9kaTpuYW1lZHZpZXcgaWQ9ImJhc2UiIHBhZ2Vjb2xvcj0iI2ZmZmZmZiIgYm9yZGVyY29sb3I9IiM2NjY2NjYiIGJvcmRlcm9wYWNpdHk9IjEuMCIgaW5rc2NhcGU6cGFnZW9wYWNpdHk9IjAuMCIgaW5rc2NhcGU6cGFnZXNoYWRvdz0iMiIgaW5rc2NhcGU6em9vbT0iOCIgaW5rc2NhcGU6Y3g9IjE2Ljg0NzQ5NiIgaW5rc2NhcGU6Y3k9IjMzLjc1MjIzOSIgaW5rc2NhcGU6ZG9jdW1lbnQtdW5pdHM9Im1tIiBpbmtzY2FwZTpjdXJyZW50LWxheWVyPSJsYXllcjEiIHNob3dncmlkPSJmYWxzZSIgaW5rc2NhcGU6d2luZG93LXdpZHRoPSIxNDQwIiBpbmtzY2FwZTp3aW5kb3ctaGVpZ2h0PSI3NzUiIGlua3NjYXBlOndpbmRvdy14PSIwIiBpbmtzY2FwZTp3aW5kb3cteT0iMSIgaW5rc2NhcGU6d2luZG93LW1heGltaXplZD0iMSIgZml0LW1hcmdpbi10b3A9IjAiIGZpdC1tYXJnaW4tbGVmdD0iMCIgZml0LW1hcmdpbi1yaWdodD0iMCIgZml0LW1hcmdpbi1ib3R0b209IjAiLz4mI3hhOyAgPG1ldGFkYXRhIGlkPSJtZXRhZGF0YTEzODIzIj4mI3hhOyAgICA8cmRmOlJERj4mI3hhOyAgICAgIDxjYzpXb3JrIHJkZjphYm91dD0iIj4mI3hhOyAgICAgICAgPGRjOmZvcm1hdD5pbWFnZS9zdmcreG1sPC9kYzpmb3JtYXQ+JiN4YTsgICAgICAgIDxkYzp0eXBlIHJkZjpyZXNvdXJjZT0iaHR0cDovL3B1cmwub3JnL2RjL2RjbWl0eXBlL1N0aWxsSW1hZ2UiLz4mI3hhOyAgICAgICAgPGRjOnRpdGxlLz4mI3hhOyAgICAgIDwvY2M6V29yaz4mI3hhOyAgICA8L3JkZjpSREY+JiN4YTsgIDwvbWV0YWRhdGE+JiN4YTsgIDxnIGlua3NjYXBlOmxhYmVsPSJDYWxxdWUgMSIgaW5rc2NhcGU6Z3JvdXBtb2RlPSJsYXllciIgaWQ9ImxheWVyMSIgdHJhbnNmb3JtPSJ0cmFuc2xhdGUoLTAuOTkyNjI2MzgsLTEuMTc0MTgxKSI+JiN4YTsgICAgPGcgaWQ9Imc3MCIgdHJhbnNmb3JtPSJtYXRyaXgoMS4wMTQ4ODg3LDAsMCwxLjAxNDg4ODcsMTYuOTAyMTQ2LC0yLjY5ODcyNikiPiYjeGE7ICAgICAgPHBhdGggaW5rc2NhcGU6ZXhwb3J0LXlkcGk9IjI1MC41NSIgaW5rc2NhcGU6ZXhwb3J0LXhkcGk9IjI1MC41NSIgaW5rc2NhcGU6ZXhwb3J0LWZpbGVuYW1lPSJuZXcucG5nIiBpbmtzY2FwZTpjb25uZWN0b3ItY3VydmF0dXJlPSIwIiBpZD0icGF0aDMwNTUiIGQ9Im0gLTYuODQ5MjAxNSw0LjI3MjQ2NjggYSAxLjExOTEyNTUsMS4xMDk5NjcxIDAgMCAwIC0wLjQyODg4MTgsMC4xMDg1MzAzIGwgLTUuODUyNDAzNywyLjc5NjMzOTQgYSAxLjExOTEyNTUsMS4xMDk5NjcxIDAgMCAwIC0wLjYwNTUyNCwwLjc1Mjk3NTkgbCAtMS40NDM4MjgsNi4yODEyODQ2IGEgMS4xMTkxMjU1LDEuMTA5OTY3MSAwIDAgMCAwLjE1MTk0MywwLjg1MTAyOCAxLjExOTEyNTUsMS4xMDk5NjcxIDAgMCAwIDAuMDYzNjIsMC4wODgzMiBsIDQuMDUwOCw1LjAzNjU1NSBhIDEuMTE5MTI1NSwxLjEwOTk2NzEgMCAwIDAgMC44NzQ5NzksMC40MTc2NTQgbCA2LjQ5NjEwMTEsLTAuMDAxNSBhIDEuMTE5MTI1NSwxLjEwOTk2NzEgMCAwIDAgMC44NzQ5Nzg4LC0wLjQxNjkwNiBMIDEuMzgxODg3MiwxNS4xNDk0NTMgQSAxLjExOTEyNTUsMS4xMDk5NjcxIDAgMCAwIDEuNTk4MTk4NiwxNC4yMTAxMDQgTCAwLjE1MjEyNjU3LDcuOTI4ODE1NCBBIDEuMTE5MTI1NSwxLjEwOTk2NzEgMCAwIDAgLTAuNDUzMzk3OTQsNy4xNzU4Mzk2IEwgLTYuMzA2NTQ5Niw0LjM4MDk5NzEgQSAxLjExOTEyNTUsMS4xMDk5NjcxIDAgMCAwIC02Ljg0OTIwMTUsNC4yNzI0NjY4IFoiIHN0eWxlPSJmaWxsOiMzMjZjZTU7ZmlsbC1vcGFjaXR5OjE7c3Ryb2tlOm5vbmU7c3Ryb2tlLXdpZHRoOjA7c3Ryb2tlLW1pdGVybGltaXQ6NDtzdHJva2UtZGFzaGFycmF5Om5vbmU7c3Ryb2tlLW9wYWNpdHk6MSIvPiYjeGE7ICAgICAgPHBhdGggaWQ9InBhdGgzMDU0LTItOSIgZD0iTSAtNi44NTIzNDM1LDMuODE3NjM3MiBBIDEuMTgxNDMwNCwxLjE3MTc2MiAwIDAgMCAtNy4zMDQ0Mjg0LDMuOTMyOTA0IGwgLTYuMTc4NzQyNiwyLjk1MTI3NTggYSAxLjE4MTQzMDQsMS4xNzE3NjIgMCAwIDAgLTAuNjM5MjA2LDAuNzk0ODkxIGwgLTEuNTIzOTE1LDYuNjMwODI4MiBhIDEuMTgxNDMwNCwxLjE3MTc2MiAwIDAgMCAwLjE2MDE3NSwwLjg5ODkzIDEuMTgxNDMwNCwxLjE3MTc2MiAwIDAgMCAwLjA2NzM2LDAuMDkyODEgbCA0LjI3NjA5NCw1LjMxNzIzNiBhIDEuMTgxNDMwNCwxLjE3MTc2MiAwIDAgMCAwLjkyMzYzLDAuNDQwODU4IGwgNi44NTc2MTg4LC0wLjAwMTUgYSAxLjE4MTQzMDQsMS4xNzE3NjIgMCAwIDAgMC45MjM2MzA4LC0wLjQ0MDExIGwgNC4yNzQ1OTY2LC01LjMxNzk4NSBhIDEuMTgxNDMwNCwxLjE3MTc2MiAwIDAgMCAwLjIyODI4OCwtMC45OTA5OTMgTCAwLjUzODk0NDM5LDcuNjc3NTczOCBBIDEuMTgxNDMwNCwxLjE3MTc2MiAwIDAgMCAtMC4xMDAyNjEwMSw2Ljg4MzQzMTMgTCAtNi4yNzkwMDM3LDMuOTMyMTU1NSBBIDEuMTgxNDMwNCwxLjE3MTc2MiAwIDAgMCAtNi44NTIzNDM1LDMuODE3NjM3MiBaIG0gMC4wMDI5OSwwLjQ1NTA3ODkgYSAxLjExOTEyNTUsMS4xMDk5NjcxIDAgMCAxIDAuNTQyNjUxNywwLjEwODUzMDMgbCA1Ljg1MzE1MTY5LDIuNzk0ODQyNSBBIDEuMTE5MTI1NSwxLjEwOTk2NzEgMCAwIDEgMC4xNTE5NzgxMSw3LjkyOTA2NDggTCAxLjU5ODA1MSwxNC4yMTAzNSBhIDEuMTE5MTI1NSwxLjEwOTk2NzEgMCAwIDEgLTAuMjE2MzEyMywwLjkzOTM0OCBsIC00LjA0OTMwMzIsNS4wMzczMDQgYSAxLjExOTEyNTUsMS4xMDk5NjcxIDAgMCAxIC0wLjg3NDk3ODksMC40MTY5MDYgbCAtNi40OTYxMDA2LDAuMDAxNSBhIDEuMTE5MTI1NSwxLjEwOTk2NzEgMCAwIDEgLTAuODc0OTc5LC0wLjQxNzY1MiBsIC00LjA1MDgsLTUuMDM2NTU0IGEgMS4xMTkxMjU1LDEuMTA5OTY3MSAwIDAgMSAtMC4wNjM2MiwtMC4wODgzMiAxLjExOTEyNTUsMS4xMDk5NjcxIDAgMCAxIC0wLjE1MTk0MiwtMC44NTEwMjggbCAxLjQ0MzgyNywtNi4yODEyODUzIGEgMS4xMTkxMjU1LDEuMTA5OTY3MSAwIDAgMSAwLjYwNTUyNCwtMC43NTI5NzU4IGwgNS44NTI0MDM2LC0yLjc5NjMzOTUgYSAxLjExOTEyNTUsMS4xMDk5NjcxIDAgMCAxIDAuNDI4ODgxOSwtMC4xMDg1MzAzIHoiIHN0eWxlPSJjb2xvcjojMDAwMDAwO2ZvbnQtc3R5bGU6bm9ybWFsO2ZvbnQtdmFyaWFudDpub3JtYWw7Zm9udC13ZWlnaHQ6bm9ybWFsO2ZvbnQtc3RyZXRjaDpub3JtYWw7Zm9udC1zaXplOm1lZGl1bTtsaW5lLWhlaWdodDpub3JtYWw7Zm9udC1mYW1pbHk6U2FuczstaW5rc2NhcGUtZm9udC1zcGVjaWZpY2F0aW9uOlNhbnM7dGV4dC1pbmRlbnQ6MDt0ZXh0LWFsaWduOnN0YXJ0O3RleHQtZGVjb3JhdGlvbjpub25lO3RleHQtZGVjb3JhdGlvbi1saW5lOm5vbmU7bGV0dGVyLXNwYWNpbmc6bm9ybWFsO3dvcmQtc3BhY2luZzpub3JtYWw7dGV4dC10cmFuc2Zvcm06bm9uZTt3cml0aW5nLW1vZGU6bHItdGI7ZGlyZWN0aW9uOmx0cjtiYXNlbGluZS1zaGlmdDpiYXNlbGluZTt0ZXh0LWFuY2hvcjpzdGFydDtkaXNwbGF5OmlubGluZTtvdmVyZmxvdzp2aXNpYmxlO3Zpc2liaWxpdHk6dmlzaWJsZTtmaWxsOiNmZmZmZmY7ZmlsbC1vcGFjaXR5OjE7ZmlsbC1ydWxlOm5vbnplcm87c3Ryb2tlOm5vbmU7c3Ryb2tlLXdpZHRoOjA7c3Ryb2tlLW1pdGVybGltaXQ6NDtzdHJva2UtZGFzaGFycmF5Om5vbmU7bWFya2VyOm5vbmU7ZW5hYmxlLWJhY2tncm91bmQ6YWNjdW11bGF0ZSIgaW5rc2NhcGU6Y29ubmVjdG9yLWN1cnZhdHVyZT0iMCIvPiYjeGE7ICAgIDwvZz4mI3hhOyAgICA8dGV4dCBpZD0idGV4dDIwNjYiIHk9IjE2LjgxMTc3NSIgeD0iMTAuMDE3MTgzIiBzdHlsZT0iZm9udC1zdHlsZTpub3JtYWw7Zm9udC13ZWlnaHQ6bm9ybWFsO2ZvbnQtc2l6ZToxMC41ODMzMzMwMnB4O2xpbmUtaGVpZ2h0OjYuNjE0NTgzNDlweDtmb250LWZhbWlseTpTYW5zO2xldHRlci1zcGFjaW5nOjBweDt3b3JkLXNwYWNpbmc6MHB4O2ZpbGw6I2ZmZmZmZjtmaWxsLW9wYWNpdHk6MTtzdHJva2U6bm9uZTtzdHJva2Utd2lkdGg6MC4yNjQ1ODMzMnB4O3N0cm9rZS1saW5lY2FwOmJ1dHQ7c3Ryb2tlLWxpbmVqb2luOm1pdGVyO3N0cm9rZS1vcGFjaXR5OjEiIHhtbDpzcGFjZT0icHJlc2VydmUiPjx0c3BhbiBzdHlsZT0iZm9udC1zdHlsZTpub3JtYWw7Zm9udC12YXJpYW50Om5vcm1hbDtmb250LXdlaWdodDpub3JtYWw7Zm9udC1zdHJldGNoOm5vcm1hbDtmb250LXNpemU6Mi44MjIyMjIyM3B4O2ZvbnQtZmFtaWx5OkFyaWFsOy1pbmtzY2FwZS1mb250LXNwZWNpZmljYXRpb246J0FyaWFsLCBOb3JtYWwnO3RleHQtYWxpZ246Y2VudGVyO3dyaXRpbmctbW9kZTpsci10Yjt0ZXh0LWFuY2hvcjptaWRkbGU7ZmlsbDojZmZmZmZmO2ZpbGwtb3BhY2l0eToxO3N0cm9rZS13aWR0aDowLjI2NDU4MzMycHgiIHk9IjE2LjgxMTc3NSIgeD0iMTAuMDE3MTgzIiBpZD0idHNwYW4yMDY0IiBzb2RpcG9kaTpyb2xlPSJsaW5lIj5wb2Q8L3RzcGFuPjwvdGV4dD4mI3hhOyAgICA8ZyBpZD0iZzMzNDEiIHRyYW5zZm9ybT0idHJhbnNsYXRlKDAuMTI3NjY2NjEsMCkiPiYjeGE7ICAgICAgPHBhdGggaW5rc2NhcGU6ZXhwb3J0LXlkcGk9IjM3Ni41Nzk5OSIgaW5rc2NhcGU6ZXhwb3J0LXhkcGk9IjM3Ni41Nzk5OSIgc3R5bGU9ImZpbGw6I2ZmZmZmZjtmaWxsLXJ1bGU6ZXZlbm9kZDtzdHJva2U6bm9uZTtzdHJva2Utd2lkdGg6MC4yNjQ1ODMzMjtzdHJva2UtbGluZWNhcDpzcXVhcmU7c3Ryb2tlLW1pdGVybGltaXQ6MTAiIGlua3NjYXBlOmNvbm5lY3Rvci1jdXJ2YXR1cmU9IjAiIGQ9Ik0gNi4yNjE3OTE0LDcuMDM2MDg2IDkuODgyNjMxNyw1Ljk4NjA4NyAxMy41MDM0NjIsNy4wMzYwODYgOS44ODI2MzE3LDguMDg2MDg3IFoiIGlkPSJwYXRoOTEwIi8+JiN4YTsgICAgICA8cGF0aCBpbmtzY2FwZTpleHBvcnQteWRwaT0iMzc2LjU3OTk5IiBpbmtzY2FwZTpleHBvcnQteGRwaT0iMzc2LjU3OTk5IiBzdHlsZT0iZmlsbDojZmZmZmZmO2ZpbGwtcnVsZTpldmVub2RkO3N0cm9rZTpub25lO3N0cm9rZS13aWR0aDowLjI2NDU4MzMyO3N0cm9rZS1saW5lY2FwOnNxdWFyZTtzdHJva2UtbWl0ZXJsaW1pdDoxMCIgaW5rc2NhcGU6Y29ubmVjdG9yLWN1cnZhdHVyZT0iMCIgZD0ibSA2LjI2MTc5MTQsNy40MzgxNyAwLDMuODUyNzc4IDMuMzczNjEwMywxLjg2ODc0OSAwLjAxNjcsLTQuNzEzMTkzIHoiIGlkPSJwYXRoOTEyIi8+JiN4YTsgICAgICA8cGF0aCBpbmtzY2FwZTpleHBvcnQteWRwaT0iMzc2LjU3OTk5IiBpbmtzY2FwZTpleHBvcnQteGRwaT0iMzc2LjU3OTk5IiBzdHlsZT0iZmlsbDojZmZmZmZmO2ZpbGwtcnVsZTpldmVub2RkO3N0cm9rZTpub25lO3N0cm9rZS13aWR0aDowLjI2NDU4MzMyO3N0cm9rZS1saW5lY2FwOnNxdWFyZTtzdHJva2UtbWl0ZXJsaW1pdDoxMCIgaW5rc2NhcGU6Y29ubmVjdG9yLWN1cnZhdHVyZT0iMCIgZD0ibSAxMy41MDM0NjIsNy40MzgxNyAwLDMuODUyNzc4IC0zLjM3MzYxLDEuODY4NzQ5IC0wLjAxNjcsLTQuNzEzMTkzIHoiIGlkPSJwYXRoOTE0Ii8+JiN4YTsgICAgPC9nPiYjeGE7ICA8L2c+JiN4YTs8L3N2Zz4=;fontSize=15;labelPosition=right;align=left;" vertex="1" parent="1">
          <mxGeometry x="1320" y="720" width="80" height="80" as="geometry" />
        </mxCell>
        <mxCell id="lHYMxXaq1XfdecDBcLf--24" style="edgeStyle=orthogonalEdgeStyle;rounded=0;orthogonalLoop=1;jettySize=auto;html=1;entryX=0;entryY=0.5;entryDx=0;entryDy=0;strokeWidth=4;" edge="1" parent="1" source="lHYMxXaq1XfdecDBcLf--5" target="lHYMxXaq1XfdecDBcLf--8">
          <mxGeometry relative="1" as="geometry">
            <Array as="points">
              <mxPoint x="1210" y="620" />
              <mxPoint x="1210" y="760" />
            </Array>
          </mxGeometry>
        </mxCell>
        <mxCell id="lHYMxXaq1XfdecDBcLf--20" value="Kubernetes Cluster" style="shape=image;verticalLabelPosition=bottom;verticalAlign=top;imageAspect=0;aspect=fixed;image=data:image/png,iVBORw0KGgoAAAANSUhEUgAABB8AAAQACAYAAACpuPHmAAAABGdBTUEAALGPC/xhBQAAACBjSFJNAAB6JgAAgIQAAPoAAACA6AAAdTAAAOpgAAA6mAAAF3CculE8AAAABmJLR0QA/wD/AP+gvaeTAACAAElEQVR42uzdd5RdVf3+8WefW6fX1ElPCOllJoUUOioaQEFQEBWlBJLMJDQBQSWiqCjSQgIEkKIiyNdKEVT4ARpKSCFACCGEkDKTSZnebzn790dQQSmZfu8979daruUSTO59zr7n7P05u0gAAAAAAAAAAAAAAAAAAAAAAAAAAAAAAAAAAAAAAAAAAAAAAAAAAAAAAAAAAAAAAAAAAAAAAAAAAAAAAAAAAAAAAAAAAAAAAAAAAAAAAAAAAAAAAAAAgP8wRAAAAP7bjEW7Cly/KYxZFThxm2+M0qyVkXFy//Nv2Toj0+Ya2+i4bkMsrl15/QfteWapiZEgAAB4P4oPAAB41FHf2Bauzw6Nl3UnWteZYIzGGNlhVhouKb2Df6wrqdLK7HKkN63sRmPsxqj1v/Hqrf23kToAAN5E8QEAAI+YddHO/Nao72hj3LmyzixJxZIN9OBH2CvpeWPsP620KrugaA2zJAAA8AaKDwAApLCpZbsmG2u+IOl4SdMl+RLo49UY6QnX6JFYLPbEa7cNreGKAQCQmig+AACQYkpKK8bI6kwZ+yUrjU6Sjx2T7N+sMb8M+90/vnDj4BauJAAAqYPiAwAAKWDSpZUZ/rbYadaac400J8m/Tr2s/s+1zu2vrBjwMlcXAIDkR/EBAIAkNnPJnn7ReGyBpFJJBSn4FddaY2/JKSh6gP0hAABIXhQfAABIQpMX7Rrtk7lcRl+VFEz5L2z1rhz9POR372ZJBgAAyYfiAwAASaSkdOdEa8y3ZM1XlFibR/aUfZJWuP7ITa/cNLyWFgEAQHKg+AAAQBKYVlo+x5WukDSP57ckqwYr3eMEoj9Ze9Ow3bQQAAASG50XAAASWMnCirnWsZdLOoE0PlSTtbrbb3X9yyuKdhIHAACJieIDAAAJx5risooTZM1Vkp1JHgclImMfchxz7ZqbizYTBwAAiYXiAwAAiWKpdUr2l3/RyiyVNI5AOsSV9Lgcs3TdLQPXEgcAAImB4gMAAL1s/NKNwWBVzunGmu9IOoREuszfrbXfW7980AtEAQBA76L4AABALxm/cG9m2ImdY2W/JamIRLqHlVYZo+vWLSt6hDQAAOgdFB8AAOhhM8uqsiNu6wJj9C1JBSTSY52eV1xjbxxVWfTrhx82cRIBAKBHn8MAAKAnTLqgsq/fH18omQslm0Mivdb52ega+9OcgqIHnllqYiQCAECPPH8BAEB3mrqoYqhkLzZG50lKI5EEYfWuMeamYCC+8oUbB7cQCAAA3YfiAwAA3aSkbMdIa53LJOebkg2QSMLaK+k2E2m9ce3KkXXEAQBA16P4AABAF5tatmuykS6RNV+R5CORpFEl6dZQwL3lhRsHVxMHAABdh+IDAABdpGRhxVzr2MslzeMZm9QardUv3Lj70w23Dy4nDgAAOo+OEQAAnVSysGKu9dmlsjqWNFJKRMY+5Br7g1duGbyFOAAA6DiKDwAAdMRS6xRXVcyT7HdlzXQCSenuUlTGfVBx58frVgzcRB4AAHTgaUoEAAAcvJL5awJuqP8ZxporJI0lEU9xJT3uGPcHa5YNXk0cAAAcPIoPAAAchFFlW0JZSvuysea7kkaRiLdZaZUxum7dsqJHSAMAgE9G8QEAgI8xfuHezLATO8fKXiZpIIng/f5ThBj4qGQsiQAA8OEoPgAA8CFK5lcU2qAttVKZkfJJBJ/Qo3rVyv58VGXRrx9+2MQJBACA/35UAgCAf5u5ZE+/aDy2QNJFkrJJBO1j3zFybqkzTbe/veyQNvIAAOAAig8AAEiacuHuYSbqXmSM5ksKkwg6aYeRuUER3bl25cBm4gAAeB3FBwCAp01bXDnBtbHLZM0Zkvwkgi62T9IK1x+56ZWbhtcSBwDAqyg+AAA8acrCXVMcny6WNWdKckgE3cqqwUr3+G3gxy+v6FtJIAAAr6H4AADwlJKFFXOtYy+XdAJpoBc0Wau744792avLBu0iDgCAV1B8AAB4wtSy8uOM1TWSZpEGEkBExj7kOObaNTcXbSYOAECqo/gAAEhdS61TXFUxT1ZXSyohECQgV9LjcszSdbcMXEscAIBURfEBAJByxi/dGAxW5ZxuXHOljA4lESSJv1trv7d++aAXiAIAkGooPgAAUsaosi2hbJtxlmS/I2kwiSAZWWmVMbpu3bKiR0gDAJAqKD4AAJLenMv2ZbU2R8+20uWSHUAiSBHrrbE3rS8o+pWWGpc4AADJjOIDACBpTS3b3cdYd5GkxZLySASpyb5ujX6WU1D0wDNLTYw8AADJiOIDACDplCypGOLG7CXG6FxJ6SQCT7B61xhzU1Zj2x3P3Du8lUAAAMmE4gMAIGlMX7BnRMyJLTFG8yWFSQReZKU9RrrdRFpvXLtyZB2JAACSAcUHAEDCKyndOdEa8y1Zc4YkP4kAkqQqSbeGAu4tL9w4uJo4AACJjOIDACBhTVlcPttx9W1J83hmAR+p0Vr9QiZ+3fpbh1QQBwAgEdGRAwAknJKFFXOtYy+XdAJpAAetTcb+VnF7zboVg98mDgBAIqH4AABIENYUl1WcIGuukuxM8gA63L2LyrgPKu78eN2KgZvIAwCQEE8nIgAA9Kql1inZX/5FK7NU0jgCAbqMK+lxx7g/WLNs8GriAAD0JooPAIBeMX7pxmCwKud0x5qrrDSaRIDuY6VVxui6dcuKHiENAEBvoPgAAOhRky6tzAi0uuda2W9JKiIRoOf8pwgx8FHJWBIBAPQUig8AgB4xs6wqO+K2LjBG35JUQCJAr/YAX7WyPx9VWfTrhx82cQIBAHT/owcAgG406YLKvn5/fKGkJZJySQRIqK7gViMtqzNNt7+97JA28gAAdNsThwgAAN1h6qKKoZK92BidJymNRICEtsPI3KCI7ly7cmAzcQAAuhrFBwBAlyop2zHSWucyyfmmZAMkAiSVfZJWuP7ITa/cNLyWOAAAXYXiAwCgS0wt2zXZSJfImq9I8pEIkMSsGqx0j98Gfvzyir6VBAIA6CyKDwCATilZWDHXOvZySfN4rgApp8la3R137M9eXTZoF3EAADqKTiIAoENKFlbMtT67VFbHkgaQ8iIy9iHHMdeuubloM3EAANqL4gMA4OAttU5xVcU8yX5X1kwnEMBzXEmPyzFL190ycC1xAAAOFsUHAMAnKpm/JuCG+p9hrLlC0lgSATzPSnpMxl67btmgF4kDAPBJKD4AAD7SqLItoSylfdlY811Jo0gEwH+z0ipjdN26ZUWPkAYA4KNQfAAA/I/xC/dmhp3YOVb2MkkDSQTAQVhvjb1pfUHRr7TUuMQBAHg/ig8AgH8rmV9RaIO21EplRsonEQDtZ1+3Rj/LKSh64JmlJkYeAACJ4gMAQNLMJXv6ReOxBZIukpRNIgC6oJO5TTI3ZzW23fHMvcNbSQQAPP9cAAB41ZQLdw8zUfciYzRfUphEAHQ1K+0x0u0BE77hpWUF9SQCAN5E8QEAPGjyot3jfU78cllzhiQ/iQDogV7nflktDwXcW164cXA1gQCA1x4DAADPmLJw1xTHp4tlzVck+UgEQC9otFa/kIlft/7WIRXEAQDeQPEBADygZGHFXOvYyyWdQBoAEkSbjP2t4vaadSsGv00cAJDaKD4AQAqbWlZ+nLG6RtIs0gCQoN3RqIz7oOLOj9etGLiJPAAgRe/2RAAAKWapdYqrKubJ6nuSphEIgCThSnrcdZ1rXlkx4GXiAIDUQvEBAFJEyfw1ATfU/wzjmitldCiJAEhWVlola69ev3zQU6QBAKmB4gMAJLlRZVtC2TbjLMl+R9JgEgGQKqy0yhhdt27ZwEclY0kEAJIXxQcASFJzLtuX1docPdtKl0t2AIkASOEe66tW9uejKot+/fDDJk4gAJCMt3IAQFIpmV9RaIO2VNJiSXkkAsBDXdetRlpWZ5puf3vZIW3kAQBJdAcnAgBIDtMX7u3v+qIXWqsySekkAsDDthuZGxXRnWtXDmwmDgBIfBQfACDBTV+wZ0TMiS0xRvMlhUkEAP5tn6QVrj9y0ys3Da8lDgBIXBQfACBBlZTunGiN+ZasOUOSn0QA4CPVW6t7/Tbw45dX9K0kDgBIPBQfACDBlCyqKLZGV0j2VO7TANAuTdbq7rhjf/bqskG7iAMAEgedWgBIECULK+Zax14u6QTSAIBOicjYh+Kufrhh+aC3iAMAeh/FBwDoVdYUl1WcIGuukuxM8gCALuVKetxYc/Xa5QPXEQcA9B6KDwDQG5Zap7iqYp6slkoqJhAA6FZW0mMy9tp1ywa9SBwA0PMoPgBADxq/dGMwWJVzumPNVVYaTSIA0LOstMoYXbduWdEjpAEAPYfiAwD0gEmXVmYEWt1zJXuplQaRCAD0uvVG9sdrby36P8lY4gCA7kXxAQC60cyyquyI27rAGH1LUgGJAECisa9bo5/lFBQ98MxSEyMPAOgeFB8AoBtMuqCyr98fXyhpiaRcEgGAhO8Ub5PMzVmNbXc8c+/wVhIBgC6/zwIAusrURRVDJXuxMTpPUhqJAEBysdIeI90eMOEbXlpWUE8iANA1KD4AQBcoKdsx0lrnMsn5pmQDJAIASd9L3i+r5aGAe8sLNw6uJhAA6OxtFQDQYVPLdk020iWy5iuSfCQCACmn0Vr9QiZ+3fpbh1QQBwB0DMUHAOiAkoUVc61jL5c0j3spAHhCm4z9reL2mnUrBr9NHADQPnSYAaAdShZWzLU+u1RWx5IGAHiy+xyVcR9U3PnxuhUDN5EHABzk3ZMIAOATLLVOcVXFPMl+V9ZMJxAAgCRX0uOu61zzyooBLxMHAHw8ig8A8BFK5q8JuKH+ZxhrrpA0lkQAAB/GSqtk7dXrlw96ijQA4MNRfACA/zKqbEsoS2lfNtZ8V9IoEgEAHAwrrTJG161bNvBRyVgSAYD/oPgAAO8Zv3BvZtiJnWNlL5M0kEQAAB20wRp7w6jKol8//LCJEwcAUHwAAM1YtKsgZkyZlcqMlE8iAIAu6mpvlfRTE6m4Z+3KaVHyAODpOyIRAPCqmUv29IvGYwskc6Fkc0gEANBNthuZG4OB+MoXbhzcQhwAvIjiAwDPmXLh7mEm6l5kjM6TlEYiAIAeslfSba4/ctMrNw2vJQ4AXkLxAYBnTF60e7zPiV8ua86Q5CcRAEAvqbdW9/pt4Mcvr+hbSRwAvIDiA4CUN2XhrimOTxfLmq9I8pEIACBBNFmru+OO/dmrywbtIg4AqYziA4CUVbKwYq517OWSTiANAEACi8jYh+Kufrhh+aC3iANAKqL4ACDlTC0rP85YXSNpFmkAAJKIK+lxY83Va5cPXEccAFIJxQcAqWGpdYqrKubJ6nuSphEIACCJWUmPydhr1y0b9CJxAEgFFB8AJLWS+WsCbqj/Gcaab0saQyIAgFRipVXG6Lp1y4oeIQ0AyYziA4CkNKpsSyjbZpwl2e9IGkwiAIAUt97I/njtrUX/JxlLHACSDcUHAEllzmX7slqbo2db6XLJDiARAIC32Net0c9yCooeeGapiZEHgGRB8QFAUiiZX1Fog7ZU0mJJeSQCAPB4J36bZG7Oamy745l7h7eSCIAkuG8BQOKavnBvf9cXvdBalUlKJxEAAP7DSntkdWM8zXfrq9f3byIRAImK4gOAhDSptHK4z8YvNEbzJYVJBACAj+3V75fV8mg8dvNrtw2tIRAAiXebAoAEUlK6c6I15luy5gxJfhIBAKAdrBqsdI9M/Lr1tw6pIBAAiYLiA4CEULKootgaXSHZU7k3AQDQaW0y9reK22vWrRj8NnEA6G108AH0qpKFFXOtYy+XdAJpAADQ5d39qIz7oLHOj9beOvBN8gDQa3cjIgDQ86wpLqs4QVZXSjqMPAAA6HaupMdd17nmlRUDXiYOAD2N4gOAnrPUOsVVFfNktVRSMYEAANDzrLRK1l69fvmgp0gDQE+h+ACg241fujEYrMo53bHmKiuNJhEAAHqflVYZo+vWLRv4qGQsiQDoThQfAHSbSZdWZgRa3XMle6mVBpEIAAAJaYM19oZRlUW/fvhhEycOAN2B4gOALjezrCo7Ztu+aWWvkNSfRAAASIqhwVZJPzWRinvWrpwWJQ8AXXqHIQIAXWVq2e4+xrqLJC2RlEsiAAAkpe1G5sZgIL7yhRsHtxAHgK5A8QFAp01dVDFUshcbo/MkpZEIAAApYa+k21x/5KZXbhpeSxwAOoPiA4AOKynbMdJ1fYuN0fmSQiQCAEBKqjdGt/lc+7PVywdVEQeAjqD4AKDdihfsnCS/uVTWfEWSj0QAAPCEJmt1d9yxP3t12aBdxAGgPSg+ADhoJQsr5lrHXi5pHvcPAAA8KyJjH4q7+uGG5YPeIg4AB4PBA4BP9F7R4WpJx5EGAAB4jyvpcWPN1WuXD1xHHAA+DsUHAB9uqXWKqyrmWWu+Y2RnEAgAAPgIVtJjMvbadcsGvUgcAD4MxQcAH1Ayf03ADfU/w1hzhaSxJAIAAA6WlVYZo+vWLSt6hDQAvB/FBwCSpPFLNwaDVTmnG2u+K2kUiQAAgE5Yb2R/vPbWov+TjCUOABQfAI8bv3BvZtiJnWNlL5M0kEQAAEAXDjdes8a9Pqeg6IFnlpoYeQAevhsQAeBNMxbtKogZU2alMiPlkwgAAOjGQcc2ydyc1dh2xzP3Dm8lEcCT9wEAXjLpgsq+fn98oWQulGwOiQAAgJ5ipT2yutGJmmVrVw5sJhHAOyg+AB4x5cLdw0zUvcgYnScpjUQAAEAvjkL2y2p5NB67+bXbhtYQCOCFnz2AlDZ50e7xPid+uaw5Q5KfRAAAQMKwarDSPU4g+pO1Nw3bTSBA6qL4AKSoKQt3TXF8uljWfEWSj0QAAEACa5PsfcbnXLv25oE7iANIPRQfgBRTsrBirnXs5ZLm8RsHAABJNjyJyrgPGuv8aO2tA98kDyCFft1EAKSGqWXlxxlX35fRbNIAAABJzpX0uOs617yyYsDLxAEkP4oPQDJbap3iqop5svqepGkEAgAAUo2VVsnaq9cvH/QUaQDJi+IDkIRK5q8JuKH+Zxhrvi1pDIkA6G75WY5G9PcrL8tRToaj6npXe2tdvVMZVXObJSAA3c5Kq4zRdeuWDXxUMtx4gCRD8QFIIqPKtoSybcZZkv2OpMEkAqC79MlxdPLsDI0ZHNDgPn71yfEpK+2D3QbXSrUNrvbWxbVtT0yvbI3ozy81KxJlTACgW22wxt4wqrLo1w8/bOLEASQHig9AEphz2b6s1ubo2Va6XLIDSARAdykZFdLpR6Vr8vCQCrKddv//t++Nae2WiO74S73217kECqA7hzJbJf3URCruWbtyWpQ8gAT/xRIBkMCDgPkVhTZoSyUtlpRHIgC6y8ACvy4+OVszDg0qI+x0+s+rrInr6Q2tWvanekVizIQA0K22G5kbg4H4yhduHNxCHEBiovgAJKCZS/b0i7mxi6xVmaR0EgHQnU4/MkNnHp2pgQW+Lv+zX383qhv/UKdX3okQNIDutlfSbSbSeuPalSPriANILBQfgAQyqbRyuM/GLzRG8yWFSQRAd/I50re/nKvPTU9TKNB9XYL99XHd+ZcG/d8/mwkdQE+oN0a3+Vz7s9XLB1URB5AYKD4ACaCkdOdEa8y3ZM0ZkvwkAqC7+X1GPzsnT4dPCMv0QG+gqc3V/X9r0l1PNhA+gJ7SZK3uduPuTzfcPricOIDeRfEB6EXTysqnutZ8W7Kn8nsE0FMcR/rp2fk6enLPTrBqbnN195NNuvdvFCAA9KiIjH0o7uqHG5YPeos4gN7BYAfoBSULK+Zax14u6QTSANDTrjo9V1+YnS6nF3oB9c2ufvLbOj25lj3hAPQ4VzK/i1vz/Q3LB2wkDqBnUXwAeow1xWUVJ8jqSkmHkQeA3nDq4Rm66AvZCgd7rwuwa39ci26t0q6qGBcEQK90yiQ9Zqz7w7XLB79EHEDPoPgAdLel1imuqpgnq6WSigkEQG8pzHZ014WFGtyn97eWeenNNi1aUSXLKZwAepGVVhmj69YtK3qENIDuRfEB6Cbjl24MBqtyTnesucpKo0kEQG/76Tl5OnZKWkJ8lrgr3fiHOv3mmSYuDIBEsM7I/mTtrUX/JxnKokA3oPgAdLFJl1ZmBFrdcyV7qZUGkQiARDB9dEjXn5unzDQnYT7TlvKozvr5frVF6ecDSJjh0WvWuNfnFBQ98MxSw9owoCt/XUQAdI2ZZVXZMdv2TSt7haT+JAIgkdx8Qb7mjg8n3Oe6/fEG3fkXTr8AkHCDpG2SuTmrse2OZ+4d3koiQJf8rgB0xtSy3X2MdRdJWiIpl0QAJJqRAwK668ICZac7CffZ3tgR1VnX75PL5AcAianSWt3kRM2ytSsHNhMH0HEUH4AOmrqoYqhkLzZG50pKJxEAieo7Z+Tq5NmJeZuKu9K376nWU6/wYhFAQo+a9stqeTQeu/m124bWEAjQfg4RAO1TUrZj5NRF5TcbYzcbo8Wi8AAgkfvLRho3JJCwn8/nSEdNSuNCAUhsVoWSrg44/u1TF5XfXHLhuwMIBWhnn4QIgINTvGDnJPnNpbLmK5J8JAIgGUweEdQdZQUK+BP3kf92RUyn/2Qvx24CSCZtkr3P55ofvryiaCdxAJ+MmQ/AJyhZWDG3uLT8EfmcV2TN10ThAUASOXJCOKELD5I0uI9PI/r7uVgAkklIMvPjjtlaXLbr/pLSijFEAnw8ig/AR/hX0cE69h+SThAzhQAkoUF9Er9eGgoYHTkpzMUCkIRsQNZ8zcpuLC4tf2RqacU0MgE+HK8ZgPdbap3iqop51prvWNkZBAIg2fXNSY7JWv3zmFQGIKk5kk4wsicUl5b/3XV09Su3FD1PLMB/UHwAJGmpdUr2l3/R7q/4vqSxRiw8BpD8jJHys5JjkmN+FsUHACnjOMfVcVNLy1cZo+vWLRv4qGToXMLzKD7A08Yv3RgMVuWcbvZXfMfKHEIiAFJJVpqjjHByFB+y01gJCiC1GGmOrP5cXFqxwZpdN4yqLPr1ww+bOMnAq3jSw5PGL9ybWVJasSS0P/cdY819kig8AEg5aSGjYCA5PmuyfE4A6IDJxpr7tvareLO4tGL+UUstL4DhSTR8eMqMRbsKYsaUWUXLrJRPIgBSWchv5HeSY6/coJ89fQGkvFGSvaN+f8WVJaUVNwYD8ZUv3Di4hVjgFRQf4AmTLqjs6/fHF8ZkLpRsDl1cAF4QiVnFXKtgEhzW4xjuzAA8Y6iVvakt6lxZXFp+m4m03rh25cg6YkGqo/iAlDblwt3DTNS9yJj4eZLSxEaSADzEMQzqASCB9ZV0tQ2GLyopK78t6Hd/+sKNg6uJBamK4gNS0uRFu8f7nPjlirlnyNDOAXiT4xjJJMtn5XoB8Kxsa3V5W9RZNHVR+S/cuPvTDbcPLicWpBoGZUgpUxbumuL4dLGs+xVZw7ltADzNMewsDQBJJNMYLfb5nQuKy3Y95Br7g1duGbyFWJAqKD4gJZQsrJhrHXu5pHmyYo4xAEgy5sB/koHDnRsA/iUoa77mWHNmcWnF76wxS9cvG/AGsSDZUXxAUptaVn6ccfV9a+xs0gAAAEAKcSR7mrH21OLS8seMdX+4dvngl4gFyYriA5LPUusUV1XMk9X3ZDWNeQ4A8OEaWly1RKRAEjztWyJsCAwAH8FIOsEa54SppeWrjNF165YVPUIsSDYUH5A0SuavCbih/meY/RXfljSGRADg49U2uWqJuMpOT/wtcJpaXS4YAHwCI82R1Z+LF5U/L0c/Wbds4KOSoXqLpEDxAQlvVNmWULbNOMvKfsdYDSYRADg4ris1tyZHn7Splb4zABw0o9my+nNx6e7XrNl1fU5B0QPPLDUxgkEiYxNsJKw5l+3LKimtWJJtM7ZJ9g6JwgMAtFdzm8vnBICUZScaa+6r31++uaS0YslR39gWJhMkKmY+IOGUzK8otEFb2tIcWSwpj0QAoOOSZUZBMzMfAKATzAgre1N9ZvCKqYvKb3KiZtnalQObyQWJhOIDEsbMJXv6xdzYRdbaMknpJAIAnVfXnBwzCmqamPkAAF2gvzH6iQ3ZS4tLy5dH47GbX7ttaA2xIBFQfECvm1RaOdxn4xdG47H5kpgqBgBdqKo+OQb1W8qjXCwA6CpWhZKuDjj+i6cuKr/HCUR/svamYbsJBr2J4gN6zbTFlRNcG7tMNn6GDG0RALrD7up4wn/G5jZXr2+n+AAAXc4oy0iLbSxwfnHprvt8rvnhyyuKdhIMegMDPvS4aWXlU11rvu268VMlY0gEALrPK1sjcl3JSeAtpqsaXO2rjXOxAKD7hCQzP+6YbxaX7XrQWOdHa28d+CaxoCdx2gV6TMnCirnFpeWPuFbrJHuaJAoPANDN3qmMqqYxsQf2VXWuXPabBIAeYAOy5mtWdmNxafkjU0srppEJegozH9DdNzhTXFZxgqyutLKHkQcA9KzmNqt9da4Ksn0J+xn31jHrAQB6mCPpBCN7QnFp+d9dR1e/ckvR88SC7kTxAd1jqXWKqyrmyVYslVUxgQBA79lTG9eYwYGE/XyV1RQfAKAXHee4Om5qafkqY3TdumUDH5UM89HQ5Sg+oEuNX7oxGKzKOd3ZX3GVlUaTCAD0vj01iT2437STzSYBoLcZaY6s/lxSWvGKa3bdOKqy6NcPP2yoDqMr2xjQeZMurcwItLrnSvZSKw0iEQBIHF8+IkOXnZaTkJ+tocXqiz/ckzRHggKAhwaKG11jf5pTUPTAM0tNjETQBW0K6Lg5l+3Lam2Onm1lr5DUn0QAIPEM6+fXA5f3USiQeI/9rbtj+tKP9nKRACBRWb1rjLkpGIivfOHGwS0Ego6i+IAOmVq2u4+x7iJJSyTlkggAJC7Hkf74vX4qKki8TSdf2NSq0hXVXCQASHx7Jd1mIq03rl05so440F7s+YB2mVS2a5Dfmstl3XMkpZEIACQ+15X21cYTsviwr47lFgCQJPpKutoGw6Uli8pv8Tvhm15aVlBPLDhYFB9wUKaW7e7jyL3EWi0WRQcASDr7EvQ4y0TfDBMA8D8KrNH3I7Z1SXFp+bKACd9AEQIHwyECfJzxC/dmlpSV/8RYd7u1ulwUHgAgKe2pTcwZBht3cNIFACQjI+VLujpqW9+eWrrrgtNOsz5Swceh+ICPYE1J6a7TQk50I0UHAEh+7+5JvEF+XZOr19+NcHEAILn1MTK3vdOvYk1xWcXhxIGPwrIL/I9pS8oPdd2Ku6w1c0kDAFLD69sjirtWPidx9pqubXJV08ieDwCQCqw0RdY+W7yo/D43ELnolZuG15IK3o+ZD/iPpdYpLq2Y78a1VlYUHgAghZTvj6uu2SbUZ6ql8AAAqcbI6BtOLLipeFHFycSB96P4AEnS9AV7RhTvr1gl2TskZZAIAKSW5jar+qbEGuzXNVN8AIAU1V/G/r64tPwXky6tZGwBSRQfIGnKovLPx32xNZIOIw0ASF11CVZ8YOYDAKS8b/pb42uKF+ycRBSg+OBhJfPXBKYuKr/ZMfqDpDwSAYDUlmgzDRKtGAIA6BZj5HNeKFm06yyi8DaKDx41ccH2PBsc8IQxWizJkAgApL5Em2lQ1UDxAQA8It0ac+/UReU3a6llDOpRXHgPKl64c1TA539e0jGkAQDekWgzDd7aFeWiAICHGKPFxfvLH51ZVpVNGt5D8cFjist2HSbHWS1pDGkAgLdUJ9BMg+Y2V+/ujXFRAMBzzGejtvWpkvkVhWThLRQfPGRa6c6j5Jq/iv0dAMCT3ipPnJkGdU1W++riXBQA8OjQxAbtc5PKdg0iCu+g+OARU0vLT3Ll/EVGWaQBAN707p6YmloTY/ZDXZMrly0fAMDLxgaseW7KhbuHEYU3UHzwgGmLyj9lpN9KCpMGAHjX3rq46pttQnyWRDt5AwDQ86w03Im5z05dVDGUNFIfxYcUN2Vx+Wz3wFGaIdIAAG9zXamxJTGKD/UUHwAABwwxxv5t+sK9/YkitVF8SGHFiytKnLiekJRBGgAASWpoSYxBf6IUQQAACeGQuBN9fM5l+1ginsIoPqSoqaU7BhrX/pE9HgAAHxj0tyZK8YGZDwCADw5hWprbHjpqqfUTRWqi+JCCSuZXpBvj/NFK7B4LAPivQX9izDiobaL4AAD4b+az9fvLryeH1ETxIeVYY4PuL2XNdLIAAPy3RFl2Ub4/xsUAAHwIs6RkUcW55JB6KD6kmJKy8oslcwpJAAA+TFMCFB9c98CxnwAAfBhr7LJpZeVTSSK1UHxIIcVluw6z1vyIJAAAH2Vffe8XH+pbXO2tY9kFAOAjhV2r35bM35pDFKmD4kOKmHLhtlxZ81tJQdIAAHyURJhx0NRqOWoTAPBJRtlAeDkxpA6KD6lyIeOBWyQNJgkAwMepqIqrNdq7m042triynLQJAPgkRmdOLdt1KkGkyJiVCJJfcVn5ibLmayQBAPgkVfXxXj/mMlFO3AAAJD4jc9vMJXv6kUTyo/iQ5CYu2J4nq5UkAQA4GC0Rq7ZIb38GllwAAA6SVWE0HruJIJIfxYckF/D7fyCpP0kAAA5Wby+7aI0w8wEA0C6nF5dWfIYYkhvFhyRWUrpzoqzOJwkAQPsG/70786CljeIDAKC97I0l89cEyCF5UXxI3h+fsda5XZKfLAAA7dHa28suohQfAADtNlah/ouJIXlRfEhSxYt2f0FGs0kCANBebdHenfkQofgAAOgAa81VExdszyOJ5ETxIRkttY6MvZogAAAdEevl/R6jca4BAKBD8vy+wEXEkJwoPiSh4qrdZ0iaTBIAgI6I9fLgPxZj5gMAoGOM7EUcvZmcKD4km6XWkbXfIQgAQEfF4707+I/EuAYAgA7LjMai7P2QhCg+JJmp+ytOkDSGJAAAHdXbyx5ae3nPCQBAkjNmwfiFezMJIrlQfEi235l0KSkAAJKZZdUFAKBz8oJO9JvEkFwoPiSRqaUV0yQdThIAgM4wppf/fi4BAKDTzxKzREst49kkwsVKqh+YnU8KAIBkH/w7DuUHAEBn2ZHF+8uPIofkQfEhSUy6tDJD0pdJAgDQWb0988FH7wMA0AWszDmkkDx4/CcJf1vsNEnZJAEA6PTDv5ef/gEfMx8AAJ1npFNmXbQznySSpP9BBEnCmjMJAQDQFUKB3h38h4JcAwBAlwhHIr5TiCE5UHxIAjMW7SqQdBRJAAC6QtDfy8WHAN0PAEDXsI79IikkB57+SSDqmM9L8pMEAKArhHt55kM4wDUAAHQRa46duGB7HkEkPooPScC4+gIpAAC6Slqol4sPQbofAICuYgMBf+Bz5JD4ePonuJL5awIyOpokAABdoajQp0GFvl79DP3zfVwIAECXsVafIoXER/Eh0fkHzpSUSRAAgK7whVkZygj37uN/UIFPaUFOvAAAdA0jexwpJD6KDwn/S7LHEAIAoEse+kaaeWjvHzXRL8+nU+akc0EAAF2laPKiXaOJIcH7IUSQ2KzMUaQAAOgKXzk6U2MHJ8Y5l0dMDHNBAABdN7A14qVtol8jIkhcB/Z7sDNJAgDQWekhoy/MSpeTIE/+ySOCOnEmsx8AAF3DSHNIIbFRfEjkH1Co31RJ9MwAAJ22+PPZGt4/cU5tDviMzvpUpvIz6YoAALpg7CRD8SHB8cRPYK7rm00KAIDO+lRxmo6flpZwn2t4P7+uOydPYTafBAB0kpWGT75gZxFJJC6KDwmMqUMAgM4qKvBrweeylJWWmI/84lEhXX9uvoJ+ChAAgE4ObgNmFikk8PUhgsRljeXHAwDosMw0ox+elauh/fwJ/TlnjQ3pZ+fmKRSgAAEA6Dhe3iY2ig8JalJp5XBJTBsCAHRIKGB0/bn5mjQ8mBSfd+74sG5dWKDsdLomAIAOo/iQwHjCJyi/XH44AIAO+8HXczV9dCipPnPxqKAuOjmbiwcA6Bhrpo5fuDeTIBITxYcExZQhAEBn9M/zJeXnDrP0AgDQcf40p20aMSQmig8JyhrLSRcAgA4LBZLzER/i5AsAQCe4HLmZsCg+JKCZZVXZshpPEgCADg/iA8n5uTn1AgDQSRQfEhTFhwQUtW2zJPlIAgDQET5HCibp8gVmPgAAOsfM0lLLODcBcVESkKVaBwDohIywo1CSziAI+bl+AIBOyZ1WvWccMSQeig8JyMhSfAAAdFhWmlE4SWcQBP10TQAAnePaGOOpBMQTPsEctdT6Jc0gCQBAR2WmOUm87ILrBwDoNIoPCYjiQ4Kpr949WRJn0wIAOiw/y5GTpFsnhPxGDr0TAEBnWIoPiYiVlQnGWM2xxAAAaIe8TEd9cnwaMcCvogK/xg0JJO13CYeMTpuboY3bo6qojqm6weUCAwDaO6oaUXLhuwPW3jRsN1kkDooPCcZaO5sUAAD/kh4yGtovoAlDAxqQ71NOhqOcDEeZYaPsDEeZ4QP/PSvNSYkZAznpji47LUfWSg0trhqareqbXdU3u6ppctXQ7Kq+xVX5/rjeroipoiqmmkYKFACAD3JjwdmSfkcSiYPiQ+Kh+AAAHpOV5mjckIDGDw2oMNunvExH+dmO8jJ9ystwlJvpeG4pgjFSdrqj7HSp6CNOn3at/l2M2F/nqqo+rr11rsr3x7R+a0TbKmOKxJhPCABe5BhRfEgwFB8SSMmSiiE2bgeTBACkprSg0SFFARWPCqpvrk/9cn3qk+OoINunvrm+pN2noRc7lv+eCTK48IP/LO5a1TVZ7a+La09tXDWNrvbWxrVmS5ve3BlTQwuzJQAglVn2fUg4dHMSyNSy8jOM1QMkAQDJryDb0ZxxYY0ZFFD//APFhT45jvIzfWyo2LudUdU0udpXG1dFdVzl+2N6dVtEqzdHKEgAQGoNdaMmoty1Kwc2k0ViYOZDIv08OBIGAJJSesho8oigpo4MamCBX4MKfBrWL6CsdGr8CfesNVJ+pqP8TEeHDvrPxpz1za721MZVWX1gpsRLb7bphU1taomwbAMAkpMNuAEzTdJzZJEYKD4kUoeIky4AICmM6O/XsVPCGt4/oKICnwbk+1SQ7SOYJHZgfwlHhww8UJA4ZU6GqurjqqiKq7wqrh37YnpqfYveqYwRFgAkCefAy12KD4ky3iWCxDB+4d7MkBOtEQUhAEg4g/v49JniNA3rH9DQvgdmNaSHeIR6TVvUqrwqrq27o3qnMqZnNrTqrfIowQBA4g53H1t368ATyCFBrgYRJIZpi8o/5Rr9lSQAoJcfjEYaXRTQERPCGjXQryF9/Brcx6e0EBs14INao1YVVXG9szuqN3dG9cTaFu2ujhMMACSOmnWFAwu11LCpTyL0sYggMRSXll8taSlJAEDPy053dPy0NE0eHtQhRQEN7uNT0M8jEu3T2GK1Y19U2yrj2rQzosdWt6i+mf4uAPQma5zx65cNeIMkeh9T/BPlRyHNoZsLAD3DGGnc0KCOmxLWyP4BjSryq18uezagczLTjMYNCWrcEGnejDSd/Zksbdsd0+ZdUf3h+Wa9U8kSDQDo8We+7BxJFB8S4lqg1512mvVt7be7SrI5pAEA3SM9ZPTZaWmaNDyoEf39GjEgoHCQxyB6RlvUavvemN7YHtXTG1r1wputcpkUAQDdzsrct/7Wgd8gid7HzIcEsKVP+URHhsIDAHSxrDRHn5+VppJRIR06KKB+ecxuQO8IBYxGFwU0uiigE2emace+uDaXR7V2S5ueWNOi5jbOuwKA7vDezAckxLVAryteVL5IRreSBAB0Xna6o5Nnp2vKyKDGDAqoL8spkOD21MS1pSKmtVva9Pvnm9XYwpQIAOhKPjcw4OUVfStJoncx8yEBGKM5vO8AgI7LTnd04sw0TR8d0pjBAfXJoeCA5NEvz6d+eT7NHR/Sl4/M0JbyqFZvjuj3zzepNUIPAQA6K25isyT9gSR6F8WHBGCl2aQAAO0TDBh9YVa65owLa+yQgAqyOAoTya9/nk/983yaOz6s045I18btUT21vkXPvtYqlzoEAHR0vDVHFB96HcsuetnU0h0DjXzlJAEAB6fkkJBOnJGmCcOCGtbPL8OTDCnOdaUd+2J67d2InljTohffbCMUAGifF9fdWjSLGHoXXbZeVrxo15dkzEMkAQAfbWCBT6cfmampIwI6pCiggJ/HF7ypLWq1pSKmV7dF9KunG7WnJk4oAPDJw96oiSh37cqBzWTRe1h20cuszBy60ADwv0IBo1PnpmvW2LDGDQ0oJ51lFUAoYDRhaEAThgb02WlpenVbRH9d26K/rmthWQYAfPSoK2BDpkTSP8ii91B86GXGiKNfAOB9RvQP6MtHZmjqyIBGDggQCPAR8jIdHTkxrMMnhHXO8Vlau6VNdz3ZoP11nJYBAP8z7rKaI4oPvYriQy+adGllhlrjk0kCgNc5RjpmSpo+Oy1NJaNCykpnThjQnt/PiP5+jejv13FT07ThnYgef7lZT29olWU2BABIkqwsL317Gb27XlRcuusYyTxFEgC8qjDb0ZlHZ2rGoSEdUhSQj5UVQJeIxa3eKo9q7ZaI7n+qUdUNzIYA4Hk16woHFmqp4YbYS5j50IuMNIcXEgC8aNbYkL4wO0NTRwRUkO0jEKCrO3g+o3FDgho3JKjPlKRp/dYDG1S+sSNKOAC8Kq947+5D10mbiKKXnk1E0HusMbNF9QGARzhGOmFGuubNSNPE4UGFAky+A3pC31yfPlOSpiMmhPT69qh++1yznt7QQjAAPOe9/fYoPvQSig+9Zal1tL/iMIIAkOoCPqMvHZGhTxWnadwQllYAvSUt5Gj66JCmjAzqje0Z+vv6Fj30XJPiTEAG4BHW2NmS7iKJ3kHxoZeU7N813srJJQkAqSojbHTmMZk6ZlJYowYGZJjoACSEgM9o8oigJg4P6sSZ6Xr2tVbd+/dGtUaYjgkgtRlx0mAv54/eMLV01wVG5jaSAJBq+uQ4+toxmTpqclhFBdS4gWSwY29M67ZGdMfjDdpbGycQAKnKxmK+/q/e3n8vUfQ8eoW9hKobgFRTVODX+fMyNWtMWPlZrK0AksmQvn4N6evXrLEhrX6zTXf8pUG7qylCAEi9YZjji8+S9Cei6HkUH3qr1ctw0gWAlNA/z6cL5mVp9tiwCrIpOgDJrF+uTycelq7Dxob0/KY2rXikXvvr2RQCPSvgMxrcx6eBBX4NyHdkjFFb1Grnvph27Y9rX11clo40Osg58BKY4kOvjIHR46Yv3Ns/7kR3kwTadaM00pjBQR01KaQB+T4VZPmUk+ko5DeSkWIxqSXiqq7J1b66uLbtiemp9a3aw/RZdJO+uT4tnJelWWNDKszhuEwgFe2pjeufr7fptsfqVdNIEQLdIyNs9Lnp6Zo0PKjBfXzqm+tTYbYjn/O/Q5XGFqv99XGVV8X0zu6YHn2pRW/v5ghZtIPV8+uWFzELneKDN0wt23WqseZhksDBGFUU0JcOz9CkYQEN7edX0H/wP9vGFqu3d0e1cXtUv/5/jdpTQyECnVeY7WjBCdmaMy6kPhQdAE/YXR3Xc6+16vbHG1TfTBECXePISWF9dlqaJg4Lqn9ex54nLW2uNu2I6qkNrXr4H5zegoPSlt0YyX3m3uGtREHxIeUVl1bcINmLSAIfZ+zggM7+TJamHRJUdnrnp7LXNLp65Z2I7v97o17dFiFgtFtOhqPSE7M1Z3xI/XIpOgBetGt/XM+81qI7HmtQcxvz3tExn5qaplPnpmvSiGC7Xqp8HGulN3ZE9cAzjXpiTQsh42M50tw1txatIgmKDylvamnFS0Z2Bkngw/h9Rks+n6XPTk9XXmbXr59vbHG1enNEP/99nSqZCYGDEPQbnXd8pj5dkq5BhRQdABw4HeOpDa2664kGjujEQRvcx6+LTs7WzDEhhQPdMwxpi1o9+1qrrn2wVo0ttE18pMvX3Vr0U2LoWRQfetisi3amtUWdWklB0sB/G5Dv17Vn5WryiO5vHrur4/rdP5t0z98aCR4f/oAw0hfnZOiUOek6dFCAQAD8j22VMf35pWb96qlGuYzz8DFOOzxDZx2XqQH5PVPE3rwrqqvuq9G2yhjh48P8ed2tRZ8nhh7uWxJBz5patvtIY91nSAL/bcqIoK46I1cj+vfcITSxuNWqN9p09a9q1cAaXrzP3PEhff3YTE0eEZTfx6MCwEdzrfTatojue6pRz77KEmp8UNBv9J2v5Oq4KWGFAj37PNmxN6alv6rVBpab4n9HwfvXLRvYVzKUTXs0dvSo4rKKK2XttSSB9xs1MKCfnpOnoX175/TbLRVR/fA3dXr9XR7OXjeif0Dnfy5Ts8eFlB7i2EwAB68tarVmS5tu/EM9b5sh6cBRzFefmasZh4Z67TO8uyemi++s1vY9tEl8kOPTmDU3F20miZ7D4t2evgnPuOQKIx1CEviXwhxH15+brxEDem9ae0GWT7PGhtTUYrV5F8dVeVF2uqPLv5Sj0pOyNX5oUAE/tWkA7eP3GQ3p49exU9I0uI9f67a2Kcp4z7Pmjg/ph2flafzQ3l1pnJvpaOKwoP6ypkUxtrrC+7jS+srVN6wnCYoPKcqaATMabjFSGllAOrCm/rpv5mvKyN7fAiQzzdGMQ0Pql+fT82+0iTlo3mmDpx+ZoStPz9VhY0JKC1J0ANA56SGjcUMC+lRxmvIyHa3bGpHloeIpXz82U2Un5fTY/g6fpE+OT31yfHr2NZYF4X19IKuq3S/f8GeSoPiQkqaWXTDOyF5KEviXbxyXqZPnZMhJkPFewG80ZnBQ44YG9OyrrbwhSHGTRwS19Kt5OmVOhvKzWGIBoGtlpzuaMjKkw8aEVNfk6l2mvaf+YM5I3zkjV2cenaHMtMR6rgzu49ObO6PatZ/ODf4tfffLN9xKDD2H3mZP3pBl55AC/iUjbHTSrHT5EuxX6Bjp8PFhLVtYoOx0bhGpKCvd0dVn5uqm+fmaPjqYcG0QQAp1NI00eXhQ156Vpxvm52tggZ9QUpTPka49K0+fPyw9IZfupYccfeNTWVwovH9wNnpq2e4+BNGDzwQi6DnWiuID/u2Cz2X32gaTB2PqyKCWLcxXYQ63iZR5xhrpjKMydO/FhTrpsHRlZ3BtAfSMcNDoyIlhrVxcoPmfzZLD7SelBP1G15+br08XpyX0tZ08IqAjJ4a5YPh310jWnUUMPYdbf8+2booPkHRgU67e3Pn5YE0YGtQtFxRoSB/eVCW7CUMDuq20QBednKNh/bieAHrHgHyfzvtslu4oK9Sk4UECSQFpQaObL8jXERPDMgm+bVDAZ3TCzHQuGt43PuPlcE+i+NBDJl1Q2VfSKJKAJH1ueppGDkiOAeChgwK6/rx8DWKqbFIK+IwuOSVbN51foOmjQyyxAND7nU8jFY8K6ob5+briyzkKs9Ft0gr6jX5+Xn5SvFD5l7GDA2yujH+zFB969v5PBD3D73Np2Pi36aNDCf924P1GDvDr+vPyVJjNLSOZlBwS0u1lBTrjqEzlsaEkgASTl+notLkHloJ9upiDwJJuEOFIP/pGnmaOCSXV5x6Q76O94d+MNO2ob2xjLU5P3TeIoGdQVcP7jRiQfLMIDikK6Gfn5iszjbcFiS4UMLriyzn62Tl5mjIymFSFLgDec0hRQFefmaufnkORO2kGbEa65mt5OmpSco7Zxg8NcBHx725TbXawmBh6Bnf4HrtJ29mkAEnKyXDUPy85T7mdNDyo68/NVzDAaDZRzR0f0t0XFuq0uRnKYUNJAEkiHDQ6dkqa7r6oUF89JpOiaYK74ks5+kxxWtJep/75Pi4i/jMg5lCAnsuaCLrfqLItIUlU1CBJmjgsqNwkHhROHx3Sj76RJ4eOYUJJDxl978xc/fCsPI0dwhsdAMlpUKFfZSdl6daFBRqQz15Diej8z2XppMPSk/rEkrxMig94HyteEvcQig89ICeeMV1SiCQgSYP7JP8D78iJYV3x5RwuZoKYOz6kuy8q1OcPS1dWGrd1AMnN7zM6bMyBPWtOnZtBIAnk1LnpOvPoDAX9yf0GIj3EGxS8j9FcydIoegC91B7gGo7YxH/kpsBUeMdIJ85M17nHZ3FBe7mD/q1Tc/SDr+dpdBGzHQCklkGFPl18SrauOydP2el0WXvbUZPCmv+5bGWEk/9ahFg+ivezKpyyeBenEvZE35UIuh/nx+ID9zebGt8j6Df66jEZ2lMb1yMvNnNhe9ghAwO64ks5mjyCDSUBpK5QwOi4KWka3i+g2x9r0NMbWgilF0wYFtAlp+SoIEVOTnJdy0XFBzjWzJG0hSS6OWci6PahppHRYeSAf4m5qfNdstIclZ6QpTnjWFXUk75+XKZuviCfkywAeMbIAX5dfWaOvnNGLpse97BBBX5dfWaeBhakzj4JkTjXFf81YpPhZXEPoPjQzUpKdx8qqQ9J4F92V6fWE68wx6dvfzlXU0YEubjdLC/T0Y3z87XwhCz1y2OzLADekpnm6OTZ6frFRYUqGUXRuydkpTu69pu5GtE/tSZL1zW5XFx8gOHEix5B8aGbuWK/B3zQ5l0RxVJsut+AfJ+uOiNXgwpYydVdPlWcpjsvLNQRE8MK+HjrB8C7xg4O6Cdn56nspOykPnEh0QUDRtefm6cJQ1Pv5UJtI8UH/I8xJfMrComhe3HL7maGo1vwX7bviWtvTeo99Eb09+sn5+SpIJvbSlfyOQfOU//uGTka3o/iDgBIUn6Wo68fl6kViwrUn5lgXS7gM/rZOXmadkhqzjCpqGLdBT5k2BZwWSrfzRgldD9mPuADonGr8qpYSn63sYMDuun8AgoQXaRfrk8rSg8cNZcKu4sDQJd2Yo00fXRIK0oLdPTkMIF0kYDP6Gfn5mnu+NTM1LXS+q1tXGj8D2vY96Hb79tE0H1K5lcUymg0SeC/bdsTS9nvNm5IQLdcUKD8LG4vnXHkxLBuXVigaYeE2FQSAD7G0L5+LT0zVxd+IZv7ZSf5fUbXnZOnwyekbjFn1/6Y/vE6xQf8L04o7H6MDrqRG7SzD7Rj4IOeXNOiSCx1j3kaMzigG8/PV14mt5h2P/iMtPjz2Vr61VyNGMAyCwA4GJlpjs48OlO3XFDAs6eD/D6jn56TpyMnpvYsks27oorGOWoTH2rGqLIt7Gbbjbg7d+cgguoZPsKGbRG9VR5L6e84YWhQN56fr9wMbjMHKyfD0c0XFOhrx2QqO53c8PGa21yV749pw7aInt7Qqk07oin5Pde9HdFzr7dq4/aIdlfH1Rpl0ICP6NQ60uxxId1eVqgZhzJ+aG/h4Sdnp37hIRq3enJtCxccHyWUrbSpxNCN9xoi6D5WmsO0B3xo27DS82+0asLQQEp/z4nDgrrp/HwtuaOaY60+wfTRIV36xWyNGhggDPxba8SqusFVdUNc+xtcVde72l8f1+ZdUW3aGdXe2rjse2Pxa76Wp7FDUq/9rN7cpjufaJB0YAPWAfl+TRgW0Mj+fhVk+5Sf5ahPjk9983zK5403JI0a6Ne1Z+XpoeeadNd7bQcfzedIP/lmno6amPr7Zry5I6ZnXm3louMjvffy+EWSoPiQXA++si0hY1VCEvgov3q6UcdPS9OQPqn9M5w4/L0CxO3Vqm+mAPFhvnpMps46LpN9MjzMWqm6Ia49ta4qa+LaUxPX1t1RrX6rTbur43IP4qcTStG6VSj4nzJ+3D2wXnvX/v+dOZaV5mjyiKCmjAyqf55PA/J86pfnU59cR36HVwFek5/l6LzjM3XooICu/mWNmtuYMfORhYez83XUpHDK75cRd6VHVzf/u2ALfPjz2MyR9HOSoPiQVLLctGIZsfUyPlJTq9Vf17bo3OOzUv67TnqvAHHhHRQg3s9xpCu/nKvPTk9TOMDgyEvqm60qqmIqr4pp1/64Xn6rTa9ui6ipteO94lCKtqGD/W00tLj658ZW/XPjf95q+n1GhxQFNPPQoIb08WtIX78GFfrUJ4ejGT3RyfUZHTM5rAH5hfrJQ7V6fXuUUP6r8PDjb+braA8UHiTptXcj+t2qJi48PgnL5ik+JOGgwpg5FFbxSe7+a6PmjAun5FTp/zZ5RFA3XZCvi++oVi1LMJSd7ujH38zTzEM5zSLVWSvtrYtr596Ytu+NaeOOqP65sVVV9V37OwgHvV18+DCxuNWmHRFt2hH59/+WHjI6bExIxaNCGlTo09C+fg3I9yng54eYqsYODui6c/K1/NF6Pb6a9f7Se3s8fDPPEzMeJKmuydUdjzcw6wEHo2/xwp2j1q0Y/DZRUHxIns4mVTMchEjU6vbH6/XDs/KUlZb6U+4nDw/q5gX5unhldZcPvJLJoYMC+t6ZuRoziP0dUpFrpT01ce3YF9O7e2Ja93abVm1sU0uke3u9qTp7JtTFRZXmNqunN7Tq6Q0HZkg4Rjp0UFBHTAxp5AC/RvYPaFAfn/w+ihGppH+eT5d9MUfD+vq14lFv7wMR9B841SKVj9P8b39d16LVmzleEwfHGDNHEsUHig9J5TAiwMH458Y2Pb66RacdkSEvLEueMDSomy4o0KUrq7WnNu656/3p4jSVnpStogKmfaeS2iZX71TGtLUiqlVvtOmlzW2K9PCpDKEUnfnQ3ctJXCtt2hnRpp0HZkc4jjR1ZFBHTUrTyAF+jejvZ5lGishKd3TWcZkaWODX939V68njFkMBo+vPy9fssd45DWTNljZd/7t6fgA4aPZA8eE+kqD4kBSmLN55iFz1JwkcrOt/X6chff2a5ZHOwLjBAd14fr6+dVeNyqtinrnO58/L0ulHZHCMZgqIxa127o9ra0VUG7dH9ejqZlU39O5snlTd86GnN9J0XWntlojWbjlQjEgPGX1qapqmjgpq5AC/hvcPKC3IrIik7fj6jD47LU19chx9+xc1qm70ziy8tKDRDefna8Zo7xQe3qmM6bv31ygWZ70F2oUZ7N2Ep2c3KC7b9Q1Zcw9JoD2y0x3dsiBfE4cFPfOd366I6vJf1OjdPaldgPD7jJZ+NVefmhpmKncSa2p1tXV3TG/ujOrpDS1a+3bkoE6h6AmOkR75fj/1z0u9N/RrtrTp/FuqEubzHDoooHkz0jVucECjigLKSuM3nay2lEd1zQO1emNH6m9EmRE2uvH8fJWM8k7hYfuemK64p0ZvlbPRKNrNhgJu4Qs3Dq4mii7uExNBN7RWmTl0RdBe9c2uLl5ZrZsvKNC4Id7YC2DUwIB+dk6+rry3RlsqUrNzkBE2uu7sfM/Makk1DS1Wb5VH9Mb2qP70You2VSZmO00POwoGWHbREzbvimrzrjpJUlGhT184LF3jhwZ1SFGA43KTzCFFAV13dr5ufaReT65N3Y0os9Md3Tg/X1NGeuflxrbKmJb+isIDOsxEYmaWpMeIguJD4rdWq9mkgI6obnBVuqJK152dp+kemRY5YoBfPz47T9+9v0abUuztU79cn647J89Ts1lSQW2Tqzd3RvX6uxH98YVm7a5O/L1JMsNG4RStWSbyRprl++Na/t7mhXmZjk6ena7JI0IaPzSgvEwKEclgYIFPV3wpR0P7+rXyL6m3EWV+lqMbzsvXxOHeeQ5t3B7VlffUaJeHlnWi67lWcyg+dD12UOpiExdsz/M5zk/FkhZ0UFvU6q/rWjWwwK9h/fzyeWAXyrxMR9NHh7RtT0zl+1NjE8p/He02djAnWiSD1ojVG9ujemJti675da1++48mrdkSUWNLcqwT7p/v0+lHZKbkkXlNrVYPPdeUFG1o/daInljTor+saVYkJhkj5WQ4CrDcKqGFAkaThwc1uK9f/9zYJjdFtgcY2tevn8/P1/ih3ig8uK70z42tuvjOalU1cKQ3OsdI7u7VN9xLEl2eK7pSSdmuedaaR0kCXeHrx2bqzGMyVZjtjTdo++vjuukPDfrLmuak/h5zxoV02Wm5GlRIfTfRO6rv7o3ptW0R/eH5Zr32biRpv8vMQ0NaUVqQktepsiauE5fuSZj9NdprzOCATpqZronDAxpdFGDflwT38lttuvCOarVGkrsCMWFoQN87M08jB3hjknNLxOrPLzTrZ7+rk2VvSXRRs2orrM3duHR8hCi6Dssuuroza8V+D+gy9z/VqK27o7r4lBwN65f6P9fCbJ8u+WK2cjKMHny2KSm/wxdmpWvBvGwV5jDlOlHtrY1rwzsR/W19i/7fhtaUeMtZkJ26ha5QwCgj5KihJTmrD2/ujOrNnXVyjHT05LCOnZqmKcOD6pdHcTIRTR8d0rIFBbr0rmrVNSVnmzt8QkjfOjXXM0c6V9bEdcfjDfrzi800YHSltLSq7CmSVhMFxYeEZWQ4mgVdatUbbXqnslo/PCtXU0ak/tTJvExHC0/IUp8cn5b9ObnO5T7v+CydeXSGsjhKM+FEY1Zv7opp9eZW/erpJtU3p9aU3FTe6DAUkDLTjBqSfD9A10pPvdKqp15pVXa6o68dm6GZh4Z16CA/syESTPGooG5dWKBv3V2jyurk2jfgy0dk6Jzjs1Tgkc1P39wZ1Y8eqtXG7Wwsie64b5s5FB+6FmX3LlQyf01AvqxbJLHIG12qscXVE2tblJ/pqKjQn3C7v3e1oN9owrCAhvcL6B+vJ8f620tPzdFXjspQepjCQyLZWxvX82+0admfG7Tsz/V6+a2I2qKpNyd31tiQSg5JzU1qfY7RI6tbVJ1Ca7jbolYvv3VgQ9Otu2MK+IxyMhylhShCJIo+OT7NPDSoDe9Ek6LtGSNdfEq2vnFclrI9UABvaHH1lzUtuvwXNUmxKTCStwu+e/UNvyWGrsPMh64U6FcsKZ0g0B0iUatrH6zT/3u1VQtPyE75jQz9PqPjp6WpINvRFb+oUW2CTn81Rrrq9BydODOdt5cJwrXSlvKont/Upvv/3physxw+TCoXJB1HKshytCUFv5u10tMbWvX0hlb1y/Xpa8dmatrooEYOCMjhdtLrRg0M6Lpz83TtA3Va+3Zbwn7OYMDoB1/P09GTwvJ5oP795q6obn+0Xv/Y2EYjRffeo2XmkkLXYuZDF+o/45IvG2M+QxLoTjv3xfXY6hYVZPlUVOhL+VkQRQV+zRoT0lsVUe2tTaxBpGOka76WpxNmpMtH4aHX/eu0gfv+3qQfPVSrl95sS8lZDh/myIlhTUjhI11f2hzRlvLUnlbd1Gr1/KY2/eH5Zu2vd5URNirI9nnixKNElpvhaPqhIVVUxfXunsRbgjGkj1/Xn5uv2WNDKV+wqm86MAv08l/U6J1KjtFE9zNS5qCSy39Zseb6GtKg+JBwBs68+BLJjCMJdLe4Kz33eqs27Yyqf55f/fJ8Kd3pKMj2ac64sCIxJcy6Tp8j/fibefpUcZocVlr0boe02dVLm9t0/e/qdcfjDdq0M+q53c6PnZKmMSk8G+qVdyJ6dZs3Nhy3Vtq0I6pHXmrR2xUxpYeMCrIcBQMUIXpLZpqjaaNDqm92tXlXNKF+91d/NVeHDkrtmZCxuNX6rVFd88CBY5BjrLJAD3KNXVv58s9fJYmuwbKLLuXMljjfBz3npTfbtHpzm844MkNfmJOhkf1T9yfdJ8enJZ/P1uhBAf3koTrF4r33Wwv6ja47J0+Hjw/LMB7oNZXVcb34Zpt+8dcGlVd5uzea6jOgMsPe/KE9+1qrnn2tVROGBnTmMZmadkgopTcXTWQFWY4u/EK2ctId3f9UY+/2Nh2p7KRsnTw7XVlpqd0eNu2M6rfPNXGSBXqNkTtH0i9Jomsw86GLTF+wZ4R13KtIAr3htXejemx1szLDjvrk+JSRopse+n1GYwcHNP2QkDbt7J1NwMJBoxvm52vOOAoPvWXX/rieWNOiq+6r0ZPrWtTQQtH3c9PTNTyFi49v7IjqxTe9u757b52rp15p1d/Xtygt5Cg3w0n5QWciCgWMJg8PKhQ0WvNW78zEGVTg10/OydPx09IVTuGi4459MT38jyZd/ctabdrJSRbo1epDePfqG24jCIoPCaXfzItPMEYnkwR6SzR+4FjOJ9a0KBgwGljgV1owNTsm/fN9OnxCWGkhR+ve7rkOYEbY6Obz8zXj0BANrhe8uyemJ9e26Dv31+ipV1rVGqHo8C8nHZamwX1St/jw5q6oVr3B5nKNLVbPvd6qx15uUdB/YE8IihA9K+A3Gj80qPSQo9Wbe7ZNnjw7Xd/9Sq7GDA6kbPF7T01cT65r1ZX31GjVG8lx2hVSvvrQZ9ici5btevHGFrLoPJZddFWzlDtH4jUoel9Vg6ufPlynP6xq1vnzsjRjdDAlZ0L0y/XpvOMzNXFoUCv/Uq+NO7r3zUh6yOjmCwo0dWSQRtbDtlXG9P82tOievzWquY2e6IcJBlJ7ABoO8nx9v7omV9f/rk73/LVBC07I1pxxIfXN5X1STwkFjE4/MkOxuNVtjzV082/b6DPFaTp+WpqmjAym7GyHmgZX/3yjVbf+uV77610aGRJqmNca9c+U9BeioPiQSNWHOYSARLKlIqpL76zWjNEhnf2ZLE0dGUi5oyD9PqO5E0KaPLJA67dGtHpzm/6ypkW1je6HduCG9/Nr8oig3t0Ta9cbq7Sg0U0X5FN46GG79sf19IYWrXy8QS3Mcvj4wXkg1b8fxYcPU9Xg6oe/qVWfXEcL5mVr9tiQ+uRQhOiRNhk0+uoxmZLU7gLE1JEhfWF2mpparFqjVo0tVmnBAzMYrZXCIaO8DEd9ch0N7RvQwHxfys50aI1YrX6rTSsebUj5E22QzMM8O4fiQ1dliU4rmb81xwbD1ZKY+4iEdfLsdH1xbobGDk7tUUptk6t9da4aml25VkoLSukhR1npRnmZjnyOUX2zq8debtGNv69T/BNesIQCRjex1KJH7a2N6x+vt2n5o/Wqa+IN2MH47ZV9NXJA6r5PeObVVl1yZzUX+hP0z/NpwbwszRoXVgEbU/bY4PlXTzceVAHCMdKCeVn6wuwMz28c6rrShm0R/fKpRj37WisNCQnNyjyz/taBR5MExYeEMLV092eN3MdJAoku4DM677OZmjc9Xf3zvf12zNoDx/f9+KE6bd394W9bggGjG+fn67AxFB56Qk2jqxc2tWn5I/WqrOEstfb409V9NagwdYsPL2xqU+mKKi70QRrez69FJ2Zr5pgDexOg9wsQA/L9+u4ZOZo+OuT545l37Y/pd6ua9aunGtnTAcmipa2wNnfj0vERougc5uZ1gaLpl5wloyNIAonOtdLLb0X0zGttKirwaUC+L+WWYhwsY6QB721c6RijV7d98HkS8Bn9/Lw8zR4bpuF0+xPdatUbbfreL2v1+1VNamylN9oeAd+B6d+pesqNJO2rd/UIR+0dtNomV39d16LNu6Lql+dXv1yfHF43dRu/z2jckKCCAaM1W/53bPL5Wen67ldyNG5I0NOnJDW3uXrmtVZd8YsavbCpjcPpkVSPWqcx/ZHKl39eQRSdvF8SQedZsd8DkktFVUwXr6zW8dPSdNZxWRpd5N1bQf88n0pPzFLJIUFd8+ta1TS6chzpx2fnac44Cg/dybXSa9siuu/vTLvtjIw0o1CK74kQCnCdO+L5N9r0wqY2nTw7XafMSf1ld70pHDT62rGZ8vuMbv1z/Xvt1uiKL+Xo08Vpnt80dfOuqO75W6P+to4DA5CcHGPnSHqZJDqHmQ+ddNRS629rabhFEjvRIem8XRHT46ublZnmaEC+X2khb3aOfI7R0L5+zZ0QVm2jqwXzsnX0ZAoP3endPTHd/1SjfvibWr27J0YgnVCY7dPpR2Wk9Cymhmarh//RxMXuoE07o3p0dYsCPqO+OT5lpbMUozv4fUZjhwQUCjhyXelH38jT4RPCnp1hKElV9a7++HyTrry3lg0lkdSMTOPul3/+MEl0Nkd0ytTSimlGlioYkt6k4UGVnpitqSODnl6P2tzmKi3oeHpqbHd3RP/fhhbd/Kd6js3sImOHBPTLS/ukdJst3x/TSd/fy8XuAoXZji4+JUdzx4dSeqlOb2qNWLVErPIyvZtvLG61ZktEN/2hXlsqKDogJVSuu7VoADF0DssuOsmR5tB9Rip4dVtEFyzbr7OOy9TJczJUVODNiVFsztY9ojGrl9+K6IY/1GlbJTMdulKfbF/KF8uCAaOg3ygS44nbWfvrXV15b40OHx/SOcdnacLQIMXWLhYOGk8vs9ixN6aHnmvSg88yWwkppf+k0srhr97afxtRUHzoNez3gFTiWumevzXqkdXN+vaXcjV7XEhBP71SdM62PTE9+EyT/u+fdES7gxeO7AsFjDLTjKobKD50lX9sbNMLb0Z0/ueyNG96mvrlsRIXndMasVr1Rqt+8lCdqhs5JhmpOHB250ii+NAJvOLrJCM7ixSQavbXubrkzmr94De1eoe31OigplZXT73SonNv2k/hoRvlZ6X+oDEUMMxK6gaxuNXyR+p1zk1VenJti1ojFHfQMe/uien639XpsrtrKDwghcd9vHTuLGY+dMLURRVDrewgkkCqenx1i1ZtbNMVX8rRERPCnt+tGwfH2gPLeG5/rEGr32ojkG4W9sB2x6GAUU6G0a79XO/usLs6pivvrdGJM9N05tGZOqSIUzFwcJraXD37apt++n91amim6IAU799QfOg0XiN0JjxDA0Tqq2ty9e17arT0V7XavItNo/Dxqhpc3f9Uo867eT+Fhx4bmHvjUV6YzbKA7vbISy365g379Yfnm9XYwkASH+/tiqi+/6s6fff+GgoP8Ag7vmT+1hxy6DhmPnSm+clSfIBn/G19i1a90aqLT8nRcVPCHNWGD94PrbRhW0Q3/L5OG7dTpOpJYY+8pC7I4p7TE1oiVj/8Ta3+sTGs8z+bpUMHMQsCH9TU6uq519t07W9q1cJSHXiLY4Nph0l6kig6huJD51B8gKc0tx3olD73elgXfI5OKQ6obnD1yEvNWv5IveK8/OpxoYA3lkPlZjLzoSc9+2qrXt7cpm9/OVdHTQqx5wYkSZt3RXXrI/V6/g1mtsGb3lt6QfGhgyg+dNDMsqrsqG2dQBLwoudea9XqzW26/LQcfbo4jb0gvPoAfm+2wy1/rNeGbREC6SVe+f2lBbnWPa25zeq799fo2Clpmv/ZTI0aSMHZq9qiVs+/0abv/bJGzW3MdoB3GWa+dwpl7A6Kqe0wSbyGgWe1Rqy+/+ta/eS3ddqxjxMxvKa+2dUDzzRq/s37KTz0sqBHZj6EgnRZestTr7To3Js5EcOrduyL6ccP1enSu6opPADSzKOWWl7gdxBP8g6y1s4mBUB65KVmnXfzfr24qU0ufRJPeLsipu/eX6Mbfs8yi4QYlHuk+BDmpXuvamh2deW9NfrJb+u0c1+cQDzR15VefqtNC5ZV6ZGXmgkEOCCjvnr3ZGLoGIoPHceUG+A9++tcld5WpTv/0qDaJkajqSoas/rH6606/5b9+udG1vsmzKDcI8suvHKqR6J75KVmLbh1v16g4JzSGltc/eH5ZpWuqFZlDcUm4P2MZRzYUTzJO+C006xPVjNJAvgPa6WVf2nQ939dq217WIaRavbUxHXrIw268I5qCkwJJuyZZRdc60SxuzquxbdX6cFnGtXAkZwpZ+e+mH74YJ2ufbBWsTgVJuB/+rzs+9BhrFfpgG39KybJKoskgP/13GutemNHRD/6Rp5KRoUIJAW8ui2iHz1Upy3lHKGZmINyr8x8YGPbROK60s9/X6+1WyIqPSlbw/vTpUwFr70b0dW/rNX2vbxEAD6S1VxC6BhmPnTkgcuSC+Bj7a9ztWBZlf78YrPaorw1SVbRmNWTa1u04NYqCg8JLOyZPR8oPiSiZ15r1Xk379f/e7WVt+RJLO5K/9jYqgXLqig8AJ9s4NRFFUOJof0oPnQE63yAg+rIfP/XtbrzLw2qaWRabrLZXxfXsj836Mp7a9jdPoGlBY0CHnnhzMyHxFXT6Opbd1Xrnr81qo5lWUmnuc3Vr59u1EV3VKuF+z1wcINow3iwQ7kRQYfQ2ICDdM/fGvXD39SqvIo3KcnirfKorrqvVr/+f42EkeAy0xyFPbIRo1eWlyQra6XbHzuw789Ojl9OGnVNru58olE3/6lelroDcPD3PPZ96BAW6LXT5At2FkkaTBLAwXvm1VbVNVl954wcDevHbSdRua700uY2XXVvjeqaeXuZDDLCxjMbMbLsIjk8+1qr3tkd0/fOzFXxKHYJTWR7auK68Y/1+tu6FsIA2o/iQwcw86G9gfmcw0kBaL/1W9t0yZ3V2ryLvQMSUVOrq1893aiy26ooPCSR3AxHAZ93Npw01B+Sws79MZWuqNJf17UoGuN1eiLaWxvX0l/XUngAOm5iyfytOcTQzrE0EbQzMKPZpAB0zLt7YvrBA7WcGZ6AndCf/66eabdJqE+Odx7jQf+BPS6QHNqiVt++p0Z3/7WR43kTTHObq5V/adDqzW2EAXRmHB1Km0kM7Q0N7WKZYgN0yqadUf3un00MchPE1t0xffueGv3pxWbCSEJ5WT7PfNdQwFFmGt2WZHPnXxp0za9rtYMTFBLGPza26Q/Pc88HOstl34d24yneDpMurcyQNIkkgM657++NemMnyy9627q3I1q0fL9eeSdCGEkqJ907j/Fw6MAeF0g+z77WqiW3V+uNHdz3e1tldVw//786ggC6gOGldLtRfGgHX0vsMLFJJ9BpcVf6x+utBNFLYnGrJ9e2aNHyKu2rYzp0MvPSCRB+xygvk25LstqxL6aFy6v0ElP9e9WaLW2qauC+D3QJq8OOWmoZG7YDT/F2hWWobgFd5DfPNGlPLXs/9LTWiNUDzzTpyntrFGEjuKTntRMgCrJ9XPQk1tDsavFt1XpiTYtice4/PS0et3p8DRtMAl0oo2HfbmbFt2s8jYNmDVNrgK7S2OJqSzlrgHtSXZOr2x5r0M1/rCeMFOG14kNhNt2WZBeLW111X40eeKZJzW28ge9J5dVxvfwWM0+AruQa9n1oD57iB2updSTDjqZAF3q7gvW/PWVPbVw/fbhOv3q6kTBSSNBjxYcsNpxMGTf/sV63/rlB1SwB6DH761y5xA10KfZ9aB+e4gepeM+uCZLlLFegC63Z0iaXmbfdbsfemL57f62eWMt021QT9tjRk2GO2kwpDz3XpB/+plbl+1mC1xOq6skZ6AZzieDgUXw4SMZhvwegq72yNUJnqJu9tSuqi++s1totTLVNRaGA174vxYdU8+xrrbry3mpt28MyvO7GLBOgWxSVLKkYQgwHh+LDQbJsNgl0uZaI1e5qig/dZeP2iMpur9K2Sjr1DMb5vkhcr2+P6rK7qlmK182aI0w1BLqDG7OzSeHgUHw4eBQfgG6wn6Meu8Ur70S05PZq8k1xXluGQPEhdb1TGdOS26u1aScFiO7S2MLzAOgOhkMJDhrFh4MwtXTHQBkNIwmg6+1n2UWXW7OlTYtvq1JNIx1NBuOphT0fUltlTVxLbq/Sa9sihNHFKqrjWr2Z5XdAN6H4cJAoPhxUSA4NCugm9/29Ua/S0ewyL7/VpiW3V6uplem1nhiMe27ZBdc81VXVuyq7vVpr2Kemy2zbE9OV99bojR3MKgG6yaSZZVXZxHAw42p8Iks1C+g2lTVxLb69mjcyXeC511tVtqJarazr9cYD3HjvqM1QgG6LFzQ0u1pye7We38RzobM27YzqojuqmU0CdC9fRK0ziOEg+i5EcBCM2EQE6IGO5pNrWxRnpUCHDSr06/CJYYLwiIyw48ENJ7nuXjFlZFAFWXRTO2P91ohKl1dp5z42HQa6fbhoeVl9MPxE8PFmXbQzrS1qJpME0L0iMaur7qtRVYOrU+emK+hnbXd7jejv1/e/mqMjxof0o4fqFIkxAyKVZaYZzw3Gw8x8SHmOIy2cl60vzE5XXibXuyOslZ7f1KbL7mYmHNBjvztmyh/cPZ4IPl40qpmSgiQB9EyH6ee/q9PdTzSqoZkpEB2RHnJ04mHpWrm4UBOHcetKZZlpjucG4yGadEob0tev5QsLdNanMik8dFDclf66rkUX3VFF4QHoQcbqsNNOsz6S+Hjc2T+BK0MVC+hhdz3ZoFsfbVB1AwWIjpo4PKCfn5ev8z6bJcMkkpSUn+nI8dhTPBQw8tFzSUmnH5mhWxcWaMahITncszqkNWr10LONuvLeGpYwAj3NKGtLn/KJBPHxeIR/MooPQC949KVmVTVwDGdnFGQ7Ovczmbr5/AIV5nC7TzWFOd57wRLyG2WEacupJCfD0fXn5evCL2SrqICXhp1RXe/q/qcbCQLorYG14aX1J2ZEBB/HGiszkxyAnnfJF3N0yEB2l+ssv89ozviQ7lpSqBNnphNICsn34GZ8oYCUGea1eKqYPTaklYsLdPSksALs89NpAwt8uvy0XIIAeokxvLT+JBQfPsa0xXvGGymfJICeNWl4UEdP4tSGrjS4j1+Xn5aj687OU1qQTn4qyAh57zqGgo6y0ui6JDufI33r1Bz9+Jt5GkWRuUvNHhui0Az0Ejad/GQ8wT+Ga2M0IKCnb0qOtOQL2Ww21g3SQkbHTU3TysUFKh4VIpBkH4gHvFd8cIw3Z3ykktFFAd15YaFOPzJDmRSSuuW+8I1PZSo7nWyBXjBk+sLywcTwMc9xIvhoxjqzSQHoWed/NkuThrOlfXcaNzSo687O04VfyGZjt2QeZHh0BosX97pIFV89JkO3LMjXZO7x3WpYP78uOSWHIIBeEHfE+PFjUHz4GEydAXrW4D5+nTAznQFxD8jPcvTVYzJ1x+JCFRX4CSQJhQPe/KEwKyo57zc/OzdfZSdlqw/Fox5x1KSQ5o5nhhvQ0wzjx4/FE/wjzFyyp59kR5IE0HO+dWq2+ufRMe2xB6SRikcFtXxRgU47PINAkkzYozMfMthwMql8qjhNd11YqGMmh+X3ce16Smaao/M/l61ggMyBnsTL649H8eEjRN04DQfoQV86PEMzRvOWpjcM7uPTxadk68bz81knnERCHh1UhNgwNSkEA0ZXfClH3z0jR0P7MruqN4wbEtDik7IJAuhZk+dcti+LGD4cvcyPwJQZoOfkZDg6/cgMjlrrzYGC3+iICWHduaRQh0+gCJQUg/CAV78394lEN2FoQCsXF+q0wzOUEaar2Zs+U5Km8UM5UQToQb7mprYZxPDheCJ8BGspPgA95dtfytHQfrwZSwSjBvp1zdfydNlpOUyRTvRBeNCbj/AwxYeEZYx03vFZ+vl5+Zo4jAFvIsjPcnThF3Lk0OMHenCAbRhHfmQ2+B+zLtqZJtmpJAF0vyMmhjWbTbESSna6oy8dnqEVpQUaRlEoYTHzAYlkQL5fty4s0PzPZnEiSYKZMjKob36KWeBAT7GGl9gfheLDh2iL+aZJ4hwooLtvQEY667hMZYS4FSUaY6SS9zaj/PpxmQSSgMIBb/5uKD4knpMOS9eKRfk6bEyIN+wJ+qz9/Kx05XNSDNBTDjvtNEsV9sPuR0TwIZ1ullwAPeLrx2VqEue9J7T+eT4tnJelG8/PV24Gj4zEGoR783uH2XAygdqg0dVn5ury03I0hE0lE1pRgU+LP8/mk0APyX67f/kEYvhf9CQ/hJWl+AB0s/SQ0Qkz0+Uwjkh4gfc2o7xjSYGOmhQmkAQQ9BvvnnbBzIeEMO2QkO66sFAnHZZOQShJHDkprInD2YsD6JFBtmXfhw/NhQj+mzUyOowcgO510Sk5Gs5+Akll1ICAlp6Zq6tOz1WAzSh7VUbYKOin+IBe6DgaaeEJWbru7DyNG8JANplkpzu64HPMfgB6ZERpNZsUPuQZQgQfVLxw9xhZFZIE0H2G9/PrcDaZTEpZ6Y5OmZOulUsKNYHd7HtNZprj2bfNFB96z5A+fi1fVKBvfjpLuewfkJSmHRLU52elEwTQ/Zj58CF4cvwXw+6kQLdb8oVs9WE39KQ2aXhAN5xXoAs+lyXDWLDHZaV5d+YDR232jlPmpGv5ogLNODTEcrkk5vcZfemIDAX5HQHdPKjUsElluwYRxAdRfPgv7PcAdK8jJ4U17RBmPaSCgmxHZ38mS7csKFDfXIpJPalPjs+zRZ9gQAycelBmmtGPv5mnS7+Yo4EF/M5TwZhBAS34HEdvAt0tYDWLFD6I4sN/MYb1OUC33XAc6RvHZSotxMAhVfgcafbYkFYuLtAJM5jK21Pys7z7+A4FHGWGuYf0hFljD2wq+eniNJa7pJjPTEtT/zyKSUB3siy9+N+xABH8R8n8ikIrHUISQPf4+rGZmjCMozVT0eA+fl3xpRxd87Vcdr7vAXmZ3h00hANSZpjuS3fyOdJFJ2fr2rPydMhA9nZJRf1yOXoT6H6cePHfeHq/Tzxg50ii1wx0A47WTH1pIaN5M9J114WFKh7F0ppuzdrDNbxgwCg7g+5Ldxnez687FhfqzKMzlUPOKW3u+JBmHMq9GuhGU8Yv3JtJDP/BU+WDYVCdArrJ4s9nc7SmR4wdHNBPzs7TgnlsRtl9A3BvP7775NB96Q7fOC5Ty0sLNHVkkN+uB2SEHX3z04yLgG7kD/sj04nhA+NtvA/FB6Ab5Gc6mjsuTBAeUpB1YDPKlYsLVVRA0amrhT2+eimfYx67VF6moxvn52vBCVnqx+axnjJ1RFDHT0sjCKCbuJbx5fvx9H7PqLItIRkVkwTQ9co+n60B7JLuvQeMkYpHBXXrwgKdOjeDQLpQ2OMzH3IzuZ90leOmpunuiwp1xMSw/D6mO3hNwG906tx0ZroA3cSw78MH+4ZE8F5HxqZPk8SrWaCL9c316bAxrCn1siF9fbrki9m6/tx8pXPSSZcIeXzmQ5g9EDstGDC64rQcfe8rORral9lJXjZxWFAnzeS0IqBbWM0+7TRLxfw9FB/e47LkAugWZSdlqy/TeBno+I2OnhzWyiWFmj2OYlRnef3Yw3CQ7ktnjBsS0MqyAp12RIYyODnE8/w+o5PnZMihKQDdIfudfrvGEcMB3GbeY4xmkwLQtQb18WsmO2njfcYODujas/L07S/nMsW7E7xefAgx86GjfR2d9alM3TA/XxOHc+wx/mP80IBOP5LNJ4Hu4LL04t8oPkiSrLFWs8gB6FqlJ2apIJvbDD4oO93RF+eka+XiAo0ayCiyI8JeLz4w86Hd+uQ4umF+vhbOy1KfHGaj4b8GBEaaNz1NAYrCQJczzLD/z72GCKTJi8oPkdSXJICuM3JgQNMOYdYDPuJBbKTJI4K66fx8ff1Y3ra1e/DNzAe0w2eK07RycaGOmMCmkvhohw4K6Kvcj4Gu7/Mw8+HfKD5I8hkaBNDVLvhclvI4Dg+fYEC+TwtPyNKN5+crN4P2crDCQY/v+RBgAH0wQgGjpWfm6ntn5moIm0rikwZIRjq+JM3zxU2gq1lp+OQLdhaRBMWHAzdbpsIAXWrckICmHcJ6YhycgN/oiAlh3bGkQEdO5NChgxkgMPOBwdEnKTkkpLsuLNSJh6V7vliFgzdqoF9nf5rZD0CXD7oDhiX+ovggSbIUH4Aude7xWcpO5/aCdnZ6BwT0/a/m6jtn5LLu+GOkBY2CHn+JHWIw/ZGMkRbMy9J1Z+dp3BDWp6D9Pl2cxrHIQFffmxlvSqL4oIkLtudJOpSmAHSNScODzHpAh2WlOzp5drpuX1yg0YMYOH2YjLCjUMDbj2+WXXy4IX38uq20QGd/hmVv6EQ76uvXecdnEQTQtSg+iOKDAo5vjiR6MUAXOfPoTM6NR6dNGRHUzefn69zjs2S4Q39AZppR2ON7ubLs4n+dOjddK0oLNH10SA7xoJPmTgjzOwO6knWmlMyvSPd6DJ4fIVg2mwS6zMACv4pHMesBXaNvrk/zP5ulZQsK1CeXgta/5GY68jvs+UBR6oCMsNHVX8nVRafkaEA+R2iia4zo79cZR2UQBNB1o86ACcZneD0Fz/fmWH8DdJ3zjs9UfhaDRHQdnyPNGhvSyrJCzZuRRiCSCrMZYAYDRmns+6BZY0P6xcWFOmlWOktR0OWOnZImh0c60GVcjtz0dvGhZP6agKQSfgpA52WnO5p2SIgg0C2G9PXrii/l6Ptfy/X8zv0FFPgUDhhlpXk3B58jXXRytq49K0+jBrA3CrrHmEEBff6wdIIAuoiVM9vrGXi6B2ND/UskcVcFusDZn87UwAJvvpFtanVpAD0gPeTohBnpuqOsUBOHe3fA5eVB97+kBY0y07xZhBo1MKA7FhfqzKMzlZNBW+gJrVHrzUGCI31uOjPOgK5iZGdrqfX0jdvxdgNgyQXQFYIBoznjw579/n98oVl/XduiODWIHjFhWEA3nFegBSd4czPKMMsN5DhSXpb3ip1nHp2hG+fna+rIIHte9JBXtkZ0398aFYt7swAxcVhQR08O0xCArpE7eV/lWC8H4OmTwq1l3Q3QFb5yZIaG9/Pm7WTTzqhu/XODonGrSxpcfXFuuoJ+RgXdLT/L0dmfytKkYUFd80CddlfHPPPdKT4c4KXlJ9npjr77lRwdPiGsgI/r3zN9ROmlzW361l3VaolYTR0V1IzR3ltaGPAbnTw7Xf9vQyuNAugCPmPnSNro1e/v9fl6s/gJAJ1jjHT0lLAn38JFYlYPPN2oSMzKWun639Xp7icb1dDMFIgeeYA50oxDQ7qttEBfnOOdXdk5/s5bxYejJ4d115JCHTM5jcJDD4m70l/Xt2jJ7dVqbjtwf7/90QbVNXnz3j5lRFCTR3CSFdAl/WaPz7z3bPGhpGzHSEn9+QkAnXPSzHSNHezNTsmatyJ6fE3LB/63u55o0M1/qld1AwWInjK4j0+Xnpqt68/NV3oo9QdnFB8OyEzxvS/8PqNvnZqjpWfmauRAPxe8h7RGrX63qklX3VvzgaUWG7ZFtOqNNk9mkhF2OHYT6CKW4oM3uXJYcgF0gc9NT5PPg3eSmkZXyx6p/9B/9ofnm3Xtg7WqqIrTQHpI0G909OSwVi4p1KyxqT01miMV38shhZefjB0S0J1LCnT6kRkpX2RJJI0tru5+slHX/bZO9kO2eLj+d3XauS/myWymjw5pWD+KYEDn2ZElF747gOKDxxjLZpNAZ80aG9LE4d6c9fDUKy16a1f0I//5M6+26rv31+jdPTEaSk8O2gYH9IOv52nx57NT9nz6ICcrSkrNIowx0nnHZ+mm8/M1aTjT3HvS/rq4rv9dvX7xZMNH/jt1Ta7+/GKzXA/uPZmb4egbx2XSUIAuYONBzy79927xQWw2CXTW5w/L8OQU8G2VMd3yp/pP/PdeeSeiC++o1qYdURpLD8rLdPT1YzN1R1mhhvdPvTd14SBvwiUplGIzHwpzHN0wP1/nHp+pwmwfF7gH7dwX1zUP1OqRl5o/8d+992+NevWdiCdzmjoq5ImlbUD3j0O9+xLckz2YKRduy7XSWJo+0HG5mY4mj/DeK1jXlX6/qklNrQf36mvnvpjKbqvS+q0RGk1PPtiNVDwqqFsuKNCXjkittcrMfDgglZZdzJuRpjuXFOqICWH52VSyR71dEdO376k+6P0cXCvd87dGNbd5b1+fQYU+9n4AuoC1FB88xR/1zxYnfQCd8tVjMtU313tv517fHtGDzza16/9T0+hq0fIq/eP11g9dR4zuM7DAp4tOztZPz8lTVnry3/Y/VZymIX1Ydy1J/VLg/hMOGl3ztTx9+0u5XNdeup8vuaNam3a2b3baPze2au0WbxaUZ48L03CAzisumV+RTvHBI1zjm02bBzrOGGnmaO+tR47GrH77XFOH1vu2Ra0uvrNaf36xWdEYFYieFPQbHTslTXctKdCRE5O743zooIByM6idS1J2kheTJg4P6s4lhZo3I01pTGXvca9sjah0RbUqqzu2L8+KRxtU0+i92Q9jBwc0c0yIBgR0ig24AU2j+OCVyy02mwQ64+jJYY0e5L253+u3RvSX/zpasz1cV7rmgVo9+FyTWiMUIHraqIEBLf1qrr51ak7STm3PTafw8J/ig0nKpReOkUpPytaN5+Vr3BDW0PQ010pPvdKqBbdWqaG548WDt8qjWr3Ze0dvhgJGnz8snYYEdH4QPsej39tbSuavCRjZGTR5oOPmTU/33Lrk5jZX9z/V2CV/1k1/qNeyP3vzrVnvD1gdnX5khu5aUqjRRck38Oufz0aE/1KQ5dOMQ5PrDezAfJ9uvqBAZx2bqbwsCkk9LRqzeuTFZl3xi2pFumAG2i1/qtfeWu8dqTx1ZFA5zMACOsUaig+eEPcXTZFEyRbooL45Pk8er7lmS0QvbOq6t1wPPtuoG35f58mOayKYODygm87P19eT6Oi4oN9ocB+KD//uwDjSnHHJU3w4dW6Gbl9cqNnjQil7DGwia2o9UEC+5oHaLjsqs7Imrn++4b3ZD31zffraMWw8CXSy/DBbS63nngbe+8LGsuQC6ISvHZuhAo+9satvcnXnXxq6/M99/OUWLf11rXbui9GwekG/PJ8WnZClG+fnKz8z8dv0kZNCGljApoTvd0gSzF7JTDP68TfzdPEp2SoqoHjUG2oaXd36SINWPNr19/Hlj9Rr137vFZGnHxqWYasSoDPyplZVjqH4kOIM+z0AHb9hGKnkEO9tNLVqU5ve2BHtlj/7pTfbdPGd1dq6O0oD6wV+n9ERE8O6Y0mBjp+WltCf9dgpaXLo7H/AmEEBHT4hcTcRPWxMSHdfWKhPF6cpFODi9YbKmriue7hOv32uqVv+/NpGV39f3+LB355fR0/i5Augc+NS770U91zxwRo7i6YOdMxnp6frkIHe2iCtqsHV7Y83dOvf8c7umEpXVOm1dyM0sl4yon9AV345R985I1fBBBwk9s31afKIIBfqv4QCRqfOSbyVlD5HuuSUbP3oG3kaNZBNJXvLu3ti+u79tfrbuu4tDtz5RIO2VXprBpvfZ/TZ6axiBjo1LrWi+JDKJpVWDpdURFMHOuZTU8OeW6v88ltt2tUDyyL21rpatLxKL73ZRkPrJRlhRyfPTtediws0YWhiDRgXnpClvjlM2f8wU0cFE+rovxH9/bq9rFBnHJXJpny96M1dUV1yZ7XWvd3999TWiNUzr7V6LuPJI4Lcl4BOYOZDivPLZckF0EH9cn2aOMxbb15rm1z94q+NPfb3NbVaLbm9Wn9f3yKXgzB6zYRhQf38vAKd99mshFjTPGl4UHPHM735o2SEHZWemJ0Qyxq+ekymli0sUPGoIOvhe9H6rRGVLa/Su3t6bjbCL55s0I693pr9UJDl6KvHsvEk0Amjpi/c25/iQ4qyRrNp40DHnHZEhnIzvfUWb+2WiLZW9OxeDNG41RX31Oj3zzd1yVFw6JjCHEfnHZ+lZQsK1C+3997sBf1GS76QrbxM3qB/nHFDArr0izm99vfnZDj6+Xn5Kj0xS/3zeBPca/08K/1zY6tKV1SpuoePMm5us/rnRg/OfhjOcjCgM+Im5qktATzVm/Hi1BagyzoYHltv3tji6r6/NfTK322t9OOH6nTPXxvV2MIUiN7ic6RZY0O6fXGBTpjZO5tRXnVGjqaw18NB+cy0sL50RM+/hT1mcpruvLBQR00KK+BnukNvicWt/rKmRRevrFZrpHcKtyv/0ui5ky8OKQpwjwI60+fz2GEIninPzyyrynZt7Ofy4CabQGeNGhjQOZ/OVNBDHesX3mzTr55u6tXPsPbtiOqbXY0fGlR6iEFNb8nJcDRrTFjD+gX04pttivXQ2GLx57N18qx0+Tji4qAE/UbjhwRV0+jqrfLun7EU8Bld/qUcnfuZTGY79LLWiNXD/2zSjx+qk9uLE8YiMauhff0aP9Q7g3G/z8i10nOvt9IQgQ4wRmb36hvu9sr39cxAPGrbZslDxRagK50yJ10ZYe/U7ZrbXP36/zUlxGf5/apm/ejBWlVUxWmIvSgcNJo348Ab7u4+btYY6eJTsvXlIzJ4k95OeVmOLjo5W18/LrNb/55xQwJauaRAp87NUGYa7zR6U32zqzufaNANv6+XTYCVaiv/0qDKam/drycMC3puM2qgC5XMumhnmle+rGcG4/1nXHKWkY6kfQPtHwhd8Lks9fHQjtarN7f16EaTn+TdPTFt3B7V5OFB1v73sj45Ps0dH1ZhjqO3d0fV3Nq1o52sdEfXfiNP82ake2qmUVcKB42KRwU1ckBAq9+KKBLtumt06KCALj8tR187LlMj+nOEZm/bVxfXLX9q0G+fa0qYz9QasRoxIKCxg73TPnIzDtwPvXbcKNBV43E35jyx++Wf76D4kEIGzrj4O5KG076B9plxaEhfPTrTM1O/IzGrW/7UoO0Jtmv5ntq4XtjUpskjgp4qBCWitKDRpOFBHT05TWlBow3vRNQVw9sTZ6bpqjPyVDIqKFZadLJz4xiNGhjQkRPD8vuljTuinXornpnm6MKTs7XoxCxNGBr01EywRLVrf1w/eqhWT72SeNP939wV1fElaUr3SDtxjOS60tMbWHoBdISV3qp8+YZVFB9SxGmnWV9NZsMySeyIA7TTucdnadwQ7/x0Xt0W1bI/1yfkZ6tvdvX0hlZNGBbQwHw/jbOXZac7mnZISDMPDSkzzWjzrpji7dwf1Bjp08VpuuSLOfryERkUlrpYXqajw8aEdcT4sAbk+7R1d0wt7diMcHRRQAtOyFbpiVmaPS6s9BBFh0TwdkVM37mvRuu3RhLy8zW1Wo0bEtSogd6Z/RAKGP3++eZ23wMBSEZq2f3yDb/xwnf1RO/1nb67J0vKpGkD7eNzpPHDvFWze+a1xH5zU9vkqmxFtX7yzTwdPiEswxvyXuU40pSRQU0ZGdQpszP02vaINm2P6u+vtKi64cN74ekhoznjw5oxOqTxQwMaOcAvv48L2W3XyEhjhwQ0dkhAX5idoXcqo9q+J6bte2PaUh7Tntq4Yq5VwGc0tK9fhxT5NajArxED/BrR3680Cg4J5fXtEV3+i1pVVif2FP+HnmvS4RNCnilYDSr068QZ6frdqiYaKdD+6sNsyRrJ2NT/qh4wtbS8zEi30LKB9jm+JE0/+HqeZzaS2lYZ01eu26dILPHv/Y4jfe+MXH12ehoD1wRU1+Rqf72rplZXLW1WMdcqHHCUnW6Ul+WoIMtH4ShBRKJW0bhV0G/Y4DPBrd7cpst+UaOG5uR4vb6itEAzDw155vo882qrLrmzmoYKdGhQbsauvXXgm6n+Pf3euJjeOj8V6CpHTQp7agfrF99sS4rCg3Rgfe3SX9eqsiauM4/JYDp4gsnJcJSTwTVJBsGAUTBA0SHR73fPvNaqq+6r6dINRLvbk2taNP2QkGeeo+OGBJSd7qi+mbUXQLvvc7JzJKV88cErPaPZNGmgfcJBo3EeOqu8qt7V/U81Jt3nvv3xBt3xeKPqmujsAUg90ZjVn15s0uV3VydV4UGSHlndrLfKo565Vn1zfTp1bjqNFugAr7wsT/niQ8mSiiGSBtOkgfY5viRNRQXe2fxu/daI9tYm59nsv3q6UT99uE57auM0XAApo6nV1X1/b9QPf1MnNwlXQruu9Pwb3joBonhUiIYLdADFhxThupYlF0AHTPfQOtXWiNXD/0zuTbKeWNui791fqx17OWcdQPKrbXK14tEG3fZYQ1J/j3v+1qhd+71TGB5dFGDJGdABVjpk0gWVfVP9e6b83cFYllwA7b4xGOmQIu8cEfb69ojWvNWW9N9jzZY2fevuGk9N8wWQeipr4vrRg3V68NnkPzmhuc1q/dttnrl2BdmOTpyZRiMGOjBsdXzxWSk/xvDAhWTmA9BOM8eENbSPd5ZcrHojdTqGb1dEtXB5ldZvjdCQASSdHXtj+t4va/XUKy0p850eeq5JzW3e2Zdn0vAgDRno2MB8jge+Y+oav3BvpqSJNGWgfY6ZHPLM8Y0VVXH93z9S61zymgZXZSuq9M+NrbKW9gwgObxVHtWld9Vo7ZbUmimwaWdUm3Z6Z0ba6KKAghxbC3QExYdkFvRFD5NHjhMFurTjMMg7Sy42bIuouS31RugtEauLV1bribUtisWpQABIbOu3RlS6vEpbd6fmIH31m95ZelFU6NeRk9h4Emg3o5KjvrEtnMpfMaWLD8ay5AJor2H9Ahrezxs1u2jM6rHVzSn7/eKu9N37a/TAM01qjVCAAJB4rJVefLNNi2+rUlVD6i5NeOCZJlVUeWPjScdIc8aGadxA+4UaM4MlKX1/SOkHGvs9AO32+Vlpygh7Y6fqzeUxvZjib6OslW7+Y73u+WuDGlpcGjiAhBF3pb+ub9GS26tTcgba+zW3Wb32rnf24hk9KCDDygug3dwUH7+m7AjjtNOsz8jMoAkD7XOoh5ZcvPxWm2f2RLjryUb9/Hf12lsXp5ED6HWtUavfrWrSVffWeGZp2KMvtSgS88Z3Hd7frwnD2HgS6ACKD8loS5/yiZLNof0CBy873dGogd4oPlQ1uHro2UZPXd9HXmrWDx6oVfl+ChAAek9ji6u7n2zUdb+t89SmuM9vavXMUchBv9Gnp3LkJtBuRrMlm7LzhlK2+OAYw5ILoJ1OOixNBVneWHLx2raI9tV5bxnC82+06dv3VuudyhgNHkCP21cX1/W/q9cvnmzw5Pdfu8U7Sy/GDA7Q4IH2siqctqRidMqO0VP2uhnNpvUC7TPZI2dzWyv9841Wz17njdujuvD2ar2xI0qjB9Bjdu6L65oHavXIS82ezeA3zzSqptEbhe9RA/3ql+uj4QPtFHdTd+lFyhYfDJtNAu27GRhpxABvvKUor4rr8dUtnr7e5VUxla6o0potbTR+AN3u7YqYvn1PtZ5/w9v3nH11rt7c6Y3Cb3a6o5NmpdP4gfaOYyk+JJeppTsGShpK0wUO3vhhQRUVeOMNxaYdEbVFOXqyrslV2Ypq/b8NrXKJA0A3eX17RBetrNamncy2kqRXtnqnADNmEEsvgHZL4Rn8KVl8MNaZS6sF2ueYyWEF/Kl/Lpa10qo3eNv/L5GY1bfurtYfVjUpGqMCAaCrB9oRla6oVkUV+8z8y2//0ax9Hjl5aHh/vxyHaw6006FTy3b3ScUvlpK3Ays2mwTaa1g/vye+5859MT25toUL/v57ppV+9FCd7vlbo5raXAIB0GmuKz29oVULllepoZn7yvvVN7vavMsbxZhBhX6VjOLITaCdjJF7WCp+MSdFrxbFB6AdfI53ig+bdkY9c856e93xeINWPNKgmgYGCgA6LhqzeuSlZl1+d7UiLHH7UGs9st+Oz5EOn8CRm0C7x7Mpun9hyhUfJl1amSFpMk0WOHjFo4Iqyk/9/R5cKz33eisX/GM8+GyTrn2olinSADqkqc3Vb55t0jUP1LKXzMf43aom7an1xtKLkf39XHCgnSzFh+QQiMRmSOIuB7TD4RPC8vlSf7+HHXtjemo9xYdP8v82tOq799dq+14KEAAOXm2TqxWPNOjmP9YTxidoarV60yPHHQ/v71d6yHDRgfawmj6qbEso1b5WyhUfXMuSC6C9hvXzxm7Um3ZGFY3zKu5gvPJORJfeWa23drE7PYBPVlkT148erNODzzYRxkF6abM3ll70zfVpzvgwFxxon1CWm1acal8q5YoPhs0mgXYJ+Ixn9nt4eTOnXLTHO5UxLVhepQ3vRAgDwEfasTem7/2yVk+9wma+7fHIS83a64GlF8ZIJSPZdBJo90DdpN64NrWKD0utI6uZNFXg4M0cE9KAvNTf72FPbVx/W0/HuL1qG10tWl6lZ15tlWXSCID/8lZ5VJfeVeOZDRS7UnOb1ZYKbyxvG9KPFdFAe6Xivg8pVXwo2b9rvKQ8mipw8GaPDXniDO63K2JqbmP03BEtEatv3V2tv6xpUYxlKwDe88rWiEqXV2nrbpZnddTmnd6YWcLrMTwAAIAASURBVDa4j1+hAPs+AO1iNFeyKfXDSakhh8uSC6DdhnrkbcSbO1k60Kn7qyt975c1evifzWrl6DzA06yV/rmxVYtWVKmKo3k75bHVLWpqTf0M++f5NOPQEBccaNfNVoVTFu8alUpfKaWKD6l6HirQXfw+o8F9Ur/40Nzm6rHVLLnoigHH9f9Xpzsea1B9MwMOwIvirvTX9S265M4atUYoRHbWu3tj2laZ+ksvHCPNGE3xAWj3b8em1sv1VJtsPZsmChy8QwcF1C8v9ddcbN0d49jILnT/U4266Q/12l8XJwzAQ1ojVg8+26gr76lhCVYXeqvcG8tWhrLvA9BuVhQfEtLMJXv6SWYETRQ4eHPGheR3Un8N5pZy1iN3tT+92Kzv/rKWog7gEY0tru7+a6Nu+H09YXSxf7zeprgHJpMVFfhk2PYBaBdjRfEhEUXi8bk0T6B9BhWm/lsI1z3QsUPXW725TVfdV6OtuylAAKlsX11c1/+uXr94soEwusHzm9pUvj/176P983wa0ofZD0A7jSmZX1GYKl8mZYoP7PcAtF9RQeofsVlRHdPzmyg+dJdNO6Jacnu1Xt/Ohp5AKtq5L65rHqjVIy81E0Y3icWtJ5ZehINGc8az7wPQ3mGuDbiHpcqXSZnig6X4ALS7E1BUmPrFh+1746xN7ma7q2NaeGuVXnyTIg+QSt6uiOrb91Tr+Tf4bfdE1l4woj8zH4B2j3NN6uz7kBLFh1kX7UwzslNomsDBmzIiqILs1C8+bNvDkoCe0NRqdeHt1Xp6Q6tcaj1A0nt9e0QXrazRpp3smdMT/rquVc1tqb/xw8ACig9Ae6XSDP+UKD60xvwzJAVpmsDBm3FoSKm+12TclZ5/o5WL3UOicavL7q7W71c1KRKjAgEkq1e2RlS6oloVVRRve8r2vTHt3Jf6JwgNzPfJcbjeQDtNH790Y0qMdVPi529kWXIBtJMX9nuorI5p3Rb2IuhJ1ko/fqhOdz/RqMYWl0CAJOK60tMbWrVgeZUamvn99rTte7yx6eTIAQEuNtA+4VBVTnEqfJHUqD1azaZNAu3jhamP7+6NK8p+D73iricbdPOf6lXdwAAGSAbRmNUjLzXr8rurFYly3+wNW3an/hKXgN9ozlg2nQTaK1WWXqRA8cEaKzuLJgkcvOx0RwPz2e8B3ev3q5p17YO1KmfqNpDQGltd/ebZJl3zQC17tvSiv61tUVNr6hdsh/Zj3weg3SNeayg+JIKpZZVjjZRPkwQO3mFjQsrNTO1Fl3FXeoH9HnrdM6+26jv31WrHXgoQQCKqbXJ126MNuvmP9YTRy3buj2vXfg/s++CBZZ9AN6D4kAjY7wFov3FDU3+95e7quNay30NCeHVbRBetrNbmXeyaDySSypq4fvRgnR58tokwEoQXZuwNyPfL7zNcbKB9+paU7RiZ7F8i6YsP1oriA9Deu1dO6r91qKiKsd9DAnl3T0yly6v0ylYKQkCi/CavurdGT73SQhgJZEt56hdp++U5GjOITSeB9nLlJP24l5kPgAcVZnuh+BDnQieY6kZXi1ZU6f+zd99xdlTl/8A/Z+b2u73v3d303nslEHpvoSOKqKCIKFi//myxfS1flJIiRhREFKX3XgLpZTe99+297+0z5/fHJpiEJGy5d/fOzOf9evFCkOzOfebcmTnPPOc5K3cEIZkXIuo3e8oj+M5fGrH5IJOBiWb5tiCCJm/4aVMEZox08GQTdXfea4KX7oZOPky9qzILwFAORaJuXLgEkJ1m/k2291WyxD8RBcMS9y9rxJsb/YiyMoWoz20+EMa9SxtwmA15E9KRmiiqG82fPM9NY98Hom4/w0Mw+dCvHDgLABeNEXVDTpqKzGRzJx8CIR2rdrDZZKLSdeAnTzbjqQ86EAgxAUHUF6QE1u4O4d4/NaCBW+Am9HmyQuVeNpMPRN2/PgBjZt9fZuiNFhRjnwAuuSDqrgmDHfC6zJ18qG7SUc5lFwlv0SutWPJaG5rbOREiiidNB97ZFMC3Hm2Enwm/hFfRaP6qlKwUhSeaqPtEJIxZRv4ARv/mM/lA1E0jLdDkqaIhyp4CBvH08nY8+GILaluYLCKKh2BE4vlVHfjRE01c6mQQey2wM1BWqgqHjcXLRN2lG3zphWGTD8Pu3ecEMIVDkKh7si2w00VFPSeyRvLa+gB++mQzjtRyDTpRLLUHdPz17Xb87pkWJmQNZOWOENr85j5hmSkKBuZw6QVRtwkw+dAfUjXvdABOjkCi7slONX+p465yNps0mg17Q/j+Y404WMVzRxQLDa06HnqpFX97u43BMJjaZg3VzeZOotsUgcnD+BhP1H1ixtiFOwy7XYxhZyG6YL8Hop4w+zabbQGJtbtCPNEGtL8qim8sbbTEPvdE8RQMSyx6pRUvrvYzGAZVWW/+SrCiLBtPNFH3ud0NKZOMevCGTT4I9nsg6ra0JMX0TZ7qWzXUsX+AYdU0a3irOICOIJtQEvVEMCzx5PvteHUdEw9GVmGFHS9S2XSSqCd0ady+Dwb91ksBYexOn0T9YcwAB1K95r7Z1zUz8WB0T7zbjsfeauc2nETdFIlK/OvDdvz5DS61MLq9FdZoOklEPcLkQ1+a9q3KEQCyOe6IumfsQPPvdFHbwjfmZvDk++14aU0HdJ5Ooi5btTOEJa8x8WAGJQdCCITMfQHMSlEguOEFUbdJiLOMeuyGTD5oOpdcEPVEZrL5Sxzrmrljgln88YVWbNzH/h1EXXGgKopf/KuZgTCJqgYN9W3mTj5kpijIS2f1A1F3CSB3+t01Q4x47IaciQgmH4h6JMVj/uTDHu50YRq6BP733y2o5VIaojOKahL//LAdLR0sFTLT9a+22dzn0+NUMH6wgyebqCfXfUUz5HzYqG1mmXwg6gGz93toD0hsOcTkg5mU1Ufx/pYgbjnHy2DEQDAssXpXCKFI//fTyM9QMWkIJx6xsP1IBK+sZYNJs6m3QPPkwbnc8YKoJwT0uQD+YbTjNtw3fupdlVlSyBEcckTdl+ox/04XfEtuPn9+vQ3njHfBl8Hy3N6QEnhjQwC//ndzQhyPxynw6L1ZluhFE0+6BF5d64dkf1bTscL9zAoVmURxIYz5Mt5w33jdIecAYHsaou5+2QWQwp0uyIDaAjqK2fuh19bvDeG3zzQnzPH4QxILn2pCRT2/t71RXh/F6+sDDIQJHag2fw+jVC8f6Yl6RoydfX9ZhuHmIwacQM3hYCPqvoxk1fRvGOpaud7ZrN7cGEBE46vdntpfGcGPn2iClmBfkYPVUSx5rRVtfn53e2pveYTfDZMq2R9CMGzuc5vKygeinhLBiG2m4ebyRjtgyX4PRD1SmK0iyWXuNwxN7ZzAmNX6PSGU1vENeU/UNmv4zX9a0Jig34+3iwN4bpU/4RIjRrHlUJhBMKmqBg11rea+7nHZBVHPCUjDzYsN9Y0fdu8+JySmcagRdd+IArvp99NubOPk1KykBMpquY1qdwXDEn97px2bDyb2BHXJq61YsT3IE9bd8xuRWLWDS5LMSpdAg8kr+sy+HJQors9GBnwpb6hvfLLungLAxaFG1H05aeZv1re3gpNTM6tpYnKpWw8lEnh1nR/PrugwxLH+5Mkm7DjC3Wq6o7FVR1kdr3tm1mzyir4Ut8LqB6IeEpAzxy7cYahtowz1bVeE4JILoh5KM/nN3R/ScbCKExczq29l8qE71u0O4ffPtRjoO8wGlN3VEZTQ2e7B1EyffPAoyOdORkQ95bbXZkw01HzeSAfLfg9EPZdq8tLGFr9EbQsnLaY+xx1sCtBVeysi+NHfm6AbLGRsQNk94SjjZHbNJr/uKQowzMftdol6SlWkoTZjMNpsZBaHGFHPpJh8O6vmdt1wEy3qniALW7qkplnDr//dbNhJCxtQduehk9sUml1Vo/mT6kVZrHwg6imjvZw3TPJh0jfLhgPI4xAj6plkt8krH/hW3AJjmBOtz+IP6fjLm23YftjYmRo2oOwal4PfCbPbXRYx/dIa9nwg6g3J5EM8qJqYw8FF1HNup8krH5h8ML2MZD6gnokugVfWBvDiar/xH6XYgLJrkzavgiQ3vxdmVloXRaufO14Q0Wn5Jt1XNcgoB2uYb7tks0miHrOrAi67uZMPLe1MPphdZgpLc89k7a4Q/vB8i2k+DxtQfrY0r4JJQxwMhIm1+nW0dpi96SQreIh6NaHXjFP9YKRUI5MPRD2U7BGmL8/tCDL5YHaFmUw+nM6e8qMNJk1Wnv1JA8oAv9+nfIgTwPQRTD6YXZPJk+suOysfiHrDSH0fDPFtH3/3kXQAozi0iHomxaPAbfLkQ4uf+82ZmccpMCDHxkCcQnWThl893Wza0uy3iwN4biUbUJ7OyELuFGB2Zk++mX1ZKFG8CbDyIaYcNnUOjLczB1HCyEpVYbeZ++Ze3RTliTaxa+d4kJPGyoeTdQR1LHujDTtLzd0bgQ0oT29koQODmJgztfaguZPrbjZOJeodiXFT7zqQaoRDNcSEXpdcckHUG7kmn7TpEijnunBTmzPGxSCcPO514OU1fry81m/6z3qsAeV2NqD8lBSPwG3nJzEQJuY3efLB5RAQzD8Q9WpOLx3uWYY4UCMcpACbTRL1RlaKuQuHAiGJpjbWZJvVlGEOTBjM0vKTrdoVxIMvtlpnAhaS+DkbUJ7S7NFOZKexQNSszN7TyGEX8HDpBVGvGKXvQ8LfqabetdEOYBqHFFHPJbnMfVP3h3Q0catN0/ryxcnwODmxOt7usgh+bMIGk5+FDShPLS9dxf3XpDIQJmX+ZRedvamIqOeM0vch4b/pwpk7GYCHQ4qo51xO81c+hCNsOGlGN8zzYupwdvM/XmWDhl/8qxntAWuOeTagPLWzx7lwyVQ3A2FCtc3mrvZxORSkMvlA1Fsz5y+UCd8AKOG/6brkkgui3jJ7OWNHkIkHMyrMtuFz5ybBrrIc979jXcejb7RhT7m1ex+wAeWnuZ0C91yZgkG5bD5pNmX15m6orAiwoTBR73lbG6smJvz33QCBZPKBqJdcdrMvu2DywWwykhT85o50FGXzgfQYXQeeX+XH6+v9lo+FlMCP/84GlCfzZar41e3pyErlW2QzqW3WEDR5dV8Oe5YQ9ZowwCYNBvimK3M4lIh6x+x7aIejTD6YSZJb4IG7MjCmiE0mj7diRxCPvNzKQBwVCB9tQNnABpTHG11kx4N3ZaIgkxUQZtHUpqPD5H1O0pOYaCbqLWmAvg8JnXyYfnfNEEDmcygR9Y7d5Pf0iMbkg1kMzrNh0dczMXEw+zwcb2dpZ4NJyaF+goPVUSx6hQ0oTzZmgB2PfC0DZ411Mhgm4A9JhMy98sL0L0mI+oTEWYl+iAmdfIgqGpdcEMXii66Y+6YejfIcm8HlM9x4+KuZmDCIiYfjVTZo+MU/m7m86DTeLQnguRVsQHmyQXk2/PIL6fjxzWncxtAEIiav8DP78lCiPuKbfE/lwEQ+wISuyVME5vBRi6j3VJMvpWTlg7GNLrLjrsuSMWOEEy4HH0CP1+bXseTVVuyrZG+DM1nyWisG5dpw7kQXg3GcFI+Ca+d6MGmYAx9sDuDv77WzQa9BhU1+CbBzlRBRrObPcwEcSdTjS+ivumSzSaKYUE2+W0CElQ/GG5MKcNEUN+ZPdGP6CAe3WTsF7WiDybeKAwzGZz0vSOAnTzbh0W9mYdxA9go52eBcG758cTIunebBjiNhvFUcwPKt3C3EUPc5kyfZzV6hSdR382c5F8C/EvX4Ejb5MPPehpSIDI7hECKKwUTP5Pf0CBtOGoZdFbhkmht3XJiEomwbFOYcTqstoOOpD9oZiC4KhCU27g0x+XAGvkwVvkw3xg6049wJLmzcH8Z7JQEEwryGJjqzN1bmjspEMZPQL+8TNvkQ0UJzoICtb4licVM3+QSPu10ktoxkBZdOc2PyUCcG5towMMdm+jEZC2leBWePc+Hltdxas6sKuTVrl/gybfBl2nDFTA++eWUK9lZGsLc8gg+2BLHtcJgBSsTn4igrH4ioS8ZPvetAavGyoS2JeHAJm3wQAnM5nSDiTb1LD2XcaS/BxhswcbAD5010Y/QAO4bk2ZDqZbahJ8YOtOPltYxDVw3I5sLx7spIUTArxYlZo5y46RwvDlVHsbcigm2Hw3hrY4CNThPlPmf2ygfeIohi9hgGp3smgHcS8eAS9i7Nfg9EvKl3+aGMDSf7XVaqgitmeDB2oB3D8u0ozOKSilgo4mS6y/IzVBRkMl694bQLjCqyY1SRHVfO9OCOi5JxoCqKPWVhvL4hgNJaNtjpL2GTh57JB6IYzqOlnAMmH7pu/kJpa62vnM6hQxQbijB35YPUmXzo8zGlANOGO3HeRBeG+VjdEC9F2TY4bIJLi7rg3IkueF0s3Y4VIQBfhgpfhop5Y524Zb4Xh2ui2FcRxdrdQXy0LcRx2ZfJh4jZKx/43SWKoYR9iZ+QyYeW+qpJAkjiuCGK0Rfd7Mug+czSJ1K9Ci6c7MKkoU6MKLRjYI4KGx8Y4yo3TcWUYQ6s3R1iMD7D8AI2mownr0vB2IEOjB3owDVzPKhp1nCgKor9FRE8v6oD5fVc/xZPZs+xs1KOKKZmzV8obcsXioSrmUrI5IMC9nsgiiWzlzNy+hs/o4rsuHiqGyMK7BhZaEd6Ep8Q+/qBfOYoJ5MPXcB+D30rN01FbpqKOaOduO4sD0rrNByqjmDt7jDeLQmwKiLGzB5NJh+IYiqpvaFyPIBNiXZgCXmnlkLOAe9ZRLypd5Vg+iFWPE6BCya7MX2EA8N9dgzKtcFuY3z708AcTqq7Mm4Ls7jTRX/xuhSMLlIwusiOS6Z5cNelySiti2JPeQTPr+xAVSOrIujM2POBKLb0zqUXTD50aR4hMYe5B6JY3tQ5eaTTXG8FMHagAxdOcWG4z45h+TZkpnASl0iKsmwQApC8MZ7W7NFOZCZz3CYCRQCFWSoKszqrIq4/y4uDVRHsq4xgxfYQ1uwKQtMZp+4y+/df4UsEohhfNDAXwOJEO6yESz5MvqdyoIQs5Ighih2dD3p0HJdDYP54F2aOcmJkoR0Dc21w2fngl6h8WSoG5dpwqJo7DZzO1GFOFkAlqGS3wMQhDkwc4sCCOV5UN2nYWxHBjiOdO2jUNLEqglj5QBQH8xLxoBIu+aAI9nsgijXN5J2qWNjx2UYW2HHJNDeGF9gxNN+GnDS+JTYKl11g/gQXDlW3MxinUch+D8a4ViuAL1OFL1PF/Aku3HZeEg5UR7G/MoIPtwSxcV+IyXKL4m2cKOYKpn+9omjD0oKyRDqohLtbS8i5HCtEsRXliyXLcdoF5o1z4qwxLgwvsGNgjg1uJx/vjGpoHndyONOEdkA2k2lGlOpVMGWoA1OGOnD9XC+qmjTsq4hgd1kEL6/1o7aZNy+r0PjmkSj2z/8CcwH8O5GOKRFfFTD5QBTrmzrfJFlCUbaKi6a4MX6QA0N9duSnqyxFN4lCTq5Pa0yRA3kZjI/RKQpQkKmi4GhVxOfOTcLB6ggOVkexYkcQK7dbu1eE2Xs+RJl9IIo5weTDmc39fl1ywB8ex6FCFFtmX3Zh1YaaDrvAuRM6ezcM99kwKNcGj5MLZ82oMMuGVK+Clg5mEk82b5wTdpVZNrNJ9vy3V8QVM90ordNwoDKCLQfDeGNDAK1+fhfM9ZzCGBDFY3qdaAeUUMmHUEd4FgT4+oIoxsz+RsFhoYr0gkwVl05zY1iBHSMK7CjKtrHnhQWkJyk4e7wLr671MxgnGZTHfg9mZ1cFhubZMDTPhoumuHHHRck4XBNFeX0U75YEsH5PCCbPscNm8qdjJh+I4mLCzHsbUtYtymxNmGtZIkVHF1xyQcSbevc5bOadfSsKMGe0C+eMd2FAjg0jCuxI8TDbYEXjBtrx6lrG4WRFWUw+WE1WioKsFAemDXfg8uluHKmLoqxWw5aDYby81m/KqgizV/doXHZBFA9qGMEZAN5LlANKtDs2kw9EcWD2hpNmSz5kJCu4dJobk4c6MSDXhkE5Nm5DRijijg6fkpumwpfJuFiZ3SYwLN+OYfl2nDvRhc+fn4TSuigOVkXx5kY/Nh8Mm6Jfgs3kwzzKygeiuBASc8Hkw6fdcINUD6ByBocIUeyZveeDw+APZYoCTBzswHkT3Rg9wI7BeTakeZltoBMVZdngsAmEo3xDeMx5k1xIdrMSiP4rM0VBZooDk4c6cOUsN8rrNRyoiqBkf2eviPaAMWe5di67IKIekAn2cj9hHtkP5VVOgEQKhwhRPG7q5p6s2A1Y+ZCepGD+BBemDndiVJEdA7JUqGyaR2eQl65i4hA7NuwNMxhHjSjgFqR0eg6bwJA8G4bk2XDhZDfuvDgZB2ui2FMewXubAth22DhVEXYbl10QUfcJiVk33CDVZ58VCVEHnTDJB51LLojihssu+p8igPGDHZg72omxgxwYVWRndQN1bwwpwOzRLiYfjsOlKNQdGSkKMo72irjhLA9K66LYVxnFpv0hvFUcQEcwcSfApu/5oDP5QBQXAsn7sivGA9icCIeTMHdtITGHlx2ieN3Uzf35EjX5kOpVcOFkF8YOdGBkoR1D8m3cEpB6ZWAOJ9vHuB0ChVncIIt6eN+wCwzz2THMZ8el09z42mUp2FsZwd7yCD7YEsS2w4mV5DN75QN7PhDFjyLEXDD5cCLJygei+N3UudVmH13cgYlDHDh/khvDfTYMzbcjPZnVDRQ7fNP/X7NGO5GVwuQDxUZGioJZKU7MGuXEDfM8OFQTxf7KKNbtDuHDrUGEIv17HzV9zweNY5AoXkTnjpJLEuFYEuIpZuLXygoADODQIIqPUMTcn89l7783QikeBZdMc2PiYAeGF9gxIFs1/Rsq6j8FmSoG5thwpDZq+VhMHeaE4FeN4sDtVDBmgANjBjhw5UwPqpo0HKiKYndZGK+v96Osru9nyqbv+cBlF0Rxk0gv+RMi+aDalLM4LIjiJxgxdz2jx6VACPRZ47DBeTZcPt2DkUV2DMu3ISeNb1+pb7gcAudOcOGJ99otH4sBXIJCfUAIwJehwpehYt5YJ26d78XhmiiO1EaxdncY75YE4r4DjaJ0LjMys0CIyQeieN4yp3+9omjD0oIyJh8ACGAuLzlE8RMyeX86j1Mg2a2g1R+fJIvLITB/vAszRzkxstCOgbm2fq22IGsb6uMOD4oAitjvgfqB16Vg7EAHxg504LLpHtxzZTIOVEWxvyKC51d1oLw+9lURaV4Fbqe57zktfjZ9IIonTcEcAP9h8gHs90AUb8GwuW/qSS6B9KTYJh+KslVcNMWD8YPsGOqzw5fBiQ4lhqJsjsXRRQ7k8ztJCSA3TUVumoo5o5247iwPSus07KuIYPXOED7aFoxJVUSqV4HHZe7kQ00Tmz4QxXW+LZl8AABM+G61F0FtAocEUfz4w+auLbLbBAqze7cO3mkXmDfOiVkjXRhZaMPgPLvp3zSRMRVk2ZDiiV+ljxGcPd7J3iqUcLwuBaOLFIwusuOKmR5UN2o4XBvFnvIInl/ZgarGnk2w89JV2BTzjncpgWomH4ji6mjTyX7X78kHNRCdBSG4cJMojhpbzT9J6UkJdmd1gxtjBnQ2i/RlqGxgRwkvI0nB2eNceG2937Ix4JajlOgUAfgyVfgyO6sirj/Lg/J6DbtLI1i1K4iV20OIdHEnqoJMc1f5BMI6mtq57IIoziaO/Xpt0o6lOf3aNKrf794KBPs9EMWZFd4opCd99paWDrvAOeNdmD3KieEFNgzKtcHj5FaYZDzjBtnx2nrrfv5CbjlKBpPs/m9VxFWzPSivj2JfZQQ7j0Tw6jo/GttOP/lOTzZ78gGWruQi6qt5v1MJzwDwQb8eRH9HQQrM4Vggiq+qRg3hiITDxE0Sk9yn/mwFmSoune7BqEI7hvlsKMiyQWF1AxncAAtPvnPSVBRmMflAxqUqndU7A3NsuGCSG3dcmIyD1RHsqYhg3e4QVu4IIXpcVYTX5P0egmEJP3e7IIo70dln0cLJh4VSQX3VLIAXHKJ4amrX0REyd/LB6+qsYFAUYM5oF84Z78KAHBuGF9iQ6mF1A5lLYbYNdlV0uWzbTM6b6EKymxlEMo9kj8DEIQ5MHOLA9XO9qGrqbFq5pzyCl9b44TV5hV4gLPtsq2wiK5MQ/d73oV+TD1NqysdBVVI5FIjiqy2gwx+USE8y72cc5rPjga9kdFY3ZNqgMN9AJpaXrmLCYDuK94ct99mHF3CrUTIvRems2CvIVDF/ggs3zPMiGDH3zDwY4pILoj4y+4YbpPrss6Lf1mP3a/JBKOz3QNRXOkI6APOuGx1dZMfoIk5KyBpUBZg9xmXJ5MMA9nsgC8lINn8mnUsuiPpMyoGs8rEAtvbXAfTrFS0RSj+IrKIjyJs7kZnMG+vEzed4oVqkyifJreD+BSkYks/kA5GZBMJ8PiHqK0Lp3/l3f9/BmXwg6iPtAZY1EpnJMJ8d37kuFVfM9OC9TQH884MOU/aAyExW8JVLkzF3jMv0Ww4SWVGAlQ9Efeboy/8/9dfv77fkw+RvlPoADOIQIOobbUw+EJmOIv675OiqWR4s3xrEsjfbEDTBm8SsFAV3XZaCeeOcyEll0oHIrPhyhKhPWbTyQShzuMkFUd9p7eAXjsjMBubYcPsFSTh3ggtrdoXw6BttaPUb76F+QLYNX7wwCXPGOJHNpAOR6TV1MPlA1HdzcAyacG954dZFheX98ett/fe5ueSCqC+1+HlzJ7KCATk2DMix4axxLmw5EMYjr7SgriXxv/+D82z4wvlJmDfehXQvt6shsorKBo1BIOpDdonZAJ7tj9/dnz0fmHwg6kPl9by5E1lJ53Z9bkwe5sDGfSE8+nobqpsS7zowYbADt8z3YtYoJ1I8TDoQWYmuA3srIgwEUR+SnfNw6yQfZt9f5g5FxESeeqK+c6AqAl3v3EOciKwjP0PFlTM9mD3aha0HQ3j0zXYcqOz/h/25Y5244SwvpgxzwOvihYnIilr9OisfiPpc/+140S/Jh0gEMwE4eOKJ+k5Vo4ZWv460JD7kE1lRVoqC8ya5MW2EC1sOdVZC7C7r+yTEvLFOXHeWF9NGOOF2CJ4YIgtrDeiG7E1DZHCTxn69NmnH0pz2vv7F/ZJ80CG45IKor2/wfp3JByJCikdg3lgXJg1xYPOBMP7+Xgc2HQjF9XcKAVwxw4MrZrgxYYgDDhuTDkQEtLDZJFF/sLls4ekAPuzzX9xPH5jJB6J+0NSuY0AO40BEQLJbwbxxLkwb4cSmA2H868N2rNkV2ySEIoDLZ3hw9WwPJgx2QGXuk4iOw+QDUf/QJebCGskHKSQqZ/KdB1Hfa2rnTZ6ITuR2CMwZ7cSUoQ5sOxzGK2sDeGODv3cPF6rAjWd7cfEUN8YMsLPXDBGdUgu3ASfqF6KfViL0efJh4j3VYwSQwVNO1Pea2ph8IKJTczkEpo9wYvJQB64/y4PXNwTwwqoOyG7MDRw2gdvOS8JFU1wY5rND8E0DEZ0B+z0Q9ROJOTfcINVnnxV92vG1z5MPqpBcckHUTxrb2VGaiD7jwUAVmDjEgbED7bhihgfvlPjxzMcd0M4wR/A4BT5/fhLOnejCcJ+dQSSirj2XtPG5hKifpBzMLR8DYFufPmP09acUwFwWWBH1j0PVUQaBiLr2gKAKTBhsx7hBqbh6lgdvFQfw1AcdiGr/vYunJSm485JkzB3jRFG2jUEjom45XMPnEqL+cnQTCHMnHySbTRL1OUUBZoxwYvZoF6QES6GJqOvXDwEML7BjmM+Oi6e68cGWIN7c6McdFyRj1mgn8tJVBomIeuSeK1Nw8VQ3th0O47X1ATSzNxVRnxECcwA82qe/sy9/2cxv1eRGtGg1TzVR/KUlKbhsuhsTBzsw1GfHgCwVqsqsAxH1XntAIsnN6wkRxU5Tm44DVRHsrYzivU0BbD0U7lbPGSLqLnmwZHHh0L78jX365DDl3soFkPJ5nmii+Jg4xIELJrkxosCGIT47MpLYYp6IiIiMJRKVOFKrYfuRMH79dDN0JiGI4pMMsEV8xQ8Nquqr39enyy6kjjks9yaKj7suTcYdFybBYeeXjIiIiIzLbhMY5rNhSL4NjW06lrzayqAQxYEedcwB0GfFAX36WlRwpwuiuJg92okb53mZeCAiIiLTUARwzWwPJg5xMBhE8Zif93E/xj5LPsy+v8wNYApPMVFsZaUq+Pa1qUhP5hILIiIiMpeMZAU/uCGVfWaI4kCaNfkQiqrTADBtSRRDNlXg17enY0g+t7gjIiIicxpZaMcvP5/O3bqIYkwAk6feVenpq9/XZ8kHIbnFJlGsLfxcGqYNdzIQREREZGpzxjjxjStTGAiimJJ23Smm99Vv67PkgwT7PRDF0n3XpOCCyS4GgoiIiEzPpgrcdLYXX7wgicEgiiHRh/P0Pko+SAGBWTy1RLFx/7UpuOkcL+w21h8SERGRNbidAndemoxvXs0KCKKYzdT7cIVCnyQfpny9ahQksnhqiXr5hRXA/9yYipvO9sLBxAMRERFZjMsh8LlzvfjjXRnISGKzbaLeEpBzsFD2yZepT7rUSUXO4TSJqHdGFNpx3zUpmD7CCYVfKCIiIrIomypwzngXhn03Gyt3BPHvjzpQWhtlYIh6Jm1iXfXoLcCOuH93++LT9PX+oURmUZit4vLpHowqsmPCYAfSvMzwExEREQFAQaaKm8724ooZbhyuiWJfZRRrd4fw8bYgQhHJABF1kSrkXJgp+cCvP9Fny0xRcP5EN0YW2TEs34bBeXZ4XSxzICIiIjodr0vB2IEOjB3owNWzPKht0VBaG0VpXRTbDkfw8bYgWjp0BoroDPN1AMv64PfE19S7KrOkQ9b2xe8iMhK3Q2D8YAemDXegIMuGomwVRVl2pHj4VSEiIiKKleZ2HdVNGqqaNFQ1aNhbEcHGfSFUNWoMDlFnWuBAyWLfsLj/lnj/gkn3VFytCLzEE0pWZVMFBuaqmDrMiaJsG3JSFeSmq8hLV5GZorJ/AxEREVEf84ck6ls11LXoqGvRUNesoaZZw84jERyujbJSgixH2CK+4ocGVcV1XhTvD6Gw3wNZQEaygkG5NowZ4EB2qor0JAXpSQLpSSrSkhRkpSqwq8wyEBERESUCj1NgQLYNA7JP/PdSAi1+Ha0dOhrbdTQd/au5TUNZvYadpWHUNOloCzA5QeYiNcdsAC/E83f0Rc8HJh/I0FwOgbx0FUPybBiUa0Nakopkt0CqVzmaZFCQ6lW5XIKIiGKuub1zkhOKSCiKgKoAyR4FjqMJ7SQ37z1EsSQEkOZVkOZVMCDn0/+/pku0+SVaA50JiraA/CRZ0RbQUdmg4UBVFJWNUTS26ZBsfEdGGfud83bjJh+G3bvPCYkpPJWUCFI8Cuy2zmSC16kg2SOQmaIiM1lBikeByy7gcggkuxUkHU0upHoVJLnE0T/LBzyivhaOSNS36aht0lDXqqE9IKEqQEObDk2TaA9KpHgEklwKUrwKBmSrGJhjg9fFnWHImDqCOvaUR7GnvHNNesn+MFr9J75hTXYrSPEKhCPAxCF2jBngQFaKitx0BdmpKrJTVXicvGcRxYOqCKQlCaQlKUD2qf8bKYG2gIQ/1Jk4DIYlQhGJUFgirAGBkISmS0Q0iUBIIqoBgZCO9qBETXNnX4rqJg21LRqTF9RnpIx/0UBc70yTvlkxR9GxiqeS4p1UGJpvw/hBDuSmdy5zSHIJuJ0KPA4Bt1PA7RCwqwIOu4CqdjZ7JKLEEdEk6lt01Ld2rrmta9ZRWhvF+r0hlNVFoXWjurUoW8Vl0z2YNcqJMQPssHHJExlAbYuGdbtDeOrDDuyviPTqZ+Wlq5g81IERhXZkpyrISevsN5SVosDtZGKOyAj8IR1NbToajv3VqqG+VcfH24LYVxGBzqQExT41EBFhpBUv8/kNmXyYcm/F9yDxe55IihW3Q2DWaOfR5o0qCjJtR5c9KBCcXxAlPE2XqG/V0dCiobpZR32LhiO1UZTsD+FgtYaoFrunKSGAS6a6cc0cL6YMdUDhnIsSUCAksWJHEA+/1Irqpvh13hcC8GWomDrciSF5NuSmd1ZI5KSqyEztrP4josQXjkhUNmoorYuitDaKNbs6K6TCUWYjqPekFOdsWuL72JDJh6n3VrwkJa7maaSectoFzpvowrQRTgzItqEwq/NhiYkGosSm60Bje2cX8dpmDbXNGiobNBTvD2NfZQThSN89JCkCuPOSZFwzx4OcNJUnhxJGaW0Uf36zDW9tDPTbMSgKUJhlw/ThDgzMtSM3TUHW0aREVqoCB5ccEiX8/bamubPPxN7yMF5Y7ecWotTz5IAU/694ie83Bkw+SDHlG5XVAHJ4Gqk7VAW4fIYH8ye4MLzAjvx0JhuIEpWUQFP70W3KWnTUNEdR3diZZNhbHkEgnDhvYob57Pj5bWkYVWTniaN+t/NIBD9+sglHaqMJey8emGP7JPmfk6YgJ01FVoqK7DQFNu4TTZSQWjp0bD8cwbubAnhtvZ89I6i76YHXSxb7rjBc8mHiPeUjVCH28ARSVzntAl+8MAnnTXRhSL4dfK4hSizN7TrqW3XUNkdR26KjpknDpgNh7CqLoN0gW45lpij4w50ZGD/IwRNK/Wb7kTDue7QRTe3G26rPpgoMyVMxZZgTA3JsyE5VO6slUjorJVTevIkSQlST2H4kghdWduD1DQEGhLqqqSTLl4WFIi43qLjdIaZ8o+IOAH/j+aOuuG6uFzee7cUwn43BIOpnrX7Z2fixSfvk71sPR7Dt0Ke77htRikfBw3dnYAITENQPDlRH8Y0l9aht1k31uRw2gWE+O6YOd6Agq3PZRufOGwoyk1X2XCHqJ+GoxLrdYfzh+RaU1UcZEPpsuhhTstS3Kx4/Om4zPSkwR7DMhz5DVqqCn96SjhmjHLCzIz1Rn+oIyqPLJTTUNOuoa45iR2kEWw6G0dimm/Zzt/p1/PypZiy6OxO+TPaAoL7T1K7j98+0mC7xcGyCs7M0jJ2l4RP+vcshMKKgMymRl64iN+1oUiJNQXqSyipHojhz2ATmjXNiaH4mHnu7DS+v8TModEZCYC4AYyUfRB/sE0rGNm+cC/ddk4JBuax2IIqnQEhHXauOuubOngz1rTp2lkaw9WAYNc3WbEp1uCaKZW+24fs3pMDDrQepj7y1MYCN+0KW+szBsMTWQ2FsPXRiUsLjFBhZaMfU4U7kpqlHd9/obHaZzh2siGLOl6nie9elYniBHX94voW9IOi0JORcAI/FJUcQjx86/u4j6XbVVg+AT3R0Sted5cFXL0tBZjKHCFHMHvIjEg0tOmpaNNQd3WHiQFUUxftCqGrS+KBxCg/cmYFzJ7gYCIq7fZVR3P5AHUIRfhHPJMmtYMwAOyYNcSA3Xe1sdJlqQ1aKgrQkPjMQ9ZamA++UBPDTJ5ug83JEp7lllSwuGBGPHxyXV852RZ3LxAOdzi3zk/C1y5KQ5OYQIeqJSFSirkU/YcnEkZoINuwLo7w+Cl1njLrqsbfaMGWoA6leXo8ovt4u9jPx0AXtAR3r94Swfs+JFSIpHgXjBzswfpAdeemdu27kpqvISlGQ4uH3l6irVAW4eKobUU1i4VPNDAidyvDpX6/N27A0p9oQyQcpxFxWy9GpXDHDgzsvYeKBqCuiukR9i3606WNnsqG0NoqN+0I4XBOFxiRDr+0ui2DdnhAumuJmMChuSmujeHp5BwPRC61+Hat2BLFqR/CEf5+RrGD8IAfGDbIjJ7VzS9DsNBXZKSqS3HwaJToVRQCXTnOjsU3HIy+3MiD0KboSnQXgJUMkHwTY74E+bbjPjruvSOYbRqKTaPqxbSw7l0o0t+soq49iw94w9pRH+LY0zt4qDuD8SW6ovDRRnGw9FEYwzO9xPDS26fhoWxAfbTsxKZHi6UxKjB1oR36Gipy0zr+yU1UkMylBBJsqcP1ZHuwui+CdEm7FSSc62vch8ZMPU+/aaJfAVJ4yOp7DJvDjW1KRl87O8mRdugSa2jXUNXdWMdQ2a6hs1LBxbxj7Kplk6C8rtwdRWhfFYDa/pXg8wElg5Ulv6yn+Wv06Vu0MYtXOE2Ofl65i0lAHRhbakZ2qICfNhpxUBVkpCtxsPksW43UpuPPSZKzeFUR7gM8gdIK4FBPE/ElLOvOmQsLD80XHu/eqZIwb5GAgyDIa23U0tGiobdFR06ShpllDyf4QdpdF4A/xBp9INB3YUxZh8oHioq5Fw8odIQYiQVQ3aXhrYwBvbfzvm14hAF+GiinDnRiaZzu684aKnFQVmakKXHZWSpB5Dcmz4bvXpbL/A51s6uz7y9xrHiyKaVlM7JMPOuZweyQ63sAcGy6exnwUmVNzh46GVh01TZ1bWFY3adh8IIydpRG0BdiUwSjK66MMAsVFTZOGAJdcJDQpgYoGDRUN/hP+vaIAhVk2TB/uwMBcO3LTOrcCzUlVkZWqwGHjAy+Zw1ljXRiSZ8fB6giDQcc4wiF1KoCVCZ18EIL9HuhEd12azC01yfDaAhL1LRpqj25jWd2sYeeRCLYcCqO5nUkGo9tbwQcuio9GXh8MS9c7m4WW1p6YnFSVzhcr00Y4MSC7s8llTlrnDhxZqQrsKpMSZCzpSQruvDQJP3y8icGg/14DhZyb8MkHQJkNMMNPnXJSVUwf6WQgyDD8IflJP4bao70ZdpSGsfVgBPWtGgNkUrtKIwiEdK75ppjrCPKZyGw0HThYHcXB6hOTEjZVYEieiinDnBiQY0N2qtpZLXE0KaEqTEpQ4po0xIEUj4JWPxOm1Ckem0jENPkw9d7SoVLKfJ4qOuaWc72seqCEFIrIo1UMOmqaNdS1aNhbHsGmA2FUNzHJYDXBiEREE+CGmxTziarG5INVRDWJvRVR7K04MSnhsAkM89kxZZgdhdk2jCqwY/xg9sGixJKTpuKms734y1ttDAYdyz7MAaQARMxuZDFNPuhQ5jKnS8ebwJsrJai6Fg23/KaOa7EJAKAqAnwpSXEZW9zkyfLCUYmdpWHsLA0DAH73pXSMZ1goAY0dyOd2OkHm1G9UjSxejN2x+oExfSUtJPs90H9lJCsYxO7xlKAKs2y4di4boVInmwqoChNRFHtcykPHS/EorHqghDU4z8aeJXQCHTKm8/vYJh8gmHygT5w30Y00Lx+6KHHNHeNiEAgAMKLAzkkixUUWlx7ScW46x4vcNJbDUGLKTVcwKI/jk46f3yMxkw+T7juUJoHRPEV0zMAcVj1QYhs70I7BuXYGgjBuIMcBxUdOugqnnW8SqdOMEWzCTYnLrgpMHsoxSv+VsMkHEXXNRowrKcjYMvi2hxJcslvBTedw6QUB+ZlMllJ85KSqmDeOD/MEjBlgx+giXmsosWWm8Pmd/ksCwyd8rTonVj8vdsmHGK8HIeNzOvimhxLfpCEOKLzPWpqqAKMKWflA8SEEl3hRpwVzvVzeRYn//G7nGKUTb2OKqs2O1Q+LWfpVAtzpgk5g55KxuGsLSNS3aGgP6lAEkORWkJWiwOvijaOrhubbcfEUN97cGGAwLOr8yW4uE6O4mjDYAYdNIBxlU1OrsqkCk4aw0eRniWoSB6qjOFQVRVWThupGDbqUcNgE8tJV5KSpyEpVkZemIDtNhcPG2UfMSV6n6ERK59KLlxMm+TB/obS11ldO46mh44WjjEEsNbXrKK+PoqJeQ3WThh2lYWw5GEZDq37Cf1eQqeKSaW5MGOzEuIF2pCUxEXHGC6rSOflk8sG6RvjsrH6huMpOVVCUZcOB6giDYVGXT3djIHcAO62IJlG8N4znV3Xgw63Bz5z/KgIY5rPj7PFODMq1ozBTRWGWDelc8ttroQiTD/QpMVvhEJOrYHNt9WRFQRLPCx0vGNYZhF6oadZwpCaKg9VRbD8cwaqdQbT6PzumFQ0a/vp2O4B2FGSq+PLFyZgzxonsVJainM6EQXZkpSiob+WYtaJ0JugozrwuBbec68Wvnm5mMCzqvEluKHxJf0p7KyL490cdeHmNv8t/Rpedf25vxX8TeikeBRdNcWPcIDsG59kwMMeOZDeD3l3VTRqDQCcSmDr/i4dcy58YHEyI5IMi2O+BPq2+hRO57mgPSBysjmB/ZQTF+8P4aGsQgXDvss8VDRp+8a9m5KaruPvyZMwZ7TpjI6H2gERdi4baFg0uu8BEi5SIZqaouP3CZPzh+RYORItx2gWmDGcpNMXflGEOOO2CbxUtaJjPjolDrNNX5oMtQazaEcTgPDvy0hXkpKnITlWRnabAdlwGpiOo471NQfzu2ZaYfC9a/TqeW9mB51Z2/nNuuoqrZroxeoADw3x2+DJUCOYizigYkSjZH2Yg6FOPS80pjikAVidE8gECc3hO6GR7Klhe+llqmjTsr4piZ2kYr67zo6Jei9vvWfhUM4bk23HvVcmYONiBFr+OumYdNc1R1LXo2FUaxuaDEdS1aJ88LD3+7Ux4LNIca+ZIJ+yqQETjxMBKbjrbiwHZLIWm+BuYY8ONZ3vxj/fbGQyL+dy5XiS7rXEv1XXgvU0BvF184lJGuyow1GfHtOF2FGXbkJWi4vX1AXywJX5LHmuaNPzlrc7vm9MucN5EF2aPdmL0AAcG5di43O4Uqhs1lNVz3TR9miIxN2GSDwJyNh/X6WQrtgdR26whJ43l/ifcDJs17CmLYP3eEF5e44c/1HffnoNVEdz/50ZkJCtoatfPuKZyf2UE+yqilql+GJpvww1ne/GvDzkxsJKzx3MXAuo788Y5mXywGK9LYMow62y1eqQ2ivc2fTqhENEkdpeFsbusf96qhyISb24M4M2NASgKMG+sC+eMd2H0ADuG5tmgqiyJAIADVRHoLFymU873MRfA//V78mHSfVWDZFQv5Cmhk3UEJQ5WR5l8AFDVqGF3WQQb9obw6rq+TTicSmNb1+4sO45ELJN8AIBzJziZfLCQ6SOcGF3ELTap74wd4MDUYQ4Us6zZMm47LwmFWdZ5DtpRGoaW4JNXXQc+2hbER9uCnYmIcS6cO8GFMQMcGJSjWjYRISWwcS+vTXSa8QHMBaQARK8mMb1OPiga+z3Q6a3bHcKsUU5LfvbKRg27y8LYsDeMV9f6e92/oT+8tNqPq2e7LbN159iBDswe7cSaXSF+eS3g2jkeuBx820V9x+UQuO4sL5MPFiEEMHesdaqrNE3i/c1BQx2zrgMfbQ3io61BKAI4a5wL5010YewABwbl2SzVJPRwTRQvdaPpJ1ku+5A18Z6K4VuWYG+/Jh8gJfs90Gn95+MOXDvHgwE51lhT3dCqY2dpGGt3dy6pMGLC4XgHqiPYX2mdpRdOu8CCuR4mHywgLUnB5KFsNEl9b9JQB1K9Clo6WNtsdhdPdWNkgXV6yhysjmLl9qBhj1+XwMfbgvh4WxCqAlw4xY35410YO9ABX6b5q1fW7A4hHOVCejo9VYi5QH8nH4DZPBV0OqGIxIdbg7j9AvPuxNoW6FzHuOlAGM983IGmdnM9UG47HLbU0ovJQ53wZaiobORWU2Z223lJXBJG/SI3TcVt5yVhyautDIbJXTrNDZuFSvh3lkagm2TuqunAWxsDeGtjAG6HwDVzPJg5yokxRY4z7hpmVIdrovjTa7wm0ZkJiBkAHu+35MP8Lx5ytUKMA5glo9P78xttmDvGiWE+86ytDkUk9lVEsPVwBM983I6yOvNOVJ9d0YGrZ3mR7LHGA1R6koLbL0zGb/7TzC+vSSkCmDmKVQ/Uf2aNcmDpazhj018ythEFdkwYbJ3rTCQq8eZGc5bsB8ISTy/vwNPLO5CRrODGeV5MGurA6CI7kkywi0kkKvHcyv7vR0aJTwp9am9/Rq+SD21e20RAslsXfeZE/bG32vGTW1MN3TtASuBgTRTbDnZui7n5oDXW7JbXa9hVFsaMkdbp3TFzpANel0BHkDdiM7pwihsjfLx1Uf9OTC+Y5Ma7mwIMhkndcVESUjzW2ctxf1UUG/eZ/7mosU3Ho2+0AQAG5dpwyzleTB7uxJBcG4RB39Gs3hXC08vZbJu6lH2YMHbhDseOhWN7/GXvVfJBF2IyW3VRV7y7KYBpIxxYMNdruOY9HUEd2w5HsHxrEC+t9iOiWW9CumFvyFLJh6JsG75ySTIefokliGZ0yVRrlUJT4rGpApdOZ/LBzPeQ6SOs1Wx7x5GI5Sp5DtdE8ZtnWmBXBa6d48E5E1wYP8huqBdtO0sjWPhUM7+01FVOe23qGACb+yX5IARGcsUFddXvnm1BbpqKeeOM0fm5vC6K4v1hPP1RB/ZVRCx97p5d4ccN87yWWiN/9jgXlr3RZvimoXSiwizVUqXQlLgmDHagIFNFRQP7y5jNVy5JQnqSdaoegmGJV9dad5eEiCbxzIoOPLOiAyML7fjcuV5MGeZEfkZiPzMdrIriR080odXP5rfUdYoiRvYm+dC7K6PESJ4C6ipdB/7n8SasTuCdBCKaxLbDEfzptVbc/Ns6/OJfzZZPPABAW0DHjiPW2hpuUK4NX7wwiV9ck/n8eUlIs9CkgBJXepKCz5/Pa4zZZKcqmDnSWlUP+yoj2H6E28cCwJ7yCH76j2bc8ts6/O2dduwui0BPwLn93ooIvvtYI0rrojxp1N0EwLDe/OlePoGJ4TwB1B3BsMS3/9yI9zYFEE2g5QuNbTqWbw3i/z3ehDv+WIfH3m7nG++TfLw9ZJou1l117kQ3HHaW55uFXRWYMszJQFDCmDrcCTuXAJnKnZemIDvVWjvpbDrAxMPJ2gI6lrzais//Xx1+9lQTPtoWRGNb/2chpATW7g7hG0sbcKSWiQfqySASvUo+qL35zfkz2n6H2GzXSRaiS+C9TUEIITAkzw63s38evCKaxJ6yCN4sDmDhU014cbUfh2p4IT6dA1VRnD/ZjQwLvTXOSFYQiQAlfLAyhRvmeXH5DI9hm4KR+aR5FTS269hxhBV2ZpDqVfCtq1OQbKFGkw2tOhY+1cSdEk43WwKwrzKKt4sDeHtjABCA3SaQlqRA7eMmaPWtGp5f6cfCfzbDz4ba1FMCrVXr//hET/94jxMHU++qypSAi2eAeuovb7Zh5fYgvnVNCiYPdfRJAzhNkzhSq2F3eQTvbQrg4+1BbnXWRVFNYsuBMIbmWSvfeP5kF554rz2hKnWoZ86d6GLigRLrGU4A505w4ZmPOxgME/jKJcnwZVqr6mHroRDqW9kzoCtqWzQ8+EIrhACmDnPgwikejCqyYWi+HW5H/G5OHUEdJfvDWPJaG5cSU+9J5Pbmj/d8FuHQ8nu9aoMsb1dZBHcvbsBVMz24erYHYwbaY16CGoxIHKyKYk95GB9uCWHN7mBCrr8zgv983IGLp7oMvWVqdw332XHrfC+efJ/bUBnZuIEOjB3I7TUpAcfmIDvGDbRjO6sfDM3jFDhrrLWWdWk68O6mIE9+d+duEti4L/zJ1qQjC+24fIYbQ/Ps8GWpyE9XYbf1/lm4tlnD1kMR/OfjDpTsDzHwFJvxK5DdL8kHAWTyPSDF6iL88lo/Xlnnx9yxLlw+3Y1RRXYUZtqg9GCOW9+qobJBQ1mdhkM1EXy0NYiD1VxOEQv7KyPYcSRiqW03hQAumurGv5Z3sPrBwG482wOPkwlzSsRJq4Ibz/Zi+z+aGQwD+/oVKRiQba3KwP2VEbxbwu1ie2tPeQR7yjuTj4rS+dJj3lgnBubaUZStwpepIj1J/cyt6oMRiepGDYeqo9hZGsZzK/3cyYJi/1wMpM9fKG3LF4oeTa56fJXUhZLMbTYp1kmIlduDWLk9CJsqMHesE9OHd25VlJ2mIsUt4HEJSF3AbgfCEYlAWKLNr6OmWUd9i4ZNB8JYtTOIDq5li5vVu0KWSj4AwKhCO754QRIee7uNA8CAvC6ByWw02WPhqERlg4aqxihaOiT8IR0RDVCVzp4FGSkq8tI739ZxWUvPTB7mhNcleO8yqIwkBfMnWG8lcvH+sOUaUcebrp+YjAA6q2pGFdkxYbAD6UkqPC7AZReIaJ3Pwm0BHbXNOtbvCaG0LsrlxBT3/ENbZVUagPo+TT4IKZIlsw8UJ1FN4qOtQXy0NfipScSxBj2hiEQowjHY155b0YHrz/KgMMs6b3iEAC6Z7sa/lrezqZYB3XZeEnwZKgPRzYTD3vIoNh8M4Y0NAeyriJxxkuG0C5w93oW5Y5yYPNSJwizGuzt8GSpuPTcJf3mTCU4juufKFORb7BrT1K7jnx9yOWJf8IckSvaHUbKfza8pQeZpitbjNzo9r3yAdPMFB/W1zrdCnPz1p0BYYtOBsKWSDwAwONeGuy9Pxh9eaOUgMJhZo9gbucsPFJrElkMRPL28HR9u6fpa7lBE4t2SAN4tCcDjFPjCBUm4dJrbcteJ3pgz2sXkgwEVZNowd6z1Kqu2HQ6julHjACCyIJtd9vjBqscLYIUQXDxLZFFPL+9AR9B66wjPnehGZjIvfUZy9ngXRg/gBLgryuo0PPB8K776SH23Eg8n84ckHn29Dbf/oR6vrQ+gjWuOu2R0kQ1nj2eizGi+fkUyslOtVfWg68AHm9loksiqpGZz9PTP8imaiLptT3kEWw9ZrzN7foaKb1yVwgFgIFfO8MR8Bx0z2rA3hLsXN+DZFR0xWy/c3K7jZ/9owu+ebUFVA9+Qfha7TeDKGR4GwkCGF9gxa5T1qh4OVEfxxgY/BwCRRUm15x2eel75oLP2ncjK3t8ctGSjqbljXRicyzfpRpCTqmLiUAcDcaYHCAl8tC2Ib/6pEVWN8dkV6M2NAXzvr43Yy/3lP9PEoQ7kpLJfhlF89dJkpCVZ7z3epv0haCxoIrIsW1TpcelTj6+YUoD1VkQW9sraDhyost4WppnJCu6+IpkDwAA+f0ESl8l8ho+3B/HdxxoRjsY3k7irLIIfPt6EwzXc9vizri+fvyCJgTCAqcOdmD7CesnNFr+Ofy3v4AAgsrCoGuqH5AMku64RWZimd5ZqW9HMkU5M5daNCU1VgOnDWfVwJtsOh/GjJ5qg99EbzMM1Ufz63y2obuISjDOZPtwBlTmzhCYEcNelyUhyW7HqIYyyOiYRiazMZRd9n3xQFMmWzEQW9/d321DXYr2JRJJbwVcvT4ZgK4GEdeVMD4b67AzEadQ0afjZP5oRCPft2qmS/SE8t6KjzxIeRjTUZ8eVM9n7IZHddLYXk4ZY7/oSikg8v4pVD0QWpxWWF7b0OIfQ0z+oSzQy9kTWVt+qW3bf6clDHLhlPsujE9UFk91QmBw6JSmBNzYEcKS2f95e/v29dhTvD/FEnO7BTADnT3IzEAnK4xS4do4XNgs2st1+JILVO/ndJbK4xmefFT1+89iLejG1krEnon9+0G7JbTcVBbhurgfJHtZHJ5ph+XaMG8Sqh9PZcjCMR9/ov+JFXQK/fabFsonLrpgw2I5h+RzDiejeq1MwzGe9psO6BN4uDnAAEFmerOnV83NP/+CmRXn1APjkQGRxO0oj2HLQml3sB+XacN813Hoz0dx2nhfJbiaFTqUjqOMvb7UhqvXvVjWHa6J45OVWtPq5/uJUktwKbjnXy0AkmMF5Nsyf4LLkZ99bHsFLq7nkgohEbW/+dC+ezoSEBKsfiAivrff3+2Smv8wf7+Jb9gTitAtM4vaap7VmdwhrdydG2fS2w2Gs28MS7tOZOswBt4NrhxLJfdekWnYr1I+3B7m9JhFBChzszZ/v3ashgb08BUT0TkkAu8qs2f06LUnB1y9n9UOiuGW+F0XZNgbiFOpbNSx5JbF6RT/0Yitqm7n7xakUZdtw0zmsfkgUF01xY9oIayY2y+qi+Mf77RwERAQhsa83f75XyQcpsZungIikBN4tCUBas/gBU4c7cP1ZnCQkgrPGuhiE0/h4WwilCbZFXnWThg+3BHlyOJ4TmsMm8Pnzk+CyW7MSZf3eMPwhyYFARIAU/Zd8UCCZfCAiAMB/Pu7Avkpr9n6wqQI3nu2F18US6f40Y6QTYwZwCcyplNVFsfjV1oQ8tsWvtuJwTZQn6RTGDLBjxkgnA9HPvnl1imWvLY1tOv72dhsHAREBAKQi9vQuf9ALmiq28BQQEQBENWnpN5hD82343vWpHAj9aMEcD5x2JoBO5a3iAFo6EnPBtj8k8eo6P3S+WP0Up13g2jkeBqIfjSq048Ip1t36dOO+EKqbuDSKiAAA7cOq8/ov+aAGxWYAfF1BRACAJ99vx5Fa614Szp/kwvmT3BwI/SDVq2DCEDaaPJXd5RH87e3EXq/95Pvt2Fka4ck6hSnDHMhM4e4t/UERwLcXpCLLovEPhCX+8zF3uCCiT2x69lnRq2xkr66mxct8fgjs5HkgIgAIhiVW7rBu9YPHqeBLFyXx7Xs/+ML5SchNUxmIk0Q1iRdW+hGOJnZZga4Dz3zcjkiU5Q8ny0pR8blzkxiIfvCli5MxeZh1k5ol+0PYfCDMgUBEnYQs7u2P6H0qV5dreCaI6Ji/vt2OigbrlmiOKrLjO9dx94u+pAhg5iiuiz+VLQcjeGG1Md5cvr4+gBJOdE5p5kgnFOY0+1RBpg3XzvZYNu6BsMQ/P2TVAxH9l5BY3etntt4fhfiQp4KIjmnp0PHxdmt3r79gkhuzOBnuMxdNcWO4j9trnqwjpOPv77cZaheaR19vQ6tf58k7yfACOy6eyiVdfekHN6QiL8O61VQl+0JYtzvEgUBEx+gIK72e9/c6+RCNqh8CYJ0kEX3iT69Zu3t9qlfB3Zcnw67yVWVfuHiaGzbG+lM27Alj1Q5jTR62Hgpj/R5OeE6mKsBFTD70mevmejFjpHWXW/hDOp76gFUPRHSCLcXLfPW9/SG9Tj5sfTSvFsBWng8iOqYjKLF8q7WrH8YNcuDeq5M5GOKsMNuGiYPZaPJkjW06lrxmzO3xFr3ShroWdtc/2cTBDhRls8In3rLTFNx2vhd2m3UTmiX7w1i/l0lAIjrB+7H4ITFp3yshXuH5IKLj/eWtNhyqsfZmOJdP92D6CC6/iKfPn5eEVC93AjjZiu1BHKwy5u4R5fVRfLQtyJN4klSvgtvOY+PJeBIC+Mkt6Rhg4SQPqx6I6DRJg5di9HNicLFW8DJPCREdLxiWeLckYOkYpCUp+PaCFHicXBIQD3ZVYOowVj2crKpRw6JXWg39GR5+qRVHariT98mmDnfAwd104uaOC5Mwc6S1rykb94WxgVUPRHQcCdRszPLFZJOJmCQfSh7JLwFQylNDRMd7/J127Ku09gRiRIEdP7wpjYMhDq6f58GgXJahn+yt4gCa2o3dtNEfknhzY8BQzTL7wuBcG66b62Eg4mBovg03zPNaun+MP6Tjn6x6IKJPJQzEi1go9Nj8rJgQUkL+k6eGiI4Xjkq8U+y3/ATivEkuXDfXywERY+eMd0HwJfAJ9pRHsOzNNlN8lr+904adpdx681TjnmJLVYAf3pSGnDTV0nHYuC+MjftY9UBEJ830of0nVj8rZgtldYkneGqI6GRPvt+BvRURS8fAZRe4/cIkFGTyLX2sTBjswNiBdgbi+PuwDry0xo9wxBzZPk0Hnl/lR0Rj+cPxxg9yYNIQLjeKpfuuSbV8TFn1QESnIoBDGxcXfhSrnxez5MOWJYV7AbGOp4iIjhfVJF5f74du8flDQaaKH96UCoVv6mPiprO98DjZaPJ4Ww+F8dwKc00eXl7jx6b9rH44nsshcN1ZXHoRK9NHOHH5DLflq6g27GXVAxF9mi7k3wARs6f42D65Cf1RniIiOtnTH3VgV2nE8nGYOdKJr17G7Td7K8mtYAK31zxBMCzx5PvtpkzyPf5OOzqCOk/ycSYPdSLJzeRb768lAvdfm2L5HXNa/Toef6edA4KITqbZNPH3WP7AmF5tWxF4GkAtzxMRHU/XgVfW+qFZfP6gKMCCuV5MG87tN3vjc+d64ctUGYjjrN8bMu32lOv3hrBuD6sfjpefoeK289hHprd+fls6RhZy+daaXSFsO8zvGBGdTLywYWlBWUyfhWP5w/YvGh6SkH/liSKikz2/qgOb9rOkMyNZwf/clIqMZL617KnZo5m8OV5zu44/v9Fm6s+46OVW1LVoPNnHfw9GseFqb9x5aTLOGstrSW2zhodfauWAIKJPE/ofY/0jY/70a9MdjwAI8GwR0fGkBJa91Y72AMunB+fa8IsvpENh/qHb5k9wYRTfVJ5g5c4QdpeZe1lTaV0Uq3cyeXm8UUU2zJ/AnS96Ytpwp+W31Tzm7eIAapqZ2COik57bgVUliwrXxvrnxvzRd8PSnGoBPMZTRkQnK94XwppdnEAAnf0fvnl1CgPRTVfM9MBu44ThmKpGDYtebrHEZ33opVYcqY3ypB9lUwUun87Gk92V6lVw/7UpyGT1GfZXRk1fNUVEPSMEfhePnxuXK6+i4/8AcIZBRJ/ywAstqGrkWxZFAAvmeHDpNDcHRRflpKpsNHmSd0oCqG+1RjVRq1/H2xsDkNx58xOThjqQm87+J914mMYvPp+OUUWsntJ14MXVHQiE+YUiok9ZW7Ko4NW4PP/G44duWFpQBiH/xPNGRCerb9Hx7iauzAIAr0vB1y5PxqBcG4PRBbdfmMS3lcfZXxnFsjet9dbyb++0Y085d845Jj1JwefPS2IguugbV6awZ8xRWw+F8czHHQwEEZ2C/FG8fnLcnuJsOn4FoJknj4hO9ujrbdhbwQkEABRm2fCTW9Lg4FKCM1IVYOowVj0cc2wHmaDF3lpGNIkXVvkR1fi29pjpI5zsXdAF88e7cO0cD1TmLxEISTzxnjm35iWiXnuvZHHhB/H64XG7BK9fUtgA4Dc8f0R0slBE4rkVnEAcM2moAz+5JY2BOIMrZ3kw1MdS6WO2HQ7j6eXtlvzsL6zuwJaDTF4eMyTfhqtmsffDmQzOs+G+a1OQ6mXmAejcvnbF9iADQUQnERFNKvfF8zfE9Socymp+CMAunkgiOtnzqzpQsp/7ih9z0VQX7r48mYE4jQsmu6Hw5S4AIBiR+OeHHZZ9aykl8NjbbegIcuccoLN/zPmTuOvF6XhdAr/8QjqKsrm8DQAa2nQseY1NJonolBZvWZK/I673rHj+8B0Lx4aFIu8BwNebRPQpj77ehpYOTiCAzs71N5/jxRUz+QbzZMN9dowbyKqHY4r3hfH+Zmv3TVm/J4SN+5i8PGb8IDtGD+B35FMPuQL47R3pGM0Gk59YviWIA5WsHCKiT6kW4cDP435djvtD0iOFHwqIf/B8EtHJthwKc+vN4yS5Fdx9eTLGDeKD8vFune9Fspvl0gDQ0qFj2RutDASAxa+2obGNyUugs3ntjfO8DMRJvn9DKmaNZlXIMUdqo1jyGq8fRHQKUny9eNnQuO/d3SdPc5ot9C0AZTyrRHSyB19qQWUDt948Ji9dxU9uSUdWKifbAOB2CExmo8lPrN4VwvYjfGsJAAerIly3fpwpwxxwO7g26Zhb5ifhypkeLtc6KqpJPPNxB6sNiegU5FMlS3wv9sVv6pOn280PDW5WJL4MLr8gopPUt+h4cU0HdD4PfWKYz4bf3pEBFycSuOkcL9dqH1XbrGHRy3xrebyHX25FeT2Tl0Dnzjm3zGf1AwDMGuXEFy9I4jX0OMX7w/gPt9Ykok8RVU67/FZf/bY+e7W2cUnBuwLizzzBRHSyJ95pR8kBLr843uShDvz88+kQFn92njeWJdPHvLc5iJpmTrSP19Kh491NAQbiqLn8vmBgrg3fvyGV1WPHaWjV8ccXWiH5CpCITqRLIb+w5sGixr76hX16ZU5uD90PoITnmYhOvPIBD73Yigau3z7BuRNc+M6CFMt+/pkjnWyid9TB6ij+xLXap7TszTbsreBSFAAYM8CO2aOdlv38GUkK/veL6RiYw2qp47250Y/9bDJJRJ/2y02LCt7ry1/Yp8mH5U8MDkLXbwJEC881ER1vV1kEb230MxDHURXgurO8+KpFt+C8do4XTjvLpnUJvL7OD3+Iry1PJRyReHG1H1GN8XHYBK6Zbc2lFy6HwO++nIFRhUxYHm9naYRbaxLRp0nx4dAa3y/7+tf2eU1aydKi/ZC4A+z/QEQnWfRyG3awmd6nJhO3nevF585LstTnTk9SMGkoJxEAsPNIGP/4oJ2BOINnV3Rgy0FuvQkAk4fakZVirSUHigL8/ksZmMLmtCcIhCQef6cd4QgfuYnoBGVRTbn52WdFn6/l7Je7U8kS34tS4Jc870R0vIgmsfT1VrQFuPzieB6ngjsuTMLFU92W+cy3X5iE7FTV8uc+HJV4enkHNH4lzkhK4B8fdCAQ5iQrM0XFredaJ1kpBPCL29IwZ4yTX4STfLQtiA+2sCcKEZ0gqOvKdVsfzavtj1/eb6nxTYt8CwH5PM8/ER1v7a4QPt7G5pMnS09ScN+1KZZ4wFYEMH04JxIAULI/jLeKOXnoihXbgyjex+oHoHO3B8UixQ/fvS4VF031WL4578nK6zX88QWuciaiT/n65qX5G/rtGa//PreQbo/zDgA7OQaI6Hi/e7YZB6qiDMRJclJVfP/6NNM3Ybx4qhvDfGwY1xbQ8dhbXKvdHYtfbUUjG9diuM+Oy6aZv1LqjouScc0cD1RubHECTe9cisQmzkR0wuxbiD+WLC54vD+PoV8v16t+n92mSXktgGYOByI6piMo8Y8P2hDiOtVPKcpW8fPb0lGQad7J+cVT3bCpfI25ZlcImw7wTX537KuIYPUuVk4pCnDhFHMnH24824svXuCFi01pP6Vkfwj//JB9YojoBB8kZ+b/oN/vT/19AFuWFO4FxM0AuHk5EX3i1bUBrN3NScSpDM234YGvpCMvw3wJiKJsGyYMZtO4uhYNi15h1UNPLHq5BRUNfKSYOMSJwbnmTFJeO8eDr16WjCQ3Sx5OVtus4Q8vtEIyd09E/3VECuXm5QtFv5cVJ8RVu2Sx720B+XOOCyI63u+eaUFZHZdfnMqIQjv+eGc6ctPM1ZTxtvOSkOrlhOLDrUFUNnDs90R9q473N7NPRrJbmLLx5NWzPLj3qhSk8TrxKZoOPL/Kj30V3DWKiD4RgCKu27Qovy4RDiZhrtzFiwt+BYFnOD6I6JiaZg2Pv9OOIDvYn9LIQjse/GoG8tLNkYBw2ASmDmfVw5GaKBa/0soB3gt/er0N+yqZvJkyzAGHiZYlXDLVjXuuSmGC8jTW7wnhr2+zYoqIPiGlxJdKHvEVJ8oBJdDVW8iQZv8yILdznBDRMS+v9ePj7UEG4jRGFtrxx7syTFEBcf08DwblWLvRpJTAGxsD6Agy4dYb4YjEy2u4RemgXBtunOc1xWe5cIob9y9IRWYyEw+nUtmo4XfPtHC5BRH9d3Yt8PtNSwr+nUjHlFBX8B1Lc9p1m3olBOo5XIjomF/8sxk7y9h473SOVUDkpBn7ofzs8S7Lb5e3szSCJ95lo7hY+M9HHdh2iNeNs8cZf9va8ye58d0FqchKYeLhVCKaxD8/aEdZPat9iKiTBN4dUu37UaIdV8JdxTc/lH9Y0XEr2ICSiI4KhCX+9FobWjq4bdjpjCy04w93ZiLToA/nEwc7MNbkW4h2ZQLx7MftiGp8dRkLugT++WGH5ZdtjR3owOShxl3OdN5EF753fQqyUpl4OJ1VO0L490cdDAQRdZI4rITFrc8+KxJuPp2QV/KNSwrelRI/4sghomNW7wzhjQ1+lpSewZgBdjz01UxD7oJx/TwPPE5rTy427Q/j1fVslBhLH2wJYOM+a++a43IIXH+WMZdeXDbdjR/ckIrsVJWD+TQO10Tx66ebGQgiOqZdUdUri5f5EnIlQcI+6W1a4vs9gH9z/BDRMQ++2IpNB1hGfSZjBtjxhzvTMTTfOFUESW4Fk4Y4LX3eOoI6/vo2l1vEw5JX29DUbu2qqcnDHIZr0nj9WV58e0Eqsph4OK1gWOJv77SjsZ1VgUQEAJCQ8ssbH8lL2B6KCXwnEtJp178EoJjjiIiAzm3E/vc/zahq5KqsMxlVaMfvvpSOCYONUWr9hfO98GVae4KxZlfI8m/o42VvRQRrd1s7trlpKm491zjVD7ee68U3rkpGehKXWpzJ+5sDeH29n4EgoqOzZ/HrkiWFCb17ZEJf1dc8WBSQUlwHoI7DiYgA4FB1FM+t7OC6+M8wOM+GX34hHbNHJ35FwYyR1q56aGjV8ejr3B4vnh56qcXyScvZo1xQDNDQ9Y6LkvG1y5KR7Gbi4Uz2VUTw22daGAgiOubtIbX5CxP9IBP+yr5pie8IIG8GwBa+RAQAeOLddqzZzbfEn6UwS8VPbk3D+ZPcCXuM5050YVSRtRtNfrQtiEM1vMXFU32Ljg+2WLufxshCG86b5EroY/z2ghTceUkSvC4mHs6kpUPH4ldb4Q8xCU9EgAD26rbwzYnYYPJkhri6lywu/ACQ3+fQIqJjfvmvZhzmhO0z5aap+MGNqbhmtichj+/y6R7YVevur1laF8WiV1o5UPvAn15rw8Eq614zbKrAZdMS8zogBPCjm1Nx4zwvnHbBwXoGug68sNqPlTuYgCciABJtUaks2PzQ4GYjHK5hUssliwsfhMTfOMKICOgsVX/45VZuv9kFmckKvnVNCu64KCmhjis3XcXEIQ7Lnhcpgbc2BtDq5xjuC4GwxKvr/NAt/LJ4whAH8jMSq7+Kwybw2y9l4JrZXthtTDx8lrW7Q1j6KhOWRHT0UUKIO7Ysyd9hlAM2VIevkWPvfSfkVC4GRAHHGhEdqY3C4xSYMNgBReFD65k47QKThzrgy7JhxfYgEmH+dc+VKZg+wrr9HvaUR7DwqWZozD30mW2Hw5g12om8dGs2OHU7BFRFYNXOxHhrnupV8PsvZ+Cc8S4IXsI/06GaKL7zl0YutyAiAICQWFiypOBRIx2zoRbVLX9icFBK/RpAVHG4EREAPPpGG1bvZPlpV9htAlfN9ODhuzPhcvTvk76qAFOGWjfxENUknlvZgXCUk4i+pEvgPx91IBSxbtynj3AmxFKnwbk2LP56piGa4iaClg4dD73YgsY2ZiuJCBACLxdn+35ltOM2XEefTYsHVOqKvB5AmMOOiKQEfvxkE3aVRhiMrt2sMGe0E3++Nwu+TFu/Hcc1s70Y6rNZ9jxsORjBS2u4RV5/eLs4gOL91k1YDs6z4Zo5/dv7YcZIJ/5wZwbGDLBzQHaBpgPPrOhgnwciOvrwiz0IBW/HQmG4bKQh2wlvfqRgNSS+zZFHRADQEZT47TPNqGnSGIwuGjfIjke+loFJ/VR9cN4kY2z7F5fxGtLx+LttkCx66DfL3mi3bK8NITp3mekvV83yYOFtaRiYa+NA7KLVO4P48xvcjpeIAACtkOLa4mVDDbnXrmH3MipZUrAEwF84/ogIALYfieBv77QjGOaMrqsG59nw69vTcOHkvt2Kc0SBHeMHWfeN5/o9YazZxTeY/WnbYWufg/GD7P1SdXD35cn49rUpyE1TOQi7aH9lFAufamaykogAQBdC3lqy1LfLqB/A0Fd/36Rb34KaPB/AQI5FItpZGkFRtg0jC1nK21VJbgXTRzjhsgsU7++b1WzfuCoF4wdZc5eLhjYdP/1HE5rbuW67v+04EsEFk91IcimW++x2m4DDJrB8a7BPfp/TLvDr29NxzWwP3E6Fg6+Lmtp0/OrfzThQxW2liQgQUvyoeHGBoXd/NPQdoHjZtIiq228EUMHhSEQA8Ot/t6BkP1vCdEeqV8GXL0nGg1/NgDvOjShdDoEpw6y7vebH24I4VM2JRCKobtLwUR9NvhPR1OFOeF3xX/tUmGXDo/dm4sIpbm6l2Q2aDvxnRQfW72GVFBEBAF4sXpL/W6N/CMOnnzcszamGkNcD4NWZiBDVJH7+VDNK6zjB6w5VAc4e58Kf7s3EoDiuxb51vheFWdZc611er2Hxq60cbAlk0SutOFxjzWtFfoaKW89NiuvvOG+iC4u/noEJgx0cbN308fYgHnuLfR6ICACwyy5cXwSE4RdgmaL2rWRR4Voh5Vc5LokIAMobolj8ahtaOlja3l3jBznw8Nc631LGw9yxLsvG9t0SP5dbJBh/SOK1dX7oFl1PPyeO21x+7fJk/PiWNBRls7Fkd207HMZP/t7EPg9EBABN0PWr1i3KNMXbC9N0/Kna8McteTO/myuA6RyjRHSoOgpdByYPc8CmstS3O1I8CmaOdCI7TcXaXSHE6vl31ignbjsvyZLnY095BD95shkacw8JZ+vhMOaOdiHHgk0QM1IU7CmPorQ2dtUfDrvAr25Px4I5HnjY36HbSmuj+P5jTWho48WCiKBLKNdvWlKw3iwfyFR3BSVU+S1AfsRxSkQA8I8P2vHmxgDfHvVAskfBDfO8eODODCR7YnOruGa2B0679RIPmg68tNqPcJQDMSGf7HTgPx+3I2LB82NXBa6Y6YnZzxuSZ8Oyb2bioiluJn17oL5Vx2+fbUFZPZcNEhEggB9sWpz/pqnm62b6MMXLpkXsqv0mAZRzuBIRAPz6383c1rCHVAU4Z7wLf7svC/PG9a48Oz1JwaSh1lz3veVgGM+u7OCASmBvbAhg4z5rNqqdPMQRk60vr5njwUNfy7TsTja9FQxL/O2dNqzbzfsVEQES+Ffx4oIHzPa5TFcPt+7h3BohcBWAAIctEek68D+PN2LHkQiD0UND8m34xefT8Z3rUqD08K5x+wVJyE61Xll7MCzxzw/bWX1jAMvebEOr33ql7pkpCm4919vjP++0C/z45jR87/pUFGSqHEg9uU9J4OU1fvznIyYpiQgAsEUJizvN+MFMuRhv46KCTVIKNqAkIgBAR1DiB39rwsFqJiB6KsWj4JZzkrDsm1nIy+heAzlFANNHOC0Zt3V7Qlhu4e0cjWTroTA27LXmW+cZI509SiyOHWjHX76VhWvneuCyc5lFT63YHsQDz7cwEEQEAA2qZltQvMznN+OHM22KunrDH7bmTf9OhhCYyTFMRO0BHYeqNcwc5YTXxSZoPSFE5/Z8Z49zotUvsa+ya8mcy2Z4sGCuF4rF5ibN7Tp++XQz6lvZOM4oth2O4IJJbiS5rXWNSE9WUdOoYU95pMvXgq9ckoz7r02J69a8VrCjNIzv/KURYbZ5ICIgKhR51cYlvk1m/YCmvrumZvu+Ayk+5DgmIgDYuC+Ev7zZho4gJ4O9UZRtw//clIIf3ZwGh+2zMwoXTXFBtWC+Z+XOEHaXsdrGSKqbNHy8w3qVKooAzp/cte11M5IUPPTVDNx1abIll1LFUmltFD9+ohkdQa7LIiJAQHy3+JFCU89dTf04uHyhiNqg3wDIgxzORAQAL6zy47mVfkQ1Puz1htepYMFcD/5yXxamDj/9kooBOTaMH2y9BnSVDRoWvcwyaiNa/EpbTLeeNIoJg+wYmm8/439zxUw3/nJfFs4aa82EYiw1tOl44PkWlNax5IGIAEA+VbzY97DZP6Xpbx3rlxQ2SIEFAPwc1EQEAIteacUHW7gOPxbGDbTj/76cju9dnwr7KbbWu+28JKR6rDdLeW9zgMstDKo9oOMNC27Rm+xRcOv8UzeeTPUq+O2X0vHDG9O4zCIGOoI6HnuzDat2cmcLIgIAbBJhxRL9Ci3xRLhpUeEWCfEFAHzVSUSQEvjpk81Yyy3NYiLVq+Dmc7x44jsnVkE47AJTh1mv6mF/ZQSPvt7GgWFgj7/Tjl0WXDIzZZgDzpMaR1423Y3H7svChZPdcDnYVLK3wlGJf37YgWdWcGcLIgIkUKPquNqsDSZPZpnFetXr/7Arf8Z3kgDM4TAnIl0CH2wJYtJQB3wZfJMXC1mpKs4e50Jehor1u8O4YZ4Hl07zQFhovqLrwN/eaceWg2EOCINfH3QdmDPWCdVCnVJTvQragxJbDoaR7FHwo5tT8cUL2NshlteH51f58cjLrQwGEQEQEQjlquIlvq1W+cSWuptUXfaH9/P9rTMAMZyDnYiiGrBiewjTRzj5cB0jLofA2IEOzBjpxIgCO3LSrBXXrYfC+M1/WlhmZwJ7yiOYNtyJgkxrJScdNgFNl1h4WzpmjnTCprLaIRakBN4uCeBXTzczGETUmXqQ8t6SxQXPWeozW+0kj7/7SLpdta0HMIxDnogAIC/Dhoe+mo7hPjuDQT0Wikj8+O/N+GBLgMEwiRkjnHjgznRLbc8bjkroOrjEIsZW7gji28saobEVDBEBEBBPFi/23W61z225LmDb/jSwCbq4CgBr3ogIAFDdGMUPH2/C4Rp2Haee27A3xMSDyazfG8L6PdZaQuOwCSYeYmzLwTD+529NTDwQ0TFrW0THXVb84JbcKKlkqW8XpPgi2ICSiI46VB3Fz55qQkWDxmBQt7X6dfzlTTaZNKNHXm5FXQuvC9QzO0oj+PayRgTCfOQkIgBAtRbVr9+/aLglu55bdpfmkiW+FyHlbzj+ieiY7Ycj+PW/m1HTxIkGdc+KHUFsPxJhIEyotC7KLRGpRw7XRPGjJ5rQ3MGSByICOhtMihu3PFpUYdUIKFY+/SXZBT8B8Bq/CER0zLrdIfzhhVY0tPFhkbqmtlnDkldY9WBmD73YiiO1XJZFXVdWp+HHf29CWR3HDREdJXBPySLfCiuHwNLJBywUutvjuBXATn4biOiY9zcH8OfXW9EWYAKCPtt7mwKoaWa1jJm1BXS8UxKAZOU8dUF1k4bfPNOMXWWshiKiTywtWeT7i9WDoFg9AKt+n92mqFgAiBZ+J4jomOdX+fHYW+1o8zMBQad3sDqKpa+x6sEK/vpWO/aUczJJZ1bdpOHXTzdj3W4u1SGioyRWh7Ka72cgmHwAAGx8uGCPhPwCAM4yiOgTT33QjiWvtaGF63XpFHQJvLrOz0ZyFhHRJJ5b2YFIlOebTq2mWcNvn2nG6l1MPBDRMaJKCu2GHQvHhhkLQGUIOlWv/+Oe/BnfUQDMZzSI6JidpRF0BCUmDHZw+zk6wY4jYfzq6WaW4lvI7rIIpo90wpdpYzDoBDXNGn73TAs+3s7EAxF9IqgI/ZKSxQN2MxSdmHw4TtX6P3zkm94+FgJjGA0iOmZnaQRtAZ0JCPpEOCqx+JU27KtkMzmrqW3Wce4EFxw2Xgvo2JjoTDx8tC3IYBDRJyTwtZLFhdzc4DhcdnECIYPSdocAdjAWRHS8F1b5sfiVVjS1cwkGASX7w3irOMBAWND6PSFs3MfqWepU26zht0w8ENGnyIc3LS74K+NwIiYfTrJjaU67pujXAmhmNIjoeC+u9uOB51pQ38oEhJW1BXT85S02mbSyR15qRX0LdzixOlY8ENEpCawMZbV8n4H4NCYfTmHzI0X7hBA3AeCTBRGd4K3iAB58kQkIK1u5I4TNB/jm28oO10axik0FLa22WcPvnm3BciYeiOhEpRLKAjaYPDX2fDiNqvV/OJA/87tRAOczGkR0vP2VUdS1aJg42AmPi+u+raSuRcNPnmxGW4DJJ6vbfDCM8ye5keLhexyr+STxsJWJByI6QVBCXLJpsW8/Q3FqTD6cQdX6B1bmz2gbBWAco0FExztQxQSEFb2+IYA3N7LXAwGhiERWioLJQ50MhpWeDRs7t9P8eBsrX4joJELeuWlxwRsMxOkxXf8ZIyjqUr8MiG2MBRGd7O3iAH7+ryZUNnCFlhUcro1i8SutDAR94s9vtGN3WYSBsIiyuih+9lQzVnA7TSL6tAdKFhU+wTCcGZMPn2HrA3kduk1cBYF6RoOITrZ6Zwg/+FsjDlZzy0UzkxJ4ba0fHUHJYNAnIprEy2v8iGocF2a3ryKC7/21CcX7mHggopMIvJ+S5fshA/HZmHzogs0P5R+WurwZAGcXRPQpO0sj+OafGrHjCN+Amvkc/+ODDgaCPuXZlR3YcpB9xcz+/f/2X5qwr4LXeCI6icRhERI3L18oOE/sAiYfumjTksL3BcCMFhGdUlVjFPf+qYFvxUwoqkk8s6Kdb7fp1M+dEnjivXb4Q2xCakabD4TxzT81oLKB8woi+pSAgLiueJmPFfJdxORDNxQvLngAEk8wEkR0Ki0dOr75aCOWbw1Ccp5qGiX7w3htHZtM0umt3hlC8T5WP5iJlJ3n9Z6lDWhqZ2KJiD59mQBwR/ESXwlD0XVMPnST06F/HcBGRoKITiUYlvjeXxvx1sYA35SbQEdQx1/fbmcg6DMtebUNjZykmoKuA++UBHD/skYEw7yOE9EpSPmbksUF/2EguofJh25a82BRQKjiOgB1jAYRne7B9Sf/aMK/lnfwwdXgVu8MYSOX0lAX7KuMYO0ujhWji2oSr67348d/b2ICmYhO552htQU/ZRi6j8mHHih+2FcqdLEAAGssieiUpAQefqkVj7/TjvYA34YaUX2LhiWvtTEQ1GUPvdjCrXcNLBCS+McHHfjFP5uhM+9ARKe2T7eFb3r2WcGLfQ+oDEHPVG34Q6lvxnfbAFzCaBDR6ZQcCKO5XcfoIju8LuZ7jSQYAQbn2ZCTpuBwjYZQhLMROjVFAFOHO3DDPC98GSpSvfyuG019q45H32jD4+9wmRURnVa7oqgXlTxcVMpQ9IxgCHpn6jcqHpPAlxkJIjqTcYPs+PEtaRjuszMYBtTQquNgdQTbDkfw7IoO1DbzhYfVOewCZ411Ys4oF8YNsmNQng12lY9VRlRaF8UfX2jFiu1BBoOITkcKyJuKFxc+y1D0HO+SvTT/i4dcLUnOjwTkDEaDiM4kK1XB/96ejqnDnQyGgTW169hXEcHeigjeKQlixxGuwLOK9CQFV8/2YNwgB0YU2OHLUCH4JGVo2w+H8eO/N6OsnltpEtEZ/bxkccFChqF3eMuMgan3Hc6XUftGAD5Gg4jOxK4KLLwtDedPcsFu4yXY6MIRiSO1UeyrjGLLwTDeKg6wx4eJ2FSBKcMcmDfOhWE+G4b77EhP4pIKM9B1YOXOIH70RBP8IS6pIqIzeqUky3ctFgre4HuJT74xMumbFXMUHR8CcDAaRPRZvnppMm6e70WKhxMZM6lr0XCwOoqDVVGs2xPCuj0hhNkrwjBUBZg81IF5410YlGPHoBwV+Zk2qPyamkowLPHyWj8eeK6FjSWJ6Mwk9ohIcGbxsqEtDEbvMfkQQ1PvKb9bCrGUkSCirjh/khvfvDoFhVns/WtWja06jtRFsbcigo37Qli1I8TGlQlEUYARBXbMGePEiAI7hvnsKMxS2bvBxJradTz+Tjv++SEbSxLRZ5Bok4oya9Oi/J0MRmzw7hpjU75R/mdA3MVIEFFXjCiw42e3pWFUIRtRmp0ugZomDeV1UVQ0aDhYHcGK7SGU1nGteV/JTFEwZ7QLowd09msYkGNDQZYKm8LHISsorY3i/55vweqdIQaDiD7ztg0pry5ZUvgaQxE7vNvG2NS7NtqlI/99APMYDSLqihSPgv/9YjpmjXKyeZ3FBMMSlQ0aKho6ExI7SzsrJGqauJtGb6V6FUwZ5sCkIQ4UZNrgy1KRn25DiodfMivafiSMn/y9mck+IuoSKeRPNi0q/BUjEVu8A8fB9K/X5ulKZIMEChkNIuoKRQG+e10qLp/uRpKbC8ytzB+SaGjVUNOso65FQ0V9FMX7wth+JMzGeKfgcQoM99kxeZgDOWkqctNU+DJUZKaoyEhWmNCzuEhUYsWOEH72DzaWJKIue6lksW8BIHjRYPLBGKbcWz4LUiwHwD31iKjLLp7qxt2XJ6Mo28Zg0CekBBrbNDS2STS0aWhs09DQqqOyUcPWQ2EcrokiGDbvM5LHKTAgx4ZxA+3wZdqQmawiPVkgI0lFdpqCjGQVXDlBJ6tv1fHv5e14/F32dyCiLtttF66Z6xZltjIUTD4YyuR7y78gpPg7I0FE3eHLtOFnn0vF1GFchkGfTdMlmtp1NLdLtAV0tHToaO3Q0RaUaGrTcKQ2ioPVUTR3dP5/MsFyFCkeBdlpCobk2VGUpSItSYXXKZCapCDZpSA9WUGaVyA9SYXCoiDqor0VETzwXCuK97O/AxF1WRN0fUbJ0qL9DAWTD4Y05d6KxZC4h5Egou5Qjy3DmOGG18UZF/VOJCrREZIIhiUCIQl/SMIf1hEIdf5zOCoRCEtENQldBzpCEqoAmjt0hCISwaM7dARDEqfKXSS5FLidAm6HgNclEI4CqR4F4aiE1yXgsgu4nJ1/dzsVuB2Ay6HAdfS/T3YLqCxdoBjQdGDVjiB+9lQzWv06A0JEXaUrUr9y45KiNxgKJh8Ma+pdG+26w/eOgJzPaBBRd1081Y2vXZaMATlchkFEdCZN7TqeX9mBR99oS7gKHyJKeD8oWVzwe4Yhvph86AMz7inP1ITYIIHBjAYRdVd+hoqffS4N04ZzGQYR0akcqo7goZdasXIHl1kQUXfJF0oWF1zPBpPxx1rePrB+SWGDpssFAPyMBhF1V1WjhnuWNODfH3WgI8gyYiKiT6YMEti4L4yvLW5g4oGIuk9ga9Rl+wITD30VbuozU+6t/BykfIqRIKKeumy6G3demowB3A2DiCyupUPHy2v9WPRyK3ROG4iomyTQqAhtRvGiAQcYjb7B5EMfm/KNyj8C8n5Ggoh6KitFwf+7OQ1zxjhhV3kZJyLr2V0WwdLXW7GK1Q5E1DMadHFFyVLfWwxF31EZgr511sAH3mtKbpsBYBijQUQ94Q9JvF0cQGObjqH5dqR4uIKOiKwhEJJ4f3MQ3/trIw5WRRkQIuoh+d2SJQWsSO9jfGXWD2bfX5YRiqjrATmU0SCi3ijMsuGHN6VixggnFOYgiMjEDlZH8bd32vDmhgCDQUQ9J/HPkiUFtzEQfY/Jh34y5e6yCVCV1QC8jAYR9epCLoAvXJCEm8/2IieNBW1EZC6RqMSaXSH84l/NaGpn010i6tXkdzPCYm7xMh83Auif+FN/mXJv5QJI+RzPAxHFwuA8G753fSqmj3BC4VWFiEygrE7D08vb8Z+POxgMIuqthijU6VsX5x1iKPoHX5H1o6r1f9jlm/kdN4CzGA0i6q3mdh1vbQzAZRcYkGOD28EMBBEZk6YDG/aE8D+PN2HNbjaVJKJeiyrQr9y0uGAzQ9F/+GTa3xZKZXJ91asC8jIGg4hiZcowJ+69KhnjBzkgeKUnIgOpadLw3MoOPP5uOyS30CSi2Mx67y1ZVLCYgejv00D9bvzdR9Ltqm09uAMGEcWQqgBfvSwZl8/wIC+dhW5ElNg0Hdi4L4T/e64Fh6q5kwURxWrGK/9RsqjwCwxEApwKhiAxTP1G5SgJuQ5ACqNBRLGUn2HD/dcmY+5YF1x2XvaJKPFUNmh4YXUHnmC1AxHFVonTrp+15sEibpOTAPgUmkCmfqPyGgn5As8LEcXD5TM8uP2CJAzNtzEYRJQQQhGJDXtD+OXTzahv4U4WRBQ7EqjRhJy2dVFhOaORGDjJTTBT76n8pRTyx4wEEcWD1yXw3etSMX+CCykehQEhon6zpzyCJ99vx1sb+UKSiGI+zY1IiQs2LfF9zFgk0FlhCBLMQqlMqa98GcAVDAYRxcukIQ58/YoUTB7m4LacRNSnmtp1rNwexO+fa4E/xDUWRBSXae5XSxb7ljEOCXZWGILEM/f7dckBf3gtgDGMBhHFi6IAd16SjKtmsSElEcWfpklsORTBA8+3YE95hAEhoviQeKJkScEdDEQCPnsyBIln1e+z2xQVCwDRwmgQUbzoOvDnN9qwu4yTACKKr+omDb9/rhV3PlzPxAMRxdOaVsX/NYYhMTH5kKA2PlywB8BNADRGg4jiJTddxfjBDgaCiOLK5RBYtTPIQBBRHIkqLarfsH/R8BBjkZiYfEhgJYt9bwuJXzASRBQvX7wwCZnJvBUQUXyleRXcPN/LQBBRvISE1K7d8mhRBUORuPjEmeCKl/h+CYhnGQkiijWbKjB1mJOBIKI+MWWoE4LdxogoDoQU3yheUrSOkUhsTD4Y4KsU0m1fAuR2xoKIYmnBXA8G59kYCCLqEyMKbJg71sVAEFFsZ0vAouIlvscYicTH5IMB7Fia0x6F7SoADYwGEcXKuRNc3GaTiPqMTRW4bJqbgSCimJHAqmBW83cZCWNg8sEgti7OO6RI3AI2oCSiGBg9wI6xA+0MBBH1qYlDHEjx8PGTiGKiTIuqC3YsHBtmKIyBV38D2bik4F0B8WNGgoh665ZzvPC6eAsgor6Vl67iVjaeJKLeC+q6ct3WR/NqGQrj4JOnwRQvzv8dgH8zEkTUUx6nwKShbDRJRP3j3IluuB1c80VEvfL1zUvzNzAMxsLkg+EI6bTrXwJQzFgQUU+MH+RAXrrKQBBRvxiUp2L8YAcDQUQ9mw0J8ceSxQWPMxLGw+SDAa15sCggpbgOQB2jQUTdtWFvCAerowwEEfWLfeVRbNgbYiCIqPsE3k/OzP8BA2FMTD4Y1KYlviNSylsAcAZBRN2iS2D7YfZmIqL+sWFvCFIyDkTUbUcklFuWLxSc/xgUkw8GtmlJ4ftSSmb+iKjb3i72Q9P49E9EfavVr+PfH3UwEETUXQEo4rpNi/JZ+W1gTD4Y3KYlhX8EwDVPRNQtxfvDKK/nzr1E1Lf2lkdQ08xrDxF1i5QSXyp5xMeedwbH5IMJpLSHvw4h2e2ViLpM14FDNaxaJKK+tbs8wiAQUbcIgd9vWlLA3f5MgMkHE1j+xOCgqonrAHCfWyLqssNMPhBRH5ISWLubjSaJqBvXDeDdIdW+HzES5sDkg0lsWFpQpgALALCLHBF1Cd9AElFfagtI7OF1h4i6SuKwEha3Pvus4Fotk2DywUQ2Li5YBYHvMBJE1BX7KyOI6mw6SUR9IxzV0RHkNYeIuqRdUdUri5f56hkK82DywWRKFhUslgKPMRJE9Jl39YBEkBXQRNRHVEXAYRMMBBF9Fgkpv7zxkbztDIW5MPlgxpMaqvo6BFYyEkR0Jg47YLMxDkTUN5LcAtmpfPQkojOTEL8qWVL4DCNhwnkqQ2A+xcumRVTNfgOACkaDiE5nZIEdLrtx3kLqEthbEUEgzLJtIiOyqwJzxjgZCCI6k7eH1eT/nGEwJyYfTGrD0pxqKeUNAFhUTUSnNH2ksSYBO49E8Lnf1+Guh+vx4mo/9lVGoOk8j2Q9HUEdxftDeOztNmw6aKw+0yMKHDyBRHRKAtir28I3s8GkebHg1sQ2LSlcM+Xe8q9BiscZDSI64eKvCkwdZpzkQyQq8e+P2qHrwM7SCHaWNkMRwOzRLlwyzYXxgxwoyuYtjcwrokkcqo5i2+EI/rO8AweqO3eNOHt8BKO+mA63wxhVTOMH2eFyCARZwUREx5Noi0JZsOWhwc0MhnmpDIG5Va3/4+b86d/OhxDTGA0iOua6s7y4cqYHwiCrLjbsDePhl1tPek4Byuqi+HBLEC+t8aOpXYcuBZLcCtxONrUj49MlcLgmihXbg1j0ShseebkVK7YH0dT+35KfI7VRjB/swMAcYyTfUr0K2gMSWw5xZ3Ai+u8tXQrxuc1LfB8xFObG10QWICLV90pH/mgAZzMaRAQA5050GSbx0B7Q8de328/43wTDEk8v78DTyzuQmaLg2jkeTBjsxMhCG7JSmGcnAyUcdKC0LordZRGs2hnE28WBz1xetPS1Nowf5EB6kjFW084b58ST77fzZBNR51xFYmHJEt/zjIT5MflgAcXLpkVmfqvmxqgW3SiBQkaEyNomDnZg/CC7YY537e4QSvZ3vX1NQ6uOx95qB9COFI+Ca2Z7MGmoA6MK7chNZyKCEk9Ukzhco2F3WRgfbQvio23BbvUz2VcRwcodQVw502OIzztmgAPTRzixYS/bUhFZPvEg8HJxlu9XjIRFzjdDYB1T76mcIoVcCcDNaBBZ1/99JQPnTXQZ4ljrWjR85eEGlNdFe/2zPE6BK2d6MG2EAyMLHSjIZCKC+k84InGgurPC4f3NQazbHYTeizYIGUkKnvhutmHG9YdbgvjuY40cCETWtluEg7OKlw1tYSisgckHi5l8T+XnhZBPMhJE1jQ4z4a/3peFVK8xyrOfX9mB//1P7J9JnHaB8ye5MWOkA0PzbRiUa4PHyQ2gKL4aWjUcrI5if2UU724KYEuMd6q496oUfPHCJEPEosWv486HG3CgMsKBQWRNrdDFrJKlvl0MhXUw+WBBU79R8YgE7mUkiKznV7en49Jpxih+Kq+P4gsP1KOlI/77aRZlq7h4ihvDCuwYUWDHgGybYXpiUOIKRyXK6zUcqYliZ2kYz630o9Ufv/FsVwX+/t0sjCw0xrKqNzf48eMnmzlQiKxHF0JeVbyo8HWGwlrY88GCkrN8326tqxoHIc9lNIisIy9dxfThjsR+GtGBisYoDlRG8fbGQJ8kHgCgrE7DY0ebWjrtAvMnuDBjpBPDfDYMzLEj2c1MBH02KYHaZg2HqqPYXxXBu5uC2HEkDNlHu0pGNImHX27FtbM9GH40iaYkcEHP9JFO5KWrqG7SOHiILERI8ePixQVMPFjx3DME1jTjnvJMTYgNEhjMaBBZwy8+n47LZyRm1UNFg4bth8P4YEsAy7eGENVkwhxbVoqKi6a6MKLAjkG5NgzIthlm2QrFly6BmiYNpXVRHK6OYuO+EFbvCiEY7v/xqyqdu9pcONmNiUMcyE5NzF4Qr63z42dPNXMwEVnHiyWLfdcBQjIUTD6QhUz6evkkRRGrAHgYDSJzG5hjw2P3ZSEjObEmzZUNGj7YEsCf32iDP2SM55CMZAXnT3JjzIDOZERRts0wWxxSL5MNOlDVpKG0NoojtVGs3R3Cuj0hhCOJPXZTPAq+fHESzp/kRn5GYiUhGtp0fOXBepTGoKksESX8zHNr1KnO2fpAXgeDweQDWdDUb1TeKiH/yUgQmdtv7kjHRVMSp+pBl8CqnUH84qlmNLbrho5tqlfB/AkujCy0oyBTRUGmDXnpCtxsYGl4DW06qhujqGjQUFEfxfq9YWzaH0ZEM+YLu/wMG356ayqmj3AmVE+Tt4sD+H9PNHHAEZmYBBoVoc0oXjTgAKPB5ANZ2OR7Kh8QQn6HkSAyp1FFdiz9RiZSPYkzGX6nJIAfPdHUq60FE9mAbBvOGuvEkHwbfJk2+DJU5KWrsNt4201UrX4dVY0aKhs0VDRGsflAGBv2htEe0E31ORUF+NUX0nHhFDeUBBmOzR06vraoAfsquPMFkUlpEsqVmxbnv8lQMPlAFnfDDVI9kFvxKiAuZTSIzOehr2Zg3jhXwhxPyf4w7l7ckFB9HfpiwjfcZ8esUU74MlXkpqnITlWRnaYgPUlNmEmgFYQiEvWtOmqbNdS1aKht1rCvMorVO4NobNOtMR4F8PuvZODcCYlzXfhoWxDfXtbIAUpkxgmnkN8tXlT4B0aC+LhDAIDZ95dlhCLqekAOZTSIzOOc8S787xfT4XIkxuW+tDaKu5c0orqR67sBwOMUGFVkx5RhTuSmq8hJVZCbZkNmsoLUJAGVWYleJRkaWnXUtmiob9FQ06yjtDaCDXvDKKuPQtc59pZ9MwujByTGtpzBsMQPn2jCx9uCHLxEJiKBf21aXPA5RoKYfKATTLm7bAJUZTUAL6NBZHyKAP7yrSxMGpoY22sGIxK/f7YFL6/x8+R0YWJYkGXDcF9nH4n0ZAUZSQrSk1WkJylI9SjISrV2TwlNl2hpl2gP6mgL6Ghs09HUrqOpTceB6gi2H46gvD4KTed4Op2zxrrw2zvS4XYmxuPgpgMh3PVwg2mXYxFZ0BYRFnOKl/l44ycmH+gUCYh7Kq+FkM9zbBAZ383nePHtBalQE2SO+v7mAL7/VzaV6/WNWwA5qSqGFdgxLL9z288UjwKv8mWWuwAAJVNJREFUS3T+3SmQfPSfkz0KXHZjXc41XaItIOEPdiYWOoISbX4dHSGJ9oCONr+O8noNO8vCKK/TEAhzptobD341A2cnyLIsXQf++GILnl7ORvhEJtCgarYZG/6Ue5ChICYf6LQmf6P8fwXEDxkJIuPyOAX+/p1sDMm3JcTx1DRp+NKD9ahu0nhy+ojTLpCVosCXaUNhlorMZBVOO+B0KHDaAZdDgcsOuBwCLoeAwy5gVwWcR5MVQuCTxIUQgMP23//ttAtoGhCOyk92TdClRCjS2d8CEtB0IBjWIaVAJKojEOn853Ck88+FoxLBiEQwJBGKSATCEkdqoyitjX5SxUDxN7LQjqX3ZCItQbaLPVAVxRf/UGeYrXeJ6JSiQpEXFT9S+CFDQcezMQR0sk1ZBT+eUl81AZCXMxpExnT/takJk3gAgA+2BJl46GOhiOzcIrJBw4a9vf95bof4ZLcORcEJPROimuRk0aD2lEewamcQl8/wJMTxDM234f5rU/Hrfzfz5BAZlBDiO8WPFDDxQJ/CTcjp0xYK3S6ctwLYxWAQGc+oIjvmJ1AX+0PVUSx5tZUnxuACYYlWv45Wv47mdv2T/93q15l4MLilr7ehriVxkoMXTHZhwmAHTwyREQn5j+JFvkcYCDoVJh/olNYtymxVVFwLiBZGg8hYvnlVCjKSE+PyrkvgpTV+rssnSmDVjRrW7w0lzPGkeBTcfXnyJ0t6iMgwNjlt8qsMA50Okw90WhsfLtijS3k7AC68JTKI68/yYsrwxHljuK8igqeXt/PEECW4ZW+0o6EtcW73U4c7ccv8JJ4YIoOQQI2q4+o1DxYFGA06HSYf6Iw2Lyl4GcAvGQmixOdxCtx0thd2NXFeF67YHuRWh0QGUF4fxfo9iVP9oCrAdXM9SPbwUZUo8YkIhHLThqUFZYwFnQmv6PSZShb7fi6keI6RIEps316QWE0mK+qj+Pt7rHogMoq/v9eO9kDiZAsH5dpw39UpPDFECU5I/VubFuV/xEjQZ2Hygbp0SXF57V8SwA7GgigxjSqy45zxroQ6phU7QmxESGQg+yoi2HIwnFDHdN4kFyYPdfLkECUoCfH34iWFf2IkqCuYfKAuWfX77LaolAsANDMaRIlFiMRqMgkADW06nni3jSeHyGBeXRdAVEucpGGKR8HdVyRDYfNJokS0tk10sMEkdRmTD9RlW5YU7hVC3ARAYzSIEsfN53gxdXhibUu37VAYdS1s9kBkNO9tDmBnaSShjmnyEAfuuIjNJ4kSTLUW1a/fv2h4iKGgrmLygbqleJHvHUD+jJEgSgzpSQpumOeFLYGaTOo68P5mNrsmMiIpgdW7EmsuoSjAtXO88GXaeIKIEoKIQIgbtzxaVMFYULeu5wwBdVfJ4oL/hcAzjARR//vBjakYmJNYD+T7qyJ4q5jJByKj+ucH7ahoSKwix/wMFd9ZwOaTRAlB4J6SRb4VDAR1F5MP1JMrjgxp9i8DYhtjQdR/5o93Yc6YxGvEVrI/DJ0rLogMyx+S2HIw8Sqp54xx4qpZHp4gov61tGSR7y8MA/UEkw/UIzuW5rTrNnEVBOoZDaK+57QL3HlZMrzOxLqMtwd0PLuigyeIyOCeW+lHIJxYu9U4bAKfPz8JSW52nyTqFxKrQ1nN9zMQ1FNMPlCPbX4o/7AEbgEbUBL1ufuuTcGoQnvCHdeeiggO10R5gogMbsvBMHYlWONJABiSZ8P3rkvjCSLqc6JKCu2GHQvHhhkL6ikmH6hXNi0qeA/A/2MkiPrOuIF2XDjZnZDHtvkAn0mIzKJkf2I2sZ8/wYmzxjp5goj6TlAR2jWbFg+oZCioN5h8oN4/nCwu+L0AnmYkiPrgoi2Ae69ORXpS4l2+Wzp0PL/Sz5NEZBL/Wt6B2pbEK25Mciu469IUOGxcfkHUF6TAPRsXFa1nJKjXz7EMAcWCw65/GUAxI0EUX3dclIwpQx0JeWw7SyOoaeYqLCKzaOnQsfNIJCGPbexAO+65MpkniSjehHxo06KCvzEQFAtMPlBMrHmwKCCluA5AHaNBFB9D8mxYMNcDJUGv3JsOhHiSiExm5Y4gpEzMY7t8hgfThnP5BVHcCKwUoervMxAUK0w+UOwmHkt8R4QuFgAiwmgQxZaqAD+6OQ156WpCHl9Dq4bnuOSCyHReWxfAkdrEbCKbnqTgO9elwOPk8guiOCiVUBYUL5vG53qKGSYfKKaKl/pWQoIZUqIYu++aVEwc4kjY49txJIKWDp0nishkIprE9iOJ20h2RIEdP7ghjSeKKLaCEuK6TYvyWdFMMcXkA8VcyRLfQ5Dg2jCiGJk12onLZ7ghEvjl3vq9XHJBZFavrw8gHJUJe3znT3Lh8hluniiiWBHy7k2LfRsZCIo1Jh8oLlI6wvdICHbFJeqlJLfAt65OQao3cS/XlQ0aXl7DJRdEZrV+Twh7KxK38trtFPjKJckJuyyNyFAk/q9kUeETDATFA5MPFBfLnxgcVGzhawBwP2CiXvjJrWkYUWBP6GPcVRaGPyR5sohMbMvBcEIf34BsG376uTQobP9A1BvvpWT7/h/DQPHC5APFTfFDg6p0BTcACDMaRN1367lenD3OldDHKCWwcjuXXBCZ3XMrOtDmT+y+LtNHOHHPlSk8WUQ9uqHjsAiLW5YvFFEGg+KFyQeKq82PFKwWwP2MBFH3DPfZ8blzk+CwJfZrvLK6KN4qDvCEEZlcaZ2GvZWJ3fReEcA1czyYPZrbbxJ1U4cQ+lXFy3z1DAXF9TrNEFC8FS8uWArgL4wEUdeoCvA/N6YaYv3yjtJIQjeiI6LY2XIw8XfcS/MquPeqFLgdXH9B1EUSwJeLFxdtYygo3ph8oD4hwlX3AFjBSBB9tm9enZLQ22oeo+nAB5tZ9UBkFc9+3IHm9sTfUndkoR3/c2MaTxhRV0j5m5LFBf9hIKgvMPlAfaJ42bSIqttvBFDBaBCd3uShTlw+w5PQ22oec6g6iuXbgjxpRBZR26JhT3nEEMd63iQnLpzC7TeJPsM7Q2sLfsowUF9h8oH6zIalOdUQ8noA7E5HdAoOm8B916QgPckYl+ath8LQdZ43IivZdNAYPaQ9TgVfvTQ5obcpJupn+3Rb+KZnnxUaQ0F9hVdk6lMliwrXSiHvYiSIPu1b16Rg3CC7IY41ENLx/KoOnjQii3luRQcaWo2RdRycZ8N3FqTypBF9WrsmlWs3PzS4maGgvsTkA/W5TYsKnwSwlJEgOu4hOdeG8ya5DHO8u8oi2F0W4Ykjspimdh27DPTdnzfOianDufsF0XGkFPKOLUvydzAU1NeYfKB+IcJV9wHyI0aCqNN916QiJ1U1zPFu2BvmSSOyqOL9xlk9meJRcOclSYboo0PUR36xaVHhcwwD9QcmH6h/HlyWTYvYVftNAMoYDbK6i6a4MW2kwzDHW9ei4d8fcckFkVW9sMqP2mbjLBOfPNSBG+Z5eeKIgFdKsny/YBiovzD5QP1m3cO5NYrA1QD8jAZZlU0VuO28JLjsxnktt6ssglY/O00SWVV7QMe+yqihrrPXzfXC5WD5A1mYxB4RDn4BCwVv4NRvmHygfrVxUcEmQHyVkSCruu08L8YMsBvqmHeWstcDkdXtKTPW0qthPhvuuDCJJ46sSaJNKsqC4mVDWxgM6k9MPlC/K1nsewpCPsRIkOUuwApw/iSXodYitwUkXl/HYiUiq3tlnR8dQWO9QJ0/wQ2HndUPZDk6IG/dtCh/J0NB/f7syxBQIhhaXfBdAG8zEmQl15/lxagih6GO+UBVBJWN3BKcyOrK6jQcqo4a6piH+Wy47Tz2fiCrkT8tWVL4GuNAiYDJB0oIzz4rNKddvxWQBxkNsgIhgEunuaEY7CXc/kouuSCiTnsrjHc9uGCSGzaV1Q9kGS+VLC74X4aBEgWTD5Qw1jxY1CgFFgBgG30yvUunuw3X60HXgRXbQzx5RAQAWLcnBF0a65hHFNhx8zmsfiBL2G0XrtsBIRkKShRMPlBC2bSocIuEuB0AL5RkalfN9Bju7VtFQxRrdzP5QESdPt4eQrXBlmEJAVw4xW2oXjtEPdAEXb9y3aLMVoaCEgmTD5RwNi32PQ+JBxgJMqvpI5yYMNhhuOM+WB1FVGNekIg6hSPScH0fAGBUoQ0XTHLzBJJZ6YrUbytZWrSfoaBEw+QDJaSSbN//APJNRoLM6No5HjgN2HF9H/s9ENFJ9hrwumBTBS6e6uLJI7P64cYlRW8wDJSImHygxLRQ6BFN+xwAZm3JVJx2gXGDjFf1EAhLvFMc5AkkohO8vTGAQNh4FVGjihxwO7j2gsxGvlCy2Pd/jAMlKiYfKGFt+9PAJujiKgBcr0amcdEUN3wZquGO+2BVBAeqWPlARCfaVxnBQQNeG/IzVFwyjUsvyFS2RF22L7DBJCUyJh8ooZUs9e0SbEBJJjJ1uMOQjc72lDPxQETmuj4YsfcO0alIoFHVbAu2PpDHHeMooTH5QAmveLHvJUBwj2IyhaIsm+GOWdOB5Vu5ywURndqHW0LQDNiMtiDTxpNHZqAJiFs3/Cn3IENBiY7JBzKEkqz8nwJ4jZEgI3PYBfIzjbfkorQuijW72e+BiE5t7Z4gjtRqhjvu3HSFW26SCcjvlSz2vc04kBEw+UDGsFDobo/jVgA7GQwyqvwMFele411295RFoOs8f0R0aroO7CoLG+64U70qMpL5KEwGJvHPksWFDzIQZBS84pJhrPp9dpuiYgEgWhgNMqJh+TY4DLbFZlSTeHdTgCePiM7otfUBhCLGWnqR5BIoyODSCzImAWwWEXEXI0FGwuQDGcrGhwv2SMgvAOB7WDKc7FTjLbnYVxnFR9u45IKIzmz9npDhGk8KAXjdXHdBhtQQgbqgeJnPz1CQkTD5QIazaXHBKwB+wUiQ0XicxrvkbjoQhuReM0TUBRv3Gq8xrdfF5AMZjYgo0K/fujjvEGNBRsPkAxlSyWLfLwDxLCNBRqLpxprFN7fr+NeH7TxxRNQl/1regbpWYzWebPUzu0oG8//bu/Mvueo6jePPp6qXsAUwCaRvV8OERWbkDEsIKpzRUceZo2eOAUJYBEEBBwaSCIgi6oCNwxFBINBVlTDREWRRoVkdMexplCSQdFV1OglLEgghSScha6f3Wu53fsBR4yTQna7uvrfq/foDOJx3JTe3n771vc5d3ZyoayIEwojxASFlrs+vuFhyy2iBsNjWEa5vCy1fk9WGbQU+OAD9sr3T15K3wvPVC9+XtnZwjUOobn/vTydrk4RAWDE+ILSWzzqkM6+KyZK2UgNh8O6WvMLy8ENfzumxBXyVFMDA3Pd8hzp6wjG0bu/ytZGBFeGRrq5wl5EBYcb4gFBrTYxfHXH6siTuHhB4b7Xl1d4VjpvypatzamrloEkAA7P83ZzSq8Lx2s1tO3119fK1CwSfkzblzZ22cGYdr59CqDE+IPSak7XPmbPrKYGg6+zxtbk9+DtZLu/0yPwuPjAAe+XBeV3q7gv+0LpxO7+3QBhYTs7Obo3H1tECYcf4gJKQStb8WNJDlEDQvbs5H/j/x2Vrcno+wy9XAOzlv8kr+5R+K/hPP7yzKceHhTCYnkl6vycDSgHjA0qEuepK/yJJaVogyFasC/bNbr7g9MSCLl6vCWBQHnqpS73Z4F5IerNOz7fw1TIE/O5Wdnc64c2hBEoF4wNKxsKZdT3O2RSZtlADQfXY/G5tDfCr6JauzumpxTz1AGBwFrzWp+aVfYH9/1vZltOyd7J8UAj0rW27dV1FBpQSxgeUlEzSW+N8d66kPDUQRNs7fS1/N5hPP/Rmne5/sZOnHgAUxc+e7tTO7mCe/bDozT4+IASYbXAqTF0VP5o/qCgpjA8oOZlk7AUzdx0lEFRPLuxWNh+8n/BffbNPLy3lMWQAxbH0nazmLQneNWXt5rzufa6TDwhB1WeucEYmcVgbKVBqGB9QklLx2O2S7qEEgqiptVetq4P19MO6LQX9+OEdfDgAiurWR9r1ZsDOunlxSa+6+3jEC8FkzqanknWvUgKliPEBJWt0Z/YKmVtMCQTRz57uUGdPMB5H7ulzuve5Dr23w+eDAVBUvVmn2x/dGZjXDL++Nqe7n+rgg0EgmRRPJb2fUQKlivEBJavp3gm9FolMlfQeNRA0i1f06cUAPI7sO+l/Xu3W4wu6+VAADInUqj7d82ynuvtGduBs7/I1+7c7A/m1N8BJ83vH7vgWJVDKGB9Q2jc8d3nvRqQpkjjSGoFz88PtI3raunPvP378k0fa+TAADKmHft+l+18Yuddv5gtOjy/o1vzXOL8PgfRuIR+dsrz+WO5XUdKiJECpa1t0x9rxH7+m3aQvUgNBUvClJauz+vgx1Tpo/+Hdgp2TXlraq+t+vk0+vwQEMAxSq7KqrDD9bV2lqipsWK93c5t7dEsjQysCqdf3I19cMrtmJSlQ6hgfUBY2Lrpjkffxa+okTaQGgmRHp68V63I66egqjd53eAaIXN7pd4t7dP1921XgmAcAwyi1MqsdXb7+7rBK7Tdq6K95+YLTs6le1T+4g9cII6guzSS9p8iAcsD4gLJxzMdmPNtbVfEvJtVSA0GycXtBmbeyOu6IKo05YGgvy1t2FnTfC12a+fhObsQBjIg31ubU8nZWR9dW6ZCDhu6a19Ht65GXu3Xzw+1c7xBIZnZHOlF7CyVQNn/mSYByctJV79S4fGWzJI8aCJqP7B/R9ecdpFM/Vq2KaHEvz/4fv+Ix8/F2LV+TIzaAEVdVabrytNH6/AmjNPbA4o4Qq9pymv1Uh5paewmNoP4U9sLoMd4XmuotTwyUzx97oMycOG3dKWY2T1I1NRBE5/7jfjrj1H11lFc56P+Wc9JbG/J6alG3Hnixk/MdAATO3xxaoa9/4QCd/NEqjR09uBFiw7aC5i3p0azfdqgnywUPgbXGWeTkTLxmMylQThgfUJZOnL7u3002mxIIqupK09c+v79OPbZax8QqVTnAJyG6en2tWJ/XH5b16pfzupQrcBMOINgOPTiq8z+7n46bUKUjxlf0+0yIzh6ntzfmtHhFnx54sUs7uznMBoHWo4h9Kt3gpUiBcsP4gLI1cfq6/5LsUkog0Bdpkz5xTLU+c9woHTG+UoceHNGYAyLap/rPN+XOvf/++u2dvtZvKWj1ppyeWtSjlW18vQJAOMXGRvX5E/fR4YdU6CMHRHTgvhFVRE3RqKk366u71+m99oLWb8lrbqpH67cUiIYwcM7pvEyy9tekAOMDUEZOurS50lXVPC/p09RAWERMGndQVOMOjGrcgRH1ZaWtHQVt2Fbgt30AAASYk36cSdR+lxIoV4wPKGufuHLToflCvtlJMWoAAABgKDjpuaM2eV9sbDQe00HZYnxA2TtpWttEZ+5lSftQAwAAAEXl9E6F3KRFydhWYqCcRUiAcpdKemnn7DJKAAAAoMg6I9HolxgeAMYHQJKUSXr3S0pQAgAAAEXi5NwlzQ3jl5ECYHwA/mT0WO9qJ2uiBAAAAAbLyW5KJ2MPUwJ4H+MD8EdN9ZavdP5Uk1ZTAwAAAIPwzFGbam4kA/BnjA/AX1iUjG0t+G6KpG5qAAAAYKBMWuFXZM/lzRbArhgfgL/SMivWIrNLKQEAAIABcerIu8iUljsn7CAGsCvGB2A30nHvQTO7gxIAAADoJ+fMLlqSrFlOCuD/Y3wA9uCIjTXXyvQ0JQAAAPBhzKk+k/AepQSwe4wPwB40NlqhusI/X7K3qAEAAIA9MdOTqXHeTZQA9ozxAfgAC2fWbVOhMEVSFzUAAACwG2+or/erqjefFMCeMT4AHyI9u65VZhdKctQAAADAX9juR/zJqTlHtpMC+GCMD0A/pOPeY066hRIAAAD4I9/MXdDSULeSFMCHY3wA+ikz1vu+ZE9RAgAAACb7fioe494Q6PffGQD99veXrzm4MlrxqqSjqQEAAFC2Hk8nvDMl42u5QD/x5AMwAEtnH77dZJMl43t9AAAA5cjUmh8VvYDhARgYxgdggFIJ7w3fua9K4kRjAACAMuKkbabClNbbxvMmNGCAGB+AvdCSrH3SmXiXMwAAQPkoSJGvpOKHvUUKYOAYH4C9lIl79ZJ7lBIAAAClz8x9J5OomUsJYO8wPgB7/0+Q22ff6oskvUYLAACA0uWkX6bisdspAew9xgdgEObfOq6j4NwZknZQAwAAoPSY1BLJ2r9RAhgcxgdgkJYkYyskO1dSgRoAAAAlZWtO0SmpOV43KYDBYXwAiiCd8J4xuRspAQAAUDLyFnFntSbGryYFMHiMD0CRpBK1N8n0MCUAAADCz8yuSTXE5lECKA7GB6B4/0S5vkLlJZJbRgsAAIBQ39bdn4p7DYQAiofxASii5bMO6fQrol+SaQs1AAAAQilTXeEuIwNQXEYCoPgmTVv/z75prqQoNQAAAMLBSZsK5ia1xmPrqAEUF08+AEOgOVn7nHP6PiUAAADCwnKyyDkMD8DQYHwAhkgm6d0q6deUAAAACD4n/xuZeM1LlACGBuMDMGTMVVf6F0tK0QIAACC4nOwXmUTsbkoAQ4fxARhCC2fW9ThnZ0raTA0AAIBAeqXDujhgEhhijA/AEMskvTWSO1dSnhoAAACBsrGQ96euih/dRwpgaDE+AMMgnYi9KLlrKQEAABAUlpPZ2UvurltPC2DoMT4AwySdiM2U088pAQAAEACmaem49wdCAMOD8QEYRqO7stNkbjElAAAARpApmY57PyUEMHwYH4Bh1HTvhF7n/NMl20ANAACAEeC0oG/Mjm8SAhheRgJg+J3wjfWnRnzNk1RFDQAAgGH78WeDU35SJnFYGy2A4cWTD8AIaGmoXSAnFncAAIDh0xuxwukMD8DIYHwARkg6WZuUxHcNAQAAhoEzTWuO1y2iBDAyGB+AEWTZDdMkccoyAADAkN50uTsz8VreOgaMIMYHYASl5kzKRf3KsyXxfmkAAIChYHrZ+jZeSwhgpP8qAhhxE2es+6ScNUmqpgYAAEDRrHEWOTkTr9lMCmBk8eQDEADpeOwVc+4ySgAAABRNjyJ2JsMDEAyMD0BApJKxXziz2ZQAAAAYPGe6JN3gpSgBBAPjAxCkv5B9bVdK7iVKAAAADILTTzLx2l8RAgjQzzokAIIjNWdSrjJaeY6ktdQAAADYK8+PHud9jwxAsHDgJBBAk2asP9F3elnSvtQAAADoJ6d3LGcnp+Z4W4gBBAtPPgAB1ByvzUjGAZQAAAD912nmT2Z4AIKJ8QEIqHTCe8A5NVACAADgQzk5d0kqUbeUFEAwMT4AAXbgOO8aOZtHCQAAgA9iP0onYw/TAQguxgcgwJrqLV8h/yzJvU0NAACA3Xr2yE01PyADEGyMD0DALUrGtjrTFEnd1AAAANjFSr8ie05joxVIAQQb4wMQApl4bImTXSjJUQMAAECS1FlwkTNa7pywgxRA8DE+ACGRSXiPSrqdEgAAAHLO3EVLkjXLSQGEA+MDECLpsd53JDeXEgAAoMz9MBOPPUIGIDwYH4AwqTc/VyicL2kVMQAAQJn6TXqs90MyAOHC+ACEzNLZh2+Xb5Ml7aQGAAAoK05vWrb3QtWbTwwgXBgfgBBKz/Jel7OviQMoAQBAuXDqcJHIlNScI9uJAYQP4wMQUumk97icu5kSAACgDPiSOy8Tr3mNFEA4MT4AIZYeV3u9pN9SAgAAlDZ3QzoZ454HCDHGByDM6s3fZ9+q8yTxWwAAAFCqnkgnan9EBiDcGB+AkJt/67iOSFRTJOP7jwAAoNS8XmmjvioZ51wBIcf4AJSA5rtq33RyF0ri5GcAAFAqtsv3J78aH8MbvoASwPgAlIhMovY3kv6TEgAAoAT4TpHz07PqVpECKA2MD0AJSSe8G83ZI5QAAAChZrouk6iZSwigdDA+AKX1L7XrdRUXmbScFgAAIJzcY+m4dxsdgNLC+ACUmOWzDuksRPwzJO2gBgAACJkl+VEVF3LAJFB6GB+AEtTSULfSzM6RVKAGAAAIAydtixYqprTeNr6LGkDpYXwASlQq7j0rsxsoAQAAQqBgsvMWzz70bVIApYnxAShh6XjNzZIeogQAAAg0Z99KJ7xnCAGULsYHoKSZy4+KXiLZUloAAIBgcg+kk96ddABKG+MDUOJabxvf5VfYZJm2UAMAAASJSS2WjVxGCaD0MT4AZaDlzpp3nO/OlZSnBgAACIitOUWnpOZ43aQASh/jA1AmMsnYCyZ9lxIAAGDkWS4if2prYvxqWgDlgfEBKCOpRO1tcrqXEgAAYEQ5d3Vzoq6JEED5YHwAykx1lX+FpGZKAACAkWCy+9LJ2iQlgPLC+ACUmYUz63osamdK2kwNAAAwzF5pt65LyQCUHyMBUJ5OuqLtH1zEvSCpihoAAGAYbMybO7k1HltHCqD88OQDUKZSs7yXTXYtJQAAwNCznMzOZngAyhfjA1DGUgnvLpP+mxIAAGCITU/HvT+QAShfjA9AmTugMzvdyRZRAgAADAWT3Z1OeHMoAZQ3xgegzDXdO6E3UpE9XVIbNQAAQJEtbLeuq8gAgAMnAUiSTvjG+lMjvuaJAygBAEBxftTY4JSflEkcxi84APDkA4D3tTTULjDnrqIEAAAogt6IFU5neADwfxgfAPxJKhmbLTm+kwkAAAbFSdOb43WcKQXgTxgfAOzCshunS+I0agAAsFecU0MmUcvbtADsgvEBwC5Scyblon7l2SbxHm4AADAgTpqfHbfj25QA8Nc4cBLAbk2cse6TctYkqZoaAACgH97N56Mnt949/j1SAPhrPPkAYLfS8dgrztyllAAAAP3Q6/uRqQwPAPaE8QHAHmXisftkSlICAAB8iCtaZtUsJgOAPWF8APCBrG/D1U7WRAkAALA7ztnt6UTtPZQA8EEYHwB8oNScSblK5081aTU1AADALkwvHDiu5jpCAPjwywUA9MMJV6w7IRKx+ZL2pQYAAJC0xrI2KTXH20IKAB+GJx8A9EvLrFiLzDiAEgAASFKPOZvC8ACgvxgfAPRbOu49KNlMSgAAUNacc7o4lfTSpADQX4wPAAbkyE0135bpaUoAAFCenHRLJln7a0oAGAjGBwAD0thoheoK/3zJ3qIGAADlxUnPHbXJ+w9KABgoDpwEsFcmXr72OEUjCyTtRw0AAMriB4fVUedOXpSMbaUGgIHiyQcAeyU9u65VZhdKctQAAKDkdVokOpnhAcDeYnwAsNfSce8xM91KCQAASpozuYubG8YvIwWAvcX4AGBQUmO87znZ7ygBAEBpcrKbUolYIyUADAbjA4DBqTc/X8h9RdIqYgAAUHKeOWpTzY1kADBYjA8ABm3p7MO3RyLRMyR1UgMAgBLh9KZle89pbLQCMQAMFuMDgKJobhi/zClytiRuUAAACL+tBbnJqTlHtpMCQDEwPgAomkyiZq6cfYsSAACEWtYi7qwlydgKUgAoFsYHAEWVTnp3SppFCQAAQsnJ7OJUQ2weKQAUE+MDgKJLj/VmmPQrSgAAEC4mXZuOew9SAkCxMT4AKL5684/Y5F0gGa/lAgAgJMzZ91KJ2tsoAWAoMD4AGBKNjVbYaV0XSHqGGgAABJsz/TCV9G6mBIChwvgAYMisih/d1zd2x2SegAAAILCcTNdm4rU/IAWAoWQkADDUzjrLRVeNb7vbnL5ODQAAAqMgs8vTce+npAAw1BgfAAwTZxOnrb9JZt/l2gMAwIjrdNL5mUTtb0gBYDjwAwCAYTVx+vpzJN0jaR9qAAAwItYrYqelG7wUKQAMF8YHAMPuxGnrTjGLPCq5GmoAADB8nDS/Klpx5qt3HbqJGgCGEwdOAhh2mWRsoTM7XnJzqQEAwLBwzqkhkt3wWYYHACOBJx8AjJx6F5m4dcN1cu5GSRUEAQBgSLwn2YXphMfrrwGMGMYHACPuxBnrjjdn90g6kRoAABT1dr/RmU3LxGs20wLAiF6NSAAgCE66tLnSr6z5ppl+KKmKIgAA7D0nbZJsWibhPUoNAEHA+AAgUI6ftuHYaMS/S07/RA0AAAZ8e5+T+Uk/mrux5c4JO+gBIDBXJxIACKKJM9qmmHO3OWkCNQAA6Jdn5dtV6Vne66QAEDSMDwAC69j65VXVWw7+muRukFRLEQAAdmuhM92Qidc+TwoAQcX4ACDwTrl67T69WbvczK6R5FEEAABJppfl7CbeYgEgHJcsAAiJY+uXV43acuBpTvZNSZ+kCACgDG/fc5KecM6fmUnGFtIDQGiuXiQAEEYTZ7R9Sr67WKapkvanCACgpDm9aWb3+srfl0kc1kYQAGHD+AAg1I694r39q6PZqXL2ZUmfEa/pBACUjjZn9mTUuQebE7XzyQEgzBgfAJSME65afVCkUP2vcjpNcp+TNIYqAIAQ8SUtMdOzTu6J9JjaRao3nywASgHjA4DSVO8ik7a2He/kPuecfdqkiU6KEQYAECDdkpaY1OzLXqp0ftOiZGwrWQCUIsYHAGXjE1duOjRb8CdG5B/rnDtKZkdLOkqyGslVUggAMAR6JW2WtM5kKyV/lW+2yvcjrR99b/wbjY1WIBGAcsD4AACSTrl67Ueyuegh8jXWj7pRztd+UXOcHwFgSPiKdsr8HCVK7YO1rEXVZQW5QqVty2WjW5bPOqSTMAAAAAAAAAAAAAAAAAAAAAAAAAAAAAAAAAAAAAAAAAAAAAAAAAAAAAAAAAAAAAAAAAAAAAAAAAAAAAAAAAAAAAAAAAAAAAAAAAAAAAAAAAAAAAAAAAAAANjV/wLiFyfYmi5B3gAAACV0RVh0ZGF0ZTpjcmVhdGUAMjAyMy0wMi0wNVQxODoxNzoxNSswMDowMEHFyc4AAAAldEVYdGRhdGU6bW9kaWZ5ADIwMjMtMDItMDVUMTg6MTc6MTUrMDA6MDAwmHFyAAAAAElFTkSuQmCC;fontSize=15;" vertex="1" parent="1">
          <mxGeometry x="1460" y="220" width="85" height="82.5" as="geometry" />
        </mxCell>
        <mxCell id="lHYMxXaq1XfdecDBcLf--29" style="edgeStyle=orthogonalEdgeStyle;rounded=0;orthogonalLoop=1;jettySize=auto;html=1;strokeWidth=4;" edge="1" parent="1" source="lHYMxXaq1XfdecDBcLf--25" target="lHYMxXaq1XfdecDBcLf--4">
          <mxGeometry relative="1" as="geometry" />
        </mxCell>
        <mxCell id="lHYMxXaq1XfdecDBcLf--25" value="" style="strokeColor=#dddddd;shadow=1;strokeWidth=1;rounded=1;absoluteArcSize=1;arcSize=2;" vertex="1" parent="1">
          <mxGeometry x="370" y="598" width="130" height="44" as="geometry" />
        </mxCell>
        <mxCell id="lHYMxXaq1XfdecDBcLf--26" value="HTTPS&#xa;Load Balancer" style="sketch=0;dashed=0;connectable=0;html=1;fillColor=#757575;strokeColor=none;shape=mxgraph.gcp2.network_load_balancer;part=1;labelPosition=right;verticalLabelPosition=middle;align=left;verticalAlign=middle;spacingLeft=5;fontSize=12;" vertex="1" parent="lHYMxXaq1XfdecDBcLf--25">
          <mxGeometry y="0.5" width="32" height="32" relative="1" as="geometry">
            <mxPoint x="5" y="-16" as="offset" />
          </mxGeometry>
        </mxCell>
        <mxCell id="lHYMxXaq1XfdecDBcLf--28" style="edgeStyle=orthogonalEdgeStyle;rounded=0;orthogonalLoop=1;jettySize=auto;html=1;entryX=0;entryY=0.5;entryDx=0;entryDy=0;strokeWidth=4;" edge="1" parent="1" source="lHYMxXaq1XfdecDBcLf--27" target="lHYMxXaq1XfdecDBcLf--25">
          <mxGeometry relative="1" as="geometry" />
        </mxCell>
        <mxCell id="lHYMxXaq1XfdecDBcLf--27" value="End-User" style="sketch=0;html=1;dashed=0;whitespace=wrap;fillColor=#2875E2;strokeColor=#ffffff;points=[[0.005,0.63,0],[0.1,0.2,0],[0.9,0.2,0],[0.5,0,0],[0.995,0.63,0],[0.72,0.99,0],[0.5,1,0],[0.28,0.99,0]];verticalLabelPosition=bottom;align=center;verticalAlign=top;shape=mxgraph.kubernetes.icon;prIcon=user;fontSize=15;" vertex="1" parent="1">
          <mxGeometry x="160" y="578" width="90" height="84" as="geometry" />
        </mxCell>
      </root>
    </mxGraphModel>
  </diagram>
</mxfile>
